solid model
facet normal -0.0 -0.0 1.0
outer loop
vertex -19.696155060244163 -3.4729635533386007 0.9999999999999999
vertex -19.69615506024416 3.4729635533386136 0.9999999999999999
vertex -20.0 2.4492935982947065e-15 0.9999999999999999
endloop
endfacet
facet normal -0.0 -0.0 1.0
outer loop
vertex -19.69615506024416 3.4729635533386136 0.9999999999999999
vertex -19.696155060244163 -3.4729635533386007 0.9999999999999999
vertex -18.79385241571817 -6.840402866513374 0.9999999999999999
endloop
endfacet
facet normal -0.0 -0.0 1.0
outer loop
vertex -19.69615506024416 3.4729635533386136 0.9999999999999999
vertex -18.79385241571817 -6.840402866513374 0.9999999999999999
vertex -18.793852415718167 6.840402866513378 0.9999999999999999
endloop
endfacet
facet normal -0.0 -0.0 1.0
outer loop
vertex -18.793852415718167 6.840402866513378 0.9999999999999999
vertex -18.79385241571817 -6.840402866513374 0.9999999999999999
vertex -17.320508075688778 -9.999999999999995 0.9999999999999999
endloop
endfacet
facet normal -0.0 -0.0 1.0
outer loop
vertex -18.793852415718167 6.840402866513378 0.9999999999999999
vertex -17.320508075688778 -9.999999999999995 0.9999999999999999
vertex -17.320508075688775 9.999999999999998 0.9999999999999999
endloop
endfacet
facet normal -0.0 -0.0 1.0
outer loop
vertex -17.320508075688775 9.999999999999998 0.9999999999999999
vertex -17.320508075688778 -9.999999999999995 0.9999999999999999
vertex -15.32088886237956 -12.855752193730783 0.9999999999999999
endloop
endfacet
facet normal -0.0 -0.0 1.0
outer loop
vertex -17.320508075688775 9.999999999999998 0.9999999999999999
vertex -15.32088886237956 -12.855752193730783 0.9999999999999999
vertex -15.320888862379556 12.85575219373079 0.9999999999999999
endloop
endfacet
facet normal -0.0 -0.0 1.0
outer loop
vertex -15.320888862379556 12.85575219373079 0.9999999999999999
vertex -15.32088886237956 -12.855752193730783 0.9999999999999999
vertex -12.85575219373079 -15.320888862379556 0.9999999999999999
endloop
endfacet
facet normal -0.0 -0.0 1.0
outer loop
vertex -15.320888862379556 12.85575219373079 0.9999999999999999
vertex -12.85575219373079 -15.320888862379556 0.9999999999999999
vertex -12.855752193730787 15.32088886237956 0.9999999999999999
endloop
endfacet
facet normal -0.0 -0.0 1.0
outer loop
vertex -12.855752193730787 15.32088886237956 0.9999999999999999
vertex -12.85575219373079 -15.320888862379556 0.9999999999999999
vertex -10.000000000000009 -17.32050807568877 0.9999999999999999
endloop
endfacet
facet normal -0.0 -0.0 1.0
outer loop
vertex -12.855752193730787 15.32088886237956 0.9999999999999999
vertex -10.000000000000009 -17.32050807568877 0.9999999999999999
vertex -9.999999999999996 17.320508075688775 0.9999999999999999
endloop
endfacet
facet normal -0.0 -0.0 1.0
outer loop
vertex -9.999999999999996 17.320508075688775 0.9999999999999999
vertex -10.000000000000009 -17.32050807568877 0.9999999999999999
vertex -6.840402866513388 -18.793852415718163 0.9999999999999999
endloop
endfacet
facet normal -0.0 -0.0 1.0
outer loop
vertex -9.999999999999996 17.320508075688775 0.9999999999999999
vertex -6.840402866513388 -18.793852415718163 0.9999999999999999
vertex -6.840402866513374 18.79385241571817 0.9999999999999999
endloop
endfacet
facet normal -0.0 -0.0 1.0
outer loop
vertex -6.840402866513374 18.79385241571817 0.9999999999999999
vertex -6.840402866513388 -18.793852415718163 0.9999999999999999
vertex -3.4729635533386065 -19.69615506024416 0.9999999999999999
endloop
endfacet
facet normal -0.0 -0.0 1.0
outer loop
vertex -6.840402866513374 18.79385241571817 0.9999999999999999
vertex -3.4729635533386065 -19.69615506024416 0.9999999999999999
vertex -3.4729635533386056 19.69615506024416 0.9999999999999999
endloop
endfacet
facet normal -0.0 -0.0 1.0
outer loop
vertex -3.4729635533386056 19.69615506024416 0.9999999999999999
vertex -3.4729635533386065 -19.69615506024416 0.9999999999999999
vertex -3.673940397442059e-15 -20.0 0.9999999999999999
endloop
endfacet
facet normal -0.0 -0.0 1.0
outer loop
vertex -3.4729635533386056 19.69615506024416 0.9999999999999999
vertex -3.673940397442059e-15 -20.0 0.9999999999999999
vertex 1.2246467991473533e-15 20.0 0.9999999999999999
endloop
endfacet
facet normal -0.0 -0.0 1.0
outer loop
vertex 1.2246467991473533e-15 20.0 0.9999999999999999
vertex -3.673940397442059e-15 -20.0 0.9999999999999999
vertex 3.4729635533385994 -19.696155060244163 0.9999999999999999
endloop
endfacet
facet normal -0.0 -0.0 1.0
outer loop
vertex 1.2246467991473533e-15 20.0 0.9999999999999999
vertex 3.4729635533385994 -19.696155060244163 0.9999999999999999
vertex 3.4729635533386087 19.69615506024416 0.9999999999999999
endloop
endfacet
facet normal -0.0 -0.0 1.0
outer loop
vertex 3.4729635533386087 19.69615506024416 0.9999999999999999
vertex 3.4729635533385994 -19.696155060244163 0.9999999999999999
vertex 6.8404028665133625 -18.79385241571817 0.9999999999999999
endloop
endfacet
facet normal -0.0 -0.0 1.0
outer loop
vertex 3.4729635533386087 19.69615506024416 0.9999999999999999
vertex 6.8404028665133625 -18.79385241571817 0.9999999999999999
vertex 6.840402866513377 18.793852415718167 0.9999999999999999
endloop
endfacet
facet normal -0.0 -0.0 1.0
outer loop
vertex 6.840402866513377 18.793852415718167 0.9999999999999999
vertex 6.8404028665133625 -18.79385241571817 0.9999999999999999
vertex 10.000000000000004 -17.32050807568877 0.9999999999999999
endloop
endfacet
facet normal -0.0 -0.0 1.0
outer loop
vertex 6.840402866513377 18.793852415718167 0.9999999999999999
vertex 10.000000000000004 -17.32050807568877 0.9999999999999999
vertex 10.000000000000004 17.32050807568877 0.9999999999999999
endloop
endfacet
facet normal -0.0 -0.0 1.0
outer loop
vertex 10.000000000000004 17.32050807568877 0.9999999999999999
vertex 10.000000000000004 -17.32050807568877 0.9999999999999999
vertex 12.855752193730783 -15.320888862379562 0.9999999999999999
endloop
endfacet
facet normal -0.0 -0.0 1.0
outer loop
vertex 10.000000000000004 17.32050807568877 0.9999999999999999
vertex 12.855752193730783 -15.320888862379562 0.9999999999999999
vertex 12.855752193730787 15.32088886237956 0.9999999999999999
endloop
endfacet
facet normal -0.0 -0.0 1.0
outer loop
vertex 12.855752193730787 15.32088886237956 0.9999999999999999
vertex 12.855752193730783 -15.320888862379562 0.9999999999999999
vertex 15.320888862379556 -12.855752193730792 0.9999999999999999
endloop
endfacet
facet normal -0.0 -0.0 1.0
outer loop
vertex 12.855752193730787 15.32088886237956 0.9999999999999999
vertex 15.320888862379556 -12.855752193730792 0.9999999999999999
vertex 15.32088886237956 12.855752193730783 0.9999999999999999
endloop
endfacet
facet normal -0.0 -0.0 1.0
outer loop
vertex 15.32088886237956 12.855752193730783 0.9999999999999999
vertex 15.320888862379556 -12.855752193730792 0.9999999999999999
vertex 17.320508075688767 -10.000000000000009 0.9999999999999999
endloop
endfacet
facet normal -0.0 -0.0 1.0
outer loop
vertex 15.32088886237956 12.855752193730783 0.9999999999999999
vertex 17.320508075688767 -10.000000000000009 0.9999999999999999
vertex 17.320508075688775 9.999999999999998 0.9999999999999999
endloop
endfacet
facet normal -0.0 -0.0 1.0
outer loop
vertex 17.320508075688775 9.999999999999998 0.9999999999999999
vertex 17.320508075688767 -10.000000000000009 0.9999999999999999
vertex 18.79385241571816 -6.840402866513389 0.9999999999999999
endloop
endfacet
facet normal -0.0 -0.0 1.0
outer loop
vertex 17.320508075688775 9.999999999999998 0.9999999999999999
vertex 18.79385241571816 -6.840402866513389 0.9999999999999999
vertex 18.79385241571817 6.840402866513374 0.9999999999999999
endloop
endfacet
facet normal -0.0 -0.0 1.0
outer loop
vertex 18.79385241571817 6.840402866513374 0.9999999999999999
vertex 18.79385241571816 -6.840402866513389 0.9999999999999999
vertex 19.69615506024416 -3.472963553338608 0.9999999999999999
endloop
endfacet
facet normal -0.0 -0.0 1.0
outer loop
vertex 18.79385241571817 6.840402866513374 0.9999999999999999
vertex 19.69615506024416 -3.472963553338608 0.9999999999999999
vertex 19.69615506024416 3.4729635533386065 0.9999999999999999
endloop
endfacet
facet normal -0.0 -0.0 1.0
outer loop
vertex 19.69615506024416 3.4729635533386065 0.9999999999999999
vertex 19.69615506024416 -3.472963553338608 0.9999999999999999
vertex 20.0 0.0 0.9999999999999999
endloop
endfacet
facet normal -0.34202014332566855 0.9396926207859085 0.0
outer loop
vertex -6.840402866513374 18.79385241571817 0.9999999999999999
vertex -3.4729635533386056 19.69615506024416 0.0
vertex -6.840402866513374 18.79385241571817 0.0
endloop
endfacet
facet normal -0.1736481776669301 0.9848077530122082 0.0
outer loop
vertex -3.4729635533386056 19.69615506024416 0.0
vertex -6.840402866513374 18.79385241571817 0.9999999999999999
vertex -3.4729635533386056 19.69615506024416 0.9999999999999999
endloop
endfacet
facet normal -0.6427876096865394 0.766044443118978 0.0
outer loop
vertex -12.855752193730787 15.32088886237956 0.9999999999999999
vertex -9.999999999999996 17.320508075688775 0.0
vertex -12.855752193730787 15.32088886237956 0.0
endloop
endfacet
facet normal -0.5000000000000002 0.8660254037844386 0.0
outer loop
vertex -9.999999999999996 17.320508075688775 0.0
vertex -12.855752193730787 15.32088886237956 0.9999999999999999
vertex -9.999999999999996 17.320508075688775 0.9999999999999999
endloop
endfacet
facet normal 0.17364817766693044 0.984807753012208 0.0
outer loop
vertex 3.4729635533386087 19.69615506024416 0.9999999999999999
vertex 6.840402866513377 18.793852415718167 0.0
vertex 3.4729635533386087 19.69615506024416 0.0
endloop
endfacet
facet normal 0.3420201433256687 0.9396926207859083 0.0
outer loop
vertex 6.840402866513377 18.793852415718167 0.0
vertex 3.4729635533386087 19.69615506024416 0.9999999999999999
vertex 6.840402866513377 18.793852415718167 0.9999999999999999
endloop
endfacet
facet normal -0.6427876096865394 0.766044443118978 0.0
outer loop
vertex -12.855752193730787 15.32088886237956 0.9999999999999999
vertex -15.320888862379556 12.85575219373079 0.0
vertex -15.320888862379556 12.85575219373079 0.9999999999999999
endloop
endfacet
facet normal -0.7660444431189778 0.6427876096865396 0.0
outer loop
vertex -15.320888862379556 12.85575219373079 0.0
vertex -12.855752193730787 15.32088886237956 0.9999999999999999
vertex -12.855752193730787 15.32088886237956 0.0
endloop
endfacet
facet normal 0.0 1.0 0.0
outer loop
vertex 1.2246467991473533e-15 20.0 0.9999999999999999
vertex 3.4729635533386087 19.69615506024416 0.0
vertex 1.2246467991473533e-15 20.0 0.0
endloop
endfacet
facet normal 0.17364817766693044 0.984807753012208 0.0
outer loop
vertex 3.4729635533386087 19.69615506024416 0.0
vertex 1.2246467991473533e-15 20.0 0.9999999999999999
vertex 3.4729635533386087 19.69615506024416 0.9999999999999999
endloop
endfacet
facet normal -0.1736481776669301 0.9848077530122082 0.0
outer loop
vertex -3.4729635533386056 19.69615506024416 0.9999999999999999
vertex 1.2246467991473533e-15 20.0 0.0
vertex -3.4729635533386056 19.69615506024416 0.0
endloop
endfacet
facet normal 0.0 1.0 0.0
outer loop
vertex 1.2246467991473533e-15 20.0 0.0
vertex -3.4729635533386056 19.69615506024416 0.9999999999999999
vertex 1.2246467991473533e-15 20.0 0.9999999999999999
endloop
endfacet
facet normal -0.5000000000000002 0.8660254037844386 0.0
outer loop
vertex -9.999999999999996 17.320508075688775 0.9999999999999999
vertex -6.840402866513374 18.79385241571817 0.0
vertex -9.999999999999996 17.320508075688775 0.0
endloop
endfacet
facet normal -0.34202014332566855 0.9396926207859085 0.0
outer loop
vertex -6.840402866513374 18.79385241571817 0.0
vertex -9.999999999999996 17.320508075688775 0.9999999999999999
vertex -6.840402866513374 18.79385241571817 0.9999999999999999
endloop
endfacet
facet normal 0.3420201433256687 0.9396926207859083 0.0
outer loop
vertex 6.840402866513377 18.793852415718167 0.9999999999999999
vertex 10.000000000000004 17.32050807568877 0.0
vertex 6.840402866513377 18.793852415718167 0.0
endloop
endfacet
facet normal 0.5000000000000002 0.8660254037844386 0.0
outer loop
vertex 10.000000000000004 17.32050807568877 0.0
vertex 6.840402866513377 18.793852415718167 0.9999999999999999
vertex 10.000000000000004 17.32050807568877 0.9999999999999999
endloop
endfacet
facet normal 0.0 0.0 -1.0
outer loop
vertex -19.69615506024416 3.4729635533386136 0.0
vertex -19.696155060244163 -3.4729635533386007 0.0
vertex -20.0 2.4492935982947065e-15 0.0
endloop
endfacet
facet normal 0.0 0.0 -1.0
outer loop
vertex -19.696155060244163 -3.4729635533386007 0.0
vertex -19.69615506024416 3.4729635533386136 0.0
vertex -18.79385241571817 -6.840402866513374 0.0
endloop
endfacet
facet normal 0.0 0.0 -1.0
outer loop
vertex -18.79385241571817 -6.840402866513374 0.0
vertex -19.69615506024416 3.4729635533386136 0.0
vertex -18.793852415718167 6.840402866513378 0.0
endloop
endfacet
facet normal 0.0 0.0 -1.0
outer loop
vertex -18.79385241571817 -6.840402866513374 0.0
vertex -18.793852415718167 6.840402866513378 0.0
vertex -17.320508075688778 -9.999999999999995 0.0
endloop
endfacet
facet normal 0.0 0.0 -1.0
outer loop
vertex -17.320508075688778 -9.999999999999995 0.0
vertex -18.793852415718167 6.840402866513378 0.0
vertex -17.320508075688775 9.999999999999998 0.0
endloop
endfacet
facet normal 0.0 0.0 -1.0
outer loop
vertex -17.320508075688778 -9.999999999999995 0.0
vertex -17.320508075688775 9.999999999999998 0.0
vertex -15.32088886237956 -12.855752193730783 0.0
endloop
endfacet
facet normal 0.0 0.0 -1.0
outer loop
vertex -15.32088886237956 -12.855752193730783 0.0
vertex -17.320508075688775 9.999999999999998 0.0
vertex -15.320888862379556 12.85575219373079 0.0
endloop
endfacet
facet normal 0.0 0.0 -1.0
outer loop
vertex -15.32088886237956 -12.855752193730783 0.0
vertex -15.320888862379556 12.85575219373079 0.0
vertex -12.85575219373079 -15.320888862379556 0.0
endloop
endfacet
facet normal 0.0 0.0 -1.0
outer loop
vertex -12.85575219373079 -15.320888862379556 0.0
vertex -15.320888862379556 12.85575219373079 0.0
vertex -12.855752193730787 15.32088886237956 0.0
endloop
endfacet
facet normal 0.0 0.0 -1.0
outer loop
vertex -12.85575219373079 -15.320888862379556 0.0
vertex -12.855752193730787 15.32088886237956 0.0
vertex -10.000000000000009 -17.32050807568877 0.0
endloop
endfacet
facet normal 0.0 0.0 -1.0
outer loop
vertex -10.000000000000009 -17.32050807568877 0.0
vertex -12.855752193730787 15.32088886237956 0.0
vertex -9.999999999999996 17.320508075688775 0.0
endloop
endfacet
facet normal 0.0 0.0 -1.0
outer loop
vertex -10.000000000000009 -17.32050807568877 0.0
vertex -9.999999999999996 17.320508075688775 0.0
vertex -6.840402866513388 -18.793852415718163 0.0
endloop
endfacet
facet normal 0.0 0.0 -1.0
outer loop
vertex -6.840402866513388 -18.793852415718163 0.0
vertex -9.999999999999996 17.320508075688775 0.0
vertex -6.840402866513374 18.79385241571817 0.0
endloop
endfacet
facet normal 0.0 0.0 -1.0
outer loop
vertex -6.840402866513388 -18.793852415718163 0.0
vertex -6.840402866513374 18.79385241571817 0.0
vertex -3.4729635533386065 -19.69615506024416 0.0
endloop
endfacet
facet normal 0.0 0.0 -1.0
outer loop
vertex -3.4729635533386065 -19.69615506024416 0.0
vertex -6.840402866513374 18.79385241571817 0.0
vertex -3.4729635533386056 19.69615506024416 0.0
endloop
endfacet
facet normal 0.0 0.0 -1.0
outer loop
vertex -3.4729635533386065 -19.69615506024416 0.0
vertex -3.4729635533386056 19.69615506024416 0.0
vertex -3.673940397442059e-15 -20.0 0.0
endloop
endfacet
facet normal 0.0 0.0 -1.0
outer loop
vertex -3.673940397442059e-15 -20.0 0.0
vertex -3.4729635533386056 19.69615506024416 0.0
vertex 1.2246467991473533e-15 20.0 0.0
endloop
endfacet
facet normal 0.0 0.0 -1.0
outer loop
vertex -3.673940397442059e-15 -20.0 0.0
vertex 1.2246467991473533e-15 20.0 0.0
vertex 3.4729635533385994 -19.696155060244163 0.0
endloop
endfacet
facet normal 0.0 0.0 -1.0
outer loop
vertex 3.4729635533385994 -19.696155060244163 0.0
vertex 1.2246467991473533e-15 20.0 0.0
vertex 3.4729635533386087 19.69615506024416 0.0
endloop
endfacet
facet normal 0.0 0.0 -1.0
outer loop
vertex 3.4729635533385994 -19.696155060244163 0.0
vertex 3.4729635533386087 19.69615506024416 0.0
vertex 6.8404028665133625 -18.79385241571817 0.0
endloop
endfacet
facet normal 0.0 0.0 -1.0
outer loop
vertex 6.8404028665133625 -18.79385241571817 0.0
vertex 3.4729635533386087 19.69615506024416 0.0
vertex 6.840402866513377 18.793852415718167 0.0
endloop
endfacet
facet normal 0.0 0.0 -1.0
outer loop
vertex 6.8404028665133625 -18.79385241571817 0.0
vertex 6.840402866513377 18.793852415718167 0.0
vertex 10.000000000000004 -17.32050807568877 0.0
endloop
endfacet
facet normal 0.0 0.0 -1.0
outer loop
vertex 10.000000000000004 -17.32050807568877 0.0
vertex 6.840402866513377 18.793852415718167 0.0
vertex 10.000000000000004 17.32050807568877 0.0
endloop
endfacet
facet normal 0.0 0.0 -1.0
outer loop
vertex 10.000000000000004 -17.32050807568877 0.0
vertex 10.000000000000004 17.32050807568877 0.0
vertex 12.855752193730787 15.32088886237956 0.0
endloop
endfacet
facet normal 0.0 0.0 -1.0
outer loop
vertex 10.000000000000004 -17.32050807568877 0.0
vertex 12.855752193730787 15.32088886237956 0.0
vertex 12.855752193730783 -15.320888862379562 0.0
endloop
endfacet
facet normal 0.0 0.0 -1.0
outer loop
vertex 12.855752193730783 -15.320888862379562 0.0
vertex 12.855752193730787 15.32088886237956 0.0
vertex 15.320888862379556 -12.855752193730792 0.0
endloop
endfacet
facet normal 0.0 0.0 -1.0
outer loop
vertex 15.320888862379556 -12.855752193730792 0.0
vertex 12.855752193730787 15.32088886237956 0.0
vertex 15.32088886237956 12.855752193730783 0.0
endloop
endfacet
facet normal 0.0 0.0 -1.0
outer loop
vertex 15.320888862379556 -12.855752193730792 0.0
vertex 15.32088886237956 12.855752193730783 0.0
vertex 17.320508075688767 -10.000000000000009 0.0
endloop
endfacet
facet normal 0.0 0.0 -1.0
outer loop
vertex 17.320508075688767 -10.000000000000009 0.0
vertex 15.32088886237956 12.855752193730783 0.0
vertex 17.320508075688775 9.999999999999998 0.0
endloop
endfacet
facet normal 0.0 0.0 -1.0
outer loop
vertex 17.320508075688767 -10.000000000000009 0.0
vertex 17.320508075688775 9.999999999999998 0.0
vertex 18.79385241571816 -6.840402866513389 0.0
endloop
endfacet
facet normal 0.0 0.0 -1.0
outer loop
vertex 18.79385241571816 -6.840402866513389 0.0
vertex 17.320508075688775 9.999999999999998 0.0
vertex 18.79385241571817 6.840402866513374 0.0
endloop
endfacet
facet normal 0.0 0.0 -1.0
outer loop
vertex 18.79385241571816 -6.840402866513389 0.0
vertex 18.79385241571817 6.840402866513374 0.0
vertex 19.69615506024416 -3.472963553338608 0.0
endloop
endfacet
facet normal 0.0 0.0 -1.0
outer loop
vertex 19.69615506024416 -3.472963553338608 0.0
vertex 18.79385241571817 6.840402866513374 0.0
vertex 19.69615506024416 3.4729635533386065 0.0
endloop
endfacet
facet normal 0.0 0.0 -1.0
outer loop
vertex 19.69615506024416 -3.472963553338608 0.0
vertex 19.69615506024416 3.4729635533386065 0.0
vertex 20.0 0.0 0.0
endloop
endfacet
facet normal 0.9848077530122081 -0.17364817766693075 0.0
outer loop
vertex 19.69615506024416 -3.472963553338608 0.0
vertex 18.79385241571816 -6.840402866513389 0.9999999999999999
vertex 18.79385241571816 -6.840402866513389 0.0
endloop
endfacet
facet normal 0.9396926207859082 -0.34202014332566943 0.0
outer loop
vertex 18.79385241571816 -6.840402866513389 0.9999999999999999
vertex 19.69615506024416 -3.472963553338608 0.0
vertex 19.69615506024416 -3.472963553338608 0.9999999999999999
endloop
endfacet
facet normal 0.49999999999999956 -0.8660254037844388 0.0
outer loop
vertex 10.000000000000004 -17.32050807568877 0.9999999999999999
vertex 6.8404028665133625 -18.79385241571817 0.0
vertex 10.000000000000004 -17.32050807568877 0.0
endloop
endfacet
facet normal 0.3420201433256684 -0.9396926207859084 0.0
outer loop
vertex 6.8404028665133625 -18.79385241571817 0.0
vertex 10.000000000000004 -17.32050807568877 0.9999999999999999
vertex 6.8404028665133625 -18.79385241571817 0.9999999999999999
endloop
endfacet
facet normal 0.3420201433256684 -0.9396926207859084 0.0
outer loop
vertex 6.8404028665133625 -18.79385241571817 0.9999999999999999
vertex 3.4729635533385994 -19.696155060244163 0.0
vertex 6.8404028665133625 -18.79385241571817 0.0
endloop
endfacet
facet normal 0.17364817766693033 -0.9848077530122081 0.0
outer loop
vertex 3.4729635533385994 -19.696155060244163 0.0
vertex 6.8404028665133625 -18.79385241571817 0.9999999999999999
vertex 3.4729635533385994 -19.696155060244163 0.9999999999999999
endloop
endfacet
facet normal 0.17364817766693033 -0.9848077530122081 0.0
outer loop
vertex 3.4729635533385994 -19.696155060244163 0.9999999999999999
vertex -3.673940397442059e-15 -20.0 0.0
vertex 3.4729635533385994 -19.696155060244163 0.0
endloop
endfacet
facet normal -4.168252292535798e-16 -1.0 0.0
outer loop
vertex -3.673940397442059e-15 -20.0 0.0
vertex 3.4729635533385994 -19.696155060244163 0.9999999999999999
vertex -3.673940397442059e-15 -20.0 0.9999999999999999
endloop
endfacet
facet normal -4.168252292535798e-16 -1.0 0.0
outer loop
vertex -3.673940397442059e-15 -20.0 0.9999999999999999
vertex -3.4729635533386065 -19.69615506024416 0.0
vertex -3.673940397442059e-15 -20.0 0.0
endloop
endfacet
facet normal -0.17364817766693041 -0.984807753012208 0.0
outer loop
vertex -3.4729635533386065 -19.69615506024416 0.0
vertex -3.673940397442059e-15 -20.0 0.9999999999999999
vertex -3.4729635533386065 -19.69615506024416 0.9999999999999999
endloop
endfacet
facet normal 0.9396926207859082 -0.34202014332566943 0.0
outer loop
vertex 18.79385241571816 -6.840402866513389 0.0
vertex 17.320508075688767 -10.000000000000009 0.9999999999999999
vertex 17.320508075688767 -10.000000000000009 0.0
endloop
endfacet
facet normal 0.8660254037844385 -0.5000000000000002 0.0
outer loop
vertex 17.320508075688767 -10.000000000000009 0.9999999999999999
vertex 18.79385241571816 -6.840402866513389 0.0
vertex 18.79385241571816 -6.840402866513389 0.9999999999999999
endloop
endfacet
facet normal -0.17364817766693041 -0.984807753012208 0.0
outer loop
vertex -3.4729635533386065 -19.69615506024416 0.9999999999999999
vertex -6.840402866513388 -18.793852415718163 0.0
vertex -3.4729635533386065 -19.69615506024416 0.0
endloop
endfacet
facet normal -0.34202014332566893 -0.9396926207859083 0.0
outer loop
vertex -6.840402866513388 -18.793852415718163 0.0
vertex -3.4729635533386065 -19.69615506024416 0.9999999999999999
vertex -6.840402866513388 -18.793852415718163 0.9999999999999999
endloop
endfacet
facet normal 0.8660254037844385 -0.5000000000000002 0.0
outer loop
vertex 17.320508075688767 -10.000000000000009 0.0
vertex 15.320888862379556 -12.855752193730792 0.9999999999999999
vertex 15.320888862379556 -12.855752193730792 0.0
endloop
endfacet
facet normal 0.7660444431189778 -0.6427876096865395 0.0
outer loop
vertex 15.320888862379556 -12.855752193730792 0.9999999999999999
vertex 17.320508075688767 -10.000000000000009 0.0
vertex 17.320508075688767 -10.000000000000009 0.9999999999999999
endloop
endfacet
facet normal 0.7660444431189778 -0.6427876096865395 0.0
outer loop
vertex 15.320888862379556 -12.855752193730792 0.9999999999999999
vertex 12.855752193730783 -15.320888862379562 0.0
vertex 15.320888862379556 -12.855752193730792 0.0
endloop
endfacet
facet normal 0.6427876096865394 -0.7660444431189781 0.0
outer loop
vertex 12.855752193730783 -15.320888862379562 0.0
vertex 15.320888862379556 -12.855752193730792 0.9999999999999999
vertex 12.855752193730783 -15.320888862379562 0.9999999999999999
endloop
endfacet
facet normal 1.0 1.773724379802467e-17 0.0
outer loop
vertex 20.0 0.0 0.0
vertex 19.69615506024416 -3.472963553338608 0.9999999999999999
vertex 19.69615506024416 -3.472963553338608 0.0
endloop
endfacet
facet normal 0.9848077530122081 -0.17364817766693075 0.0
outer loop
vertex 19.69615506024416 -3.472963553338608 0.9999999999999999
vertex 20.0 0.0 0.0
vertex 20.0 0.0 0.9999999999999999
endloop
endfacet
facet normal 0.6427876096865394 -0.7660444431189781 0.0
outer loop
vertex 12.855752193730783 -15.320888862379562 0.9999999999999999
vertex 10.000000000000004 -17.32050807568877 0.0
vertex 12.855752193730783 -15.320888862379562 0.0
endloop
endfacet
facet normal 0.49999999999999956 -0.8660254037844388 0.0
outer loop
vertex 10.000000000000004 -17.32050807568877 0.0
vertex 12.855752193730783 -15.320888862379562 0.9999999999999999
vertex 10.000000000000004 -17.32050807568877 0.9999999999999999
endloop
endfacet
facet normal 0.5000000000000002 0.8660254037844386 0.0
outer loop
vertex 10.000000000000004 17.32050807568877 0.9999999999999999
vertex 12.855752193730787 15.32088886237956 0.0
vertex 10.000000000000004 17.32050807568877 0.0
endloop
endfacet
facet normal 0.6427876096865398 0.7660444431189778 0.0
outer loop
vertex 12.855752193730787 15.32088886237956 0.0
vertex 10.000000000000004 17.32050807568877 0.9999999999999999
vertex 12.855752193730787 15.32088886237956 0.9999999999999999
endloop
endfacet
facet normal 0.6427876096865398 0.7660444431189778 0.0
outer loop
vertex 12.855752193730787 15.32088886237956 0.0
vertex 15.32088886237956 12.855752193730783 0.9999999999999999
vertex 15.32088886237956 12.855752193730783 0.0
endloop
endfacet
facet normal 0.766044443118978 0.6427876096865395 0.0
outer loop
vertex 15.32088886237956 12.855752193730783 0.9999999999999999
vertex 12.855752193730787 15.32088886237956 0.0
vertex 12.855752193730787 15.32088886237956 0.9999999999999999
endloop
endfacet
facet normal 0.766044443118978 0.6427876096865395 0.0
outer loop
vertex 15.32088886237956 12.855752193730783 0.0
vertex 17.320508075688775 9.999999999999998 0.9999999999999999
vertex 17.320508075688775 9.999999999999998 0.0
endloop
endfacet
facet normal 0.8660254037844384 0.5000000000000003 0.0
outer loop
vertex 17.320508075688775 9.999999999999998 0.9999999999999999
vertex 15.32088886237956 12.855752193730783 0.0
vertex 15.32088886237956 12.855752193730783 0.9999999999999999
endloop
endfacet
facet normal 0.9396926207859085 0.3420201433256685 0.0
outer loop
vertex 18.79385241571817 6.840402866513374 0.0
vertex 19.69615506024416 3.4729635533386065 0.9999999999999999
vertex 19.69615506024416 3.4729635533386065 0.0
endloop
endfacet
facet normal 0.9848077530122082 0.17364817766693016 0.0
outer loop
vertex 19.69615506024416 3.4729635533386065 0.9999999999999999
vertex 18.79385241571817 6.840402866513374 0.0
vertex 18.79385241571817 6.840402866513374 0.9999999999999999
endloop
endfacet
facet normal 0.8660254037844384 0.5000000000000003 0.0
outer loop
vertex 17.320508075688775 9.999999999999998 0.0
vertex 18.79385241571817 6.840402866513374 0.9999999999999999
vertex 18.79385241571817 6.840402866513374 0.0
endloop
endfacet
facet normal 0.9396926207859085 0.3420201433256685 0.0
outer loop
vertex 18.79385241571817 6.840402866513374 0.9999999999999999
vertex 17.320508075688775 9.999999999999998 0.0
vertex 17.320508075688775 9.999999999999998 0.9999999999999999
endloop
endfacet
facet normal 0.9848077530122082 0.17364817766693016 0.0
outer loop
vertex 19.69615506024416 3.4729635533386065 0.0
vertex 20.0 0.0 0.9999999999999999
vertex 20.0 0.0 0.0
endloop
endfacet
facet normal 1.0 1.773724379802467e-17 0.0
outer loop
vertex 20.0 0.0 0.9999999999999999
vertex 19.69615506024416 3.4729635533386065 0.0
vertex 19.69615506024416 3.4729635533386065 0.9999999999999999
endloop
endfacet
facet normal -0.34202014332566893 -0.9396926207859083 0.0
outer loop
vertex -6.840402866513388 -18.793852415718163 0.9999999999999999
vertex -10.000000000000009 -17.32050807568877 0.0
vertex -6.840402866513388 -18.793852415718163 0.0
endloop
endfacet
facet normal -0.5000000000000007 -0.8660254037844384 0.0
outer loop
vertex -10.000000000000009 -17.32050807568877 0.0
vertex -6.840402866513388 -18.793852415718163 0.9999999999999999
vertex -10.000000000000009 -17.32050807568877 0.9999999999999999
endloop
endfacet
facet normal -0.9396926207859083 0.3420201433256689 0.0
outer loop
vertex -18.793852415718167 6.840402866513378 0.9999999999999999
vertex -19.69615506024416 3.4729635533386136 0.0
vertex -19.69615506024416 3.4729635533386136 0.9999999999999999
endloop
endfacet
facet normal -0.9848077530122081 0.17364817766693058 0.0
outer loop
vertex -19.69615506024416 3.4729635533386136 0.0
vertex -18.793852415718167 6.840402866513378 0.9999999999999999
vertex -18.793852415718167 6.840402866513378 0.0
endloop
endfacet
facet normal -0.766044443118978 -0.6427876096865395 0.0
outer loop
vertex -15.32088886237956 -12.855752193730783 0.9999999999999999
vertex -12.85575219373079 -15.320888862379556 0.0
vertex -12.85575219373079 -15.320888862379556 0.9999999999999999
endloop
endfacet
facet normal -0.6427876096865399 -0.7660444431189776 0.0
outer loop
vertex -12.85575219373079 -15.320888862379556 0.0
vertex -15.32088886237956 -12.855752193730783 0.9999999999999999
vertex -15.32088886237956 -12.855752193730783 0.0
endloop
endfacet
facet normal -0.8660254037844386 -0.5000000000000003 0.0
outer loop
vertex -17.320508075688778 -9.999999999999995 0.9999999999999999
vertex -15.32088886237956 -12.855752193730783 0.0
vertex -15.32088886237956 -12.855752193730783 0.9999999999999999
endloop
endfacet
facet normal -0.766044443118978 -0.6427876096865395 0.0
outer loop
vertex -15.32088886237956 -12.855752193730783 0.0
vertex -17.320508075688778 -9.999999999999995 0.9999999999999999
vertex -17.320508075688778 -9.999999999999995 0.0
endloop
endfacet
facet normal -1.0 3.0153314456641943e-16 0.0
outer loop
vertex -20.0 2.4492935982947065e-15 0.9999999999999999
vertex -19.696155060244163 -3.4729635533386007 0.0
vertex -19.696155060244163 -3.4729635533386007 0.9999999999999999
endloop
endfacet
facet normal -0.9848077530122082 -0.17364817766693003 0.0
outer loop
vertex -19.696155060244163 -3.4729635533386007 0.0
vertex -20.0 2.4492935982947065e-15 0.9999999999999999
vertex -20.0 2.4492935982947065e-15 0.0
endloop
endfacet
facet normal -0.9848077530122081 0.17364817766693058 0.0
outer loop
vertex -19.69615506024416 3.4729635533386136 0.9999999999999999
vertex -20.0 2.4492935982947065e-15 0.0
vertex -20.0 2.4492935982947065e-15 0.9999999999999999
endloop
endfacet
facet normal -1.0 3.0153314456641943e-16 0.0
outer loop
vertex -20.0 2.4492935982947065e-15 0.0
vertex -19.69615506024416 3.4729635533386136 0.9999999999999999
vertex -19.69615506024416 3.4729635533386136 0.0
endloop
endfacet
facet normal -0.9396926207859084 -0.3420201433256686 0.0
outer loop
vertex -18.79385241571817 -6.840402866513374 0.9999999999999999
vertex -17.320508075688778 -9.999999999999995 0.0
vertex -17.320508075688778 -9.999999999999995 0.9999999999999999
endloop
endfacet
facet normal -0.8660254037844386 -0.5000000000000003 0.0
outer loop
vertex -17.320508075688778 -9.999999999999995 0.0
vertex -18.79385241571817 -6.840402866513374 0.9999999999999999
vertex -18.79385241571817 -6.840402866513374 0.0
endloop
endfacet
facet normal -0.9848077530122082 -0.17364817766693003 0.0
outer loop
vertex -19.696155060244163 -3.4729635533386007 0.9999999999999999
vertex -18.79385241571817 -6.840402866513374 0.0
vertex -18.79385241571817 -6.840402866513374 0.9999999999999999
endloop
endfacet
facet normal -0.9396926207859084 -0.3420201433256686 0.0
outer loop
vertex -18.79385241571817 -6.840402866513374 0.0
vertex -19.696155060244163 -3.4729635533386007 0.9999999999999999
vertex -19.696155060244163 -3.4729635533386007 0.0
endloop
endfacet
facet normal -0.5000000000000007 -0.8660254037844384 0.0
outer loop
vertex -10.000000000000009 -17.32050807568877 0.9999999999999999
vertex -12.85575219373079 -15.320888862379556 0.0
vertex -10.000000000000009 -17.32050807568877 0.0
endloop
endfacet
facet normal -0.6427876096865399 -0.7660444431189776 0.0
outer loop
vertex -12.85575219373079 -15.320888862379556 0.0
vertex -10.000000000000009 -17.32050807568877 0.9999999999999999
vertex -12.85575219373079 -15.320888862379556 0.9999999999999999
endloop
endfacet
facet normal -0.8660254037844386 0.5000000000000003 0.0
outer loop
vertex -17.320508075688775 9.999999999999998 0.9999999999999999
vertex -18.793852415718167 6.840402866513378 0.0
vertex -18.793852415718167 6.840402866513378 0.9999999999999999
endloop
endfacet
facet normal -0.9396926207859083 0.3420201433256689 0.0
outer loop
vertex -18.793852415718167 6.840402866513378 0.0
vertex -17.320508075688775 9.999999999999998 0.9999999999999999
vertex -17.320508075688775 9.999999999999998 0.0
endloop
endfacet
facet normal -0.7660444431189778 0.6427876096865396 0.0
outer loop
vertex -15.320888862379556 12.85575219373079 0.9999999999999999
vertex -17.320508075688775 9.999999999999998 0.0
vertex -17.320508075688775 9.999999999999998 0.9999999999999999
endloop
endfacet
facet normal -0.8660254037844386 0.5000000000000003 0.0
outer loop
vertex -17.320508075688775 9.999999999999998 0.0
vertex -15.320888862379556 12.85575219373079 0.9999999999999999
vertex -15.320888862379556 12.85575219373079 0.0
endloop
endfacet
endsolid model
