solid model
facet normal 0.8660254037844386 0.49999999999999994 0.0
outer loop
vertex 17.320508075688775 9.999999999999998 0.0
vertex 18.477590650225736 7.653668647301795 0.9999999999999999
vertex 18.477590650225736 7.653668647301795 0.0
endloop
endfacet
facet normal 0.923879532511287 0.3826834323650894 0.0
outer loop
vertex 18.477590650225736 7.653668647301795 0.9999999999999999
vertex 17.320508075688775 9.999999999999998 0.0
vertex 17.320508075688775 9.999999999999998 0.9999999999999999
endloop
endfacet
facet normal 0.7071067811865477 0.7071067811865474 0.0
outer loop
vertex 14.142135623730953 14.142135623730953 0.0
vertex 15.867066805824704 12.175228580174412 0.9999999999999999
vertex 15.867066805824704 12.175228580174412 0.0
endloop
endfacet
facet normal 0.7933533402912353 0.6087614290087204 0.0
outer loop
vertex 15.867066805824704 12.175228580174412 0.9999999999999999
vertex 14.142135623730953 14.142135623730953 0.0
vertex 14.142135623730953 14.142135623730953 0.9999999999999999
endloop
endfacet
facet normal 0.6087614290087205 0.7933533402912353 0.0
outer loop
vertex 12.175228580174412 15.867066805824704 0.9999999999999999
vertex 14.142135623730953 14.142135623730953 0.0
vertex 12.175228580174412 15.867066805824704 0.0
endloop
endfacet
facet normal 0.7071067811865477 0.7071067811865474 0.0
outer loop
vertex 14.142135623730953 14.142135623730953 0.0
vertex 12.175228580174412 15.867066805824704 0.9999999999999999
vertex 14.142135623730953 14.142135623730953 0.9999999999999999
endloop
endfacet
facet normal 0.7933533402912353 0.6087614290087204 0.0
outer loop
vertex 15.867066805824704 12.175228580174412 0.0
vertex 17.320508075688775 9.999999999999998 0.9999999999999999
vertex 17.320508075688775 9.999999999999998 0.0
endloop
endfacet
facet normal 0.8660254037844386 0.49999999999999994 0.0
outer loop
vertex 17.320508075688775 9.999999999999998 0.9999999999999999
vertex 15.867066805824704 12.175228580174412 0.0
vertex 15.867066805824704 12.175228580174412 0.9999999999999999
endloop
endfacet
facet normal -0.0 -0.0 1.0
outer loop
vertex -19.82889722747621 -2.6105238444010266 0.9999999999999999
vertex -19.828897227476208 2.6105238444010395 0.9999999999999999
vertex -20.0 2.4492935982947065e-15 0.9999999999999999
endloop
endfacet
facet normal -0.0 -0.0 1.0
outer loop
vertex -19.828897227476208 2.6105238444010395 0.9999999999999999
vertex -19.82889722747621 -2.6105238444010266 0.9999999999999999
vertex -19.31851652578137 -5.176380902050407 0.9999999999999999
endloop
endfacet
facet normal -0.0 -0.0 1.0
outer loop
vertex -19.828897227476208 2.6105238444010395 0.9999999999999999
vertex -19.31851652578137 -5.176380902050407 0.9999999999999999
vertex -19.318516525781366 5.17638090205042 0.9999999999999999
endloop
endfacet
facet normal -0.0 -0.0 1.0
outer loop
vertex -19.318516525781366 5.17638090205042 0.9999999999999999
vertex -19.31851652578137 -5.176380902050407 0.9999999999999999
vertex -18.47759065022574 -7.653668647301785 0.9999999999999999
endloop
endfacet
facet normal -0.0 -0.0 1.0
outer loop
vertex -19.318516525781366 5.17638090205042 0.9999999999999999
vertex -18.47759065022574 -7.653668647301785 0.9999999999999999
vertex -18.477590650225736 7.653668647301798 0.9999999999999999
endloop
endfacet
facet normal -0.0 -0.0 1.0
outer loop
vertex -18.477590650225736 7.653668647301798 0.9999999999999999
vertex -18.47759065022574 -7.653668647301785 0.9999999999999999
vertex -17.320508075688778 -9.999999999999995 0.9999999999999999
endloop
endfacet
facet normal -0.0 -0.0 1.0
outer loop
vertex -18.477590650225736 7.653668647301798 0.9999999999999999
vertex -17.320508075688778 -9.999999999999995 0.9999999999999999
vertex -17.32050807568877 10.000000000000007 0.9999999999999999
endloop
endfacet
facet normal -0.0 -0.0 1.0
outer loop
vertex -17.32050807568877 10.000000000000007 0.9999999999999999
vertex -17.320508075688778 -9.999999999999995 0.9999999999999999
vertex -15.867066805824708 -12.175228580174405 0.9999999999999999
endloop
endfacet
facet normal -0.0 -0.0 1.0
outer loop
vertex -17.32050807568877 10.000000000000007 0.9999999999999999
vertex -15.867066805824708 -12.175228580174405 0.9999999999999999
vertex -15.8670668058247 12.175228580174418 0.9999999999999999
endloop
endfacet
facet normal -0.0 -0.0 1.0
outer loop
vertex -15.8670668058247 12.175228580174418 0.9999999999999999
vertex -15.867066805824708 -12.175228580174405 0.9999999999999999
vertex -14.142135623730958 -14.142135623730944 0.9999999999999999
endloop
endfacet
facet normal -0.0 -0.0 1.0
outer loop
vertex -15.8670668058247 12.175228580174418 0.9999999999999999
vertex -14.142135623730958 -14.142135623730944 0.9999999999999999
vertex -14.14213562373095 14.142135623730953 0.9999999999999999
endloop
endfacet
facet normal -0.0 -0.0 1.0
outer loop
vertex -14.14213562373095 14.142135623730953 0.9999999999999999
vertex -14.142135623730958 -14.142135623730944 0.9999999999999999
vertex -12.175228580174418 -15.867066805824699 0.9999999999999999
endloop
endfacet
facet normal -0.0 -0.0 1.0
outer loop
vertex -14.14213562373095 14.142135623730953 0.9999999999999999
vertex -12.175228580174418 -15.867066805824699 0.9999999999999999
vertex -12.175228580174405 15.867066805824708 0.9999999999999999
endloop
endfacet
facet normal -0.0 -0.0 1.0
outer loop
vertex -12.175228580174405 15.867066805824708 0.9999999999999999
vertex -12.175228580174418 -15.867066805824699 0.9999999999999999
vertex -10.000000000000009 -17.32050807568877 0.9999999999999999
endloop
endfacet
facet normal -0.0 -0.0 1.0
outer loop
vertex -12.175228580174405 15.867066805824708 0.9999999999999999
vertex -10.000000000000009 -17.32050807568877 0.9999999999999999
vertex -9.999999999999996 17.320508075688775 0.9999999999999999
endloop
endfacet
facet normal -0.0 -0.0 1.0
outer loop
vertex -9.999999999999996 17.320508075688775 0.9999999999999999
vertex -10.000000000000009 -17.32050807568877 0.9999999999999999
vertex -7.6536686473018065 -18.47759065022573 0.9999999999999999
endloop
endfacet
facet normal -0.0 -0.0 1.0
outer loop
vertex -9.999999999999996 17.320508075688775 0.9999999999999999
vertex -7.6536686473018065 -18.47759065022573 0.9999999999999999
vertex -7.65366864730179 18.47759065022574 0.9999999999999999
endloop
endfacet
facet normal -0.0 -0.0 1.0
outer loop
vertex -7.65366864730179 18.47759065022574 0.9999999999999999
vertex -7.6536686473018065 -18.47759065022573 0.9999999999999999
vertex -5.176380902050431 -19.318516525781362 0.9999999999999999
endloop
endfacet
facet normal -0.0 -0.0 1.0
outer loop
vertex -7.65366864730179 18.47759065022574 0.9999999999999999
vertex -5.176380902050431 -19.318516525781362 0.9999999999999999
vertex -5.176380902050412 19.318516525781366 0.9999999999999999
endloop
endfacet
facet normal -0.0 -0.0 1.0
outer loop
vertex -5.176380902050412 19.318516525781366 0.9999999999999999
vertex -5.176380902050431 -19.318516525781362 0.9999999999999999
vertex -2.6105238444010497 -19.828897227476205 0.9999999999999999
endloop
endfacet
facet normal -0.0 -0.0 1.0
outer loop
vertex -5.176380902050412 19.318516525781366 0.9999999999999999
vertex -2.6105238444010497 -19.828897227476205 0.9999999999999999
vertex -2.6105238444010275 19.82889722747621 0.9999999999999999
endloop
endfacet
facet normal -0.0 -0.0 1.0
outer loop
vertex -2.6105238444010275 19.82889722747621 0.9999999999999999
vertex -2.6105238444010497 -19.828897227476205 0.9999999999999999
vertex -3.673940397442059e-15 -20.0 0.9999999999999999
endloop
endfacet
facet normal -0.0 -0.0 1.0
outer loop
vertex -2.6105238444010275 19.82889722747621 0.9999999999999999
vertex -3.673940397442059e-15 -20.0 0.9999999999999999
vertex 1.2246467991473533e-15 20.0 0.9999999999999999
endloop
endfacet
facet normal -0.0 -0.0 1.0
outer loop
vertex 1.2246467991473533e-15 20.0 0.9999999999999999
vertex -3.673940397442059e-15 -20.0 0.9999999999999999
vertex 2.6105238444010253 -19.82889722747621 0.9999999999999999
endloop
endfacet
facet normal -0.0 -0.0 1.0
outer loop
vertex 1.2246467991473533e-15 20.0 0.9999999999999999
vertex 2.6105238444010253 -19.82889722747621 0.9999999999999999
vertex 2.6105238444010346 19.828897227476208 0.9999999999999999
endloop
endfacet
facet normal -0.0 -0.0 1.0
outer loop
vertex 2.6105238444010346 19.828897227476208 0.9999999999999999
vertex 2.6105238444010253 -19.82889722747621 0.9999999999999999
vertex 5.176380902050406 -19.31851652578137 0.9999999999999999
endloop
endfacet
facet normal -0.0 -0.0 1.0
outer loop
vertex 2.6105238444010346 19.828897227476208 0.9999999999999999
vertex 5.176380902050406 -19.31851652578137 0.9999999999999999
vertex 5.176380902050419 19.318516525781366 0.9999999999999999
endloop
endfacet
facet normal -0.0 -0.0 1.0
outer loop
vertex 5.176380902050419 19.318516525781366 0.9999999999999999
vertex 5.176380902050406 -19.31851652578137 0.9999999999999999
vertex 7.653668647301783 -18.47759065022574 0.9999999999999999
endloop
endfacet
facet normal -0.0 -0.0 1.0
outer loop
vertex 5.176380902050419 19.318516525781366 0.9999999999999999
vertex 7.653668647301783 -18.47759065022574 0.9999999999999999
vertex 7.653668647301797 18.477590650225736 0.9999999999999999
endloop
endfacet
facet normal -0.0 -0.0 1.0
outer loop
vertex 7.653668647301797 18.477590650225736 0.9999999999999999
vertex 7.653668647301783 -18.47759065022574 0.9999999999999999
vertex 9.999999999999988 -17.32050807568878 0.9999999999999999
endloop
endfacet
facet normal -0.0 -0.0 1.0
outer loop
vertex 7.653668647301797 18.477590650225736 0.9999999999999999
vertex 9.999999999999988 -17.32050807568878 0.9999999999999999
vertex 10.000000000000004 17.32050807568877 0.9999999999999999
endloop
endfacet
facet normal -0.0 -0.0 1.0
outer loop
vertex 10.000000000000004 17.32050807568877 0.9999999999999999
vertex 9.999999999999988 -17.32050807568878 0.9999999999999999
vertex 12.175228580174398 -15.867066805824715 0.9999999999999999
endloop
endfacet
facet normal -0.0 -0.0 1.0
outer loop
vertex 10.000000000000004 17.32050807568877 0.9999999999999999
vertex 12.175228580174398 -15.867066805824715 0.9999999999999999
vertex 12.175228580174412 15.867066805824704 0.9999999999999999
endloop
endfacet
facet normal -0.0 -0.0 1.0
outer loop
vertex 12.175228580174412 15.867066805824704 0.9999999999999999
vertex 12.175228580174398 -15.867066805824715 0.9999999999999999
vertex 14.142135623730946 -14.142135623730955 0.9999999999999999
endloop
endfacet
facet normal -0.0 -0.0 1.0
outer loop
vertex 12.175228580174412 15.867066805824704 0.9999999999999999
vertex 14.142135623730946 -14.142135623730955 0.9999999999999999
vertex 14.142135623730953 14.142135623730953 0.9999999999999999
endloop
endfacet
facet normal -0.0 -0.0 1.0
outer loop
vertex 14.142135623730953 14.142135623730953 0.9999999999999999
vertex 14.142135623730946 -14.142135623730955 0.9999999999999999
vertex 15.867066805824699 -12.17522858017442 0.9999999999999999
endloop
endfacet
facet normal -0.0 -0.0 1.0
outer loop
vertex 14.142135623730953 14.142135623730953 0.9999999999999999
vertex 15.867066805824699 -12.17522858017442 0.9999999999999999
vertex 15.867066805824704 12.175228580174412 0.9999999999999999
endloop
endfacet
facet normal -0.0 -0.0 1.0
outer loop
vertex 15.867066805824704 12.175228580174412 0.9999999999999999
vertex 15.867066805824699 -12.17522858017442 0.9999999999999999
vertex 17.320508075688767 -10.000000000000009 0.9999999999999999
endloop
endfacet
facet normal -0.0 -0.0 1.0
outer loop
vertex 15.867066805824704 12.175228580174412 0.9999999999999999
vertex 17.320508075688767 -10.000000000000009 0.9999999999999999
vertex 17.320508075688775 9.999999999999998 0.9999999999999999
endloop
endfacet
facet normal -0.0 -0.0 1.0
outer loop
vertex 17.320508075688775 9.999999999999998 0.9999999999999999
vertex 17.320508075688767 -10.000000000000009 0.9999999999999999
vertex 18.47759065022573 -7.653668647301807 0.9999999999999999
endloop
endfacet
facet normal -0.0 -0.0 1.0
outer loop
vertex 17.320508075688775 9.999999999999998 0.9999999999999999
vertex 18.47759065022573 -7.653668647301807 0.9999999999999999
vertex 18.477590650225736 7.653668647301795 0.9999999999999999
endloop
endfacet
facet normal -0.0 -0.0 1.0
outer loop
vertex 18.477590650225736 7.653668647301795 0.9999999999999999
vertex 18.47759065022573 -7.653668647301807 0.9999999999999999
vertex 19.318516525781362 -5.176380902050432 0.9999999999999999
endloop
endfacet
facet normal -0.0 -0.0 1.0
outer loop
vertex 18.477590650225736 7.653668647301795 0.9999999999999999
vertex 19.318516525781362 -5.176380902050432 0.9999999999999999
vertex 19.318516525781366 5.176380902050415 0.9999999999999999
endloop
endfacet
facet normal -0.0 -0.0 1.0
outer loop
vertex 19.318516525781366 5.176380902050415 0.9999999999999999
vertex 19.318516525781362 -5.176380902050432 0.9999999999999999
vertex 19.828897227476205 -2.6105238444010515 0.9999999999999999
endloop
endfacet
facet normal -0.0 -0.0 1.0
outer loop
vertex 19.318516525781366 5.176380902050415 0.9999999999999999
vertex 19.828897227476205 -2.6105238444010515 0.9999999999999999
vertex 19.828897227476208 2.6105238444010315 0.9999999999999999
endloop
endfacet
facet normal -0.0 -0.0 1.0
outer loop
vertex 19.828897227476208 2.6105238444010315 0.9999999999999999
vertex 19.828897227476205 -2.6105238444010515 0.9999999999999999
vertex 20.0 0.0 0.9999999999999999
endloop
endfacet
facet normal -0.5000000000000006 -0.8660254037844384 0.0
outer loop
vertex -10.000000000000009 -17.32050807568877 0.9999999999999999
vertex -12.175228580174418 -15.867066805824699 0.0
vertex -10.000000000000009 -17.32050807568877 0.0
endloop
endfacet
facet normal -0.6087614290087211 -0.7933533402912348 0.0
outer loop
vertex -12.175228580174418 -15.867066805824699 0.0
vertex -10.000000000000009 -17.32050807568877 0.9999999999999999
vertex -12.175228580174418 -15.867066805824699 0.9999999999999999
endloop
endfacet
facet normal 0.8660254037844385 -0.5000000000000004 0.0
outer loop
vertex 17.320508075688767 -10.000000000000009 0.0
vertex 15.867066805824699 -12.17522858017442 0.9999999999999999
vertex 15.867066805824699 -12.17522858017442 0.0
endloop
endfacet
facet normal 0.793353340291235 -0.6087614290087208 0.0
outer loop
vertex 15.867066805824699 -12.17522858017442 0.9999999999999999
vertex 17.320508075688767 -10.000000000000009 0.0
vertex 17.320508075688767 -10.000000000000009 0.9999999999999999
endloop
endfacet
facet normal 0.6087614290087201 -0.7933533402912357 0.0
outer loop
vertex 12.175228580174398 -15.867066805824715 0.9999999999999999
vertex 9.999999999999988 -17.32050807568878 0.0
vertex 12.175228580174398 -15.867066805824715 0.0
endloop
endfacet
facet normal 0.49999999999999906 -0.8660254037844393 0.0
outer loop
vertex 9.999999999999988 -17.32050807568878 0.0
vertex 12.175228580174398 -15.867066805824715 0.9999999999999999
vertex 9.999999999999988 -17.32050807568878 0.9999999999999999
endloop
endfacet
facet normal -8.411139304318959e-16 -0.9999999999999999 0.0
outer loop
vertex -3.673940397442059e-15 -20.0 0.9999999999999999
vertex -2.6105238444010497 -19.828897227476205 0.0
vertex -3.673940397442059e-15 -20.0 0.0
endloop
endfacet
facet normal -0.13052619222005218 -0.9914448613738103 0.0
outer loop
vertex -2.6105238444010497 -19.828897227476205 0.0
vertex -3.673940397442059e-15 -20.0 0.9999999999999999
vertex -2.6105238444010497 -19.828897227476205 0.9999999999999999
endloop
endfacet
facet normal -0.3826834323650902 -0.9238795325112866 0.0
outer loop
vertex -7.6536686473018065 -18.47759065022573 0.9999999999999999
vertex -10.000000000000009 -17.32050807568877 0.0
vertex -7.6536686473018065 -18.47759065022573 0.0
endloop
endfacet
facet normal -0.5000000000000006 -0.8660254037844384 0.0
outer loop
vertex -10.000000000000009 -17.32050807568877 0.0
vertex -7.6536686473018065 -18.47759065022573 0.9999999999999999
vertex -10.000000000000009 -17.32050807568877 0.9999999999999999
endloop
endfacet
facet normal 0.9999999999999999 -3.010302487861522e-16 0.0
outer loop
vertex 20.0 0.0 0.0
vertex 19.828897227476205 -2.6105238444010515 0.9999999999999999
vertex 19.828897227476205 -2.6105238444010515 0.0
endloop
endfacet
facet normal 0.9914448613738104 -0.13052619222005213 0.0
outer loop
vertex 19.828897227476205 -2.6105238444010515 0.9999999999999999
vertex 20.0 0.0 0.0
vertex 20.0 0.0 0.9999999999999999
endloop
endfacet
facet normal 0.9914448613738104 -0.13052619222005213 0.0
outer loop
vertex 19.828897227476205 -2.6105238444010515 0.0
vertex 19.318516525781362 -5.176380902050432 0.9999999999999999
vertex 19.318516525781362 -5.176380902050432 0.0
endloop
endfacet
facet normal 0.9659258262890681 -0.2588190451025215 0.0
outer loop
vertex 19.318516525781362 -5.176380902050432 0.9999999999999999
vertex 19.828897227476205 -2.6105238444010515 0.0
vertex 19.828897227476205 -2.6105238444010515 0.9999999999999999
endloop
endfacet
facet normal 0.9659258262890681 -0.2588190451025215 0.0
outer loop
vertex 19.318516525781362 -5.176380902050432 0.0
vertex 18.47759065022573 -7.653668647301807 0.9999999999999999
vertex 18.47759065022573 -7.653668647301807 0.0
endloop
endfacet
facet normal 0.9238795325112864 -0.3826834323650907 0.0
outer loop
vertex 18.47759065022573 -7.653668647301807 0.9999999999999999
vertex 19.318516525781362 -5.176380902050432 0.0
vertex 19.318516525781362 -5.176380902050432 0.9999999999999999
endloop
endfacet
facet normal 0.793353340291235 -0.6087614290087208 0.0
outer loop
vertex 15.867066805824699 -12.17522858017442 0.0
vertex 14.142135623730946 -14.142135623730955 0.9999999999999999
vertex 14.142135623730946 -14.142135623730955 0.0
endloop
endfacet
facet normal 0.7071067811865471 -0.7071067811865479 0.0
outer loop
vertex 14.142135623730946 -14.142135623730955 0.9999999999999999
vertex 15.867066805824699 -12.17522858017442 0.0
vertex 15.867066805824699 -12.17522858017442 0.9999999999999999
endloop
endfacet
facet normal 0.9914448613738104 0.13052619222005177 0.0
outer loop
vertex 19.828897227476208 2.6105238444010315 0.0
vertex 20.0 0.0 0.9999999999999999
vertex 20.0 0.0 0.0
endloop
endfacet
facet normal 0.9999999999999999 -3.010302487861522e-16 0.0
outer loop
vertex 20.0 0.0 0.9999999999999999
vertex 19.828897227476208 2.6105238444010315 0.0
vertex 19.828897227476208 2.6105238444010315 0.9999999999999999
endloop
endfacet
facet normal 0.7071067811865471 -0.7071067811865479 0.0
outer loop
vertex 14.142135623730946 -14.142135623730955 0.9999999999999999
vertex 12.175228580174398 -15.867066805824715 0.0
vertex 14.142135623730946 -14.142135623730955 0.0
endloop
endfacet
facet normal 0.6087614290087201 -0.7933533402912357 0.0
outer loop
vertex 12.175228580174398 -15.867066805824715 0.0
vertex 14.142135623730946 -14.142135623730955 0.9999999999999999
vertex 12.175228580174398 -15.867066805824715 0.9999999999999999
endloop
endfacet
facet normal 0.49999999999999906 -0.8660254037844393 0.0
outer loop
vertex 9.999999999999988 -17.32050807568878 0.9999999999999999
vertex 7.653668647301783 -18.47759065022574 0.0
vertex 9.999999999999988 -17.32050807568878 0.0
endloop
endfacet
facet normal 0.38268343236508906 -0.923879532511287 0.0
outer loop
vertex 7.653668647301783 -18.47759065022574 0.0
vertex 9.999999999999988 -17.32050807568878 0.9999999999999999
vertex 7.653668647301783 -18.47759065022574 0.9999999999999999
endloop
endfacet
facet normal 0.38268343236508906 -0.923879532511287 0.0
outer loop
vertex 7.653668647301783 -18.47759065022574 0.9999999999999999
vertex 5.176380902050406 -19.31851652578137 0.0
vertex 7.653668647301783 -18.47759065022574 0.0
endloop
endfacet
facet normal 0.25881904510252096 -0.9659258262890683 0.0
outer loop
vertex 5.176380902050406 -19.31851652578137 0.0
vertex 7.653668647301783 -18.47759065022574 0.9999999999999999
vertex 5.176380902050406 -19.31851652578137 0.9999999999999999
endloop
endfacet
facet normal 0.25881904510252096 -0.9659258262890683 0.0
outer loop
vertex 5.176380902050406 -19.31851652578137 0.9999999999999999
vertex 2.6105238444010253 -19.82889722747621 0.0
vertex 5.176380902050406 -19.31851652578137 0.0
endloop
endfacet
facet normal 0.13052619222005132 -0.9914448613738105 0.0
outer loop
vertex 2.6105238444010253 -19.82889722747621 0.0
vertex 5.176380902050406 -19.31851652578137 0.9999999999999999
vertex 2.6105238444010253 -19.82889722747621 0.9999999999999999
endloop
endfacet
facet normal -0.13052619222005218 -0.9914448613738103 0.0
outer loop
vertex -2.6105238444010497 -19.828897227476205 0.9999999999999999
vertex -5.176380902050431 -19.318516525781362 0.0
vertex -2.6105238444010497 -19.828897227476205 0.0
endloop
endfacet
facet normal -0.2588190451025215 -0.965925826289068 0.0
outer loop
vertex -5.176380902050431 -19.318516525781362 0.0
vertex -2.6105238444010497 -19.828897227476205 0.9999999999999999
vertex -5.176380902050431 -19.318516525781362 0.9999999999999999
endloop
endfacet
facet normal 0.13052619222005132 -0.9914448613738105 0.0
outer loop
vertex 2.6105238444010253 -19.82889722747621 0.9999999999999999
vertex -3.673940397442059e-15 -20.0 0.0
vertex 2.6105238444010253 -19.82889722747621 0.0
endloop
endfacet
facet normal -8.411139304318959e-16 -0.9999999999999999 0.0
outer loop
vertex -3.673940397442059e-15 -20.0 0.0
vertex 2.6105238444010253 -19.82889722747621 0.9999999999999999
vertex -3.673940397442059e-15 -20.0 0.9999999999999999
endloop
endfacet
facet normal -0.2588190451025215 -0.965925826289068 0.0
outer loop
vertex -5.176380902050431 -19.318516525781362 0.9999999999999999
vertex -7.6536686473018065 -18.47759065022573 0.0
vertex -5.176380902050431 -19.318516525781362 0.0
endloop
endfacet
facet normal -0.3826834323650902 -0.9238795325112866 0.0
outer loop
vertex -7.6536686473018065 -18.47759065022573 0.0
vertex -5.176380902050431 -19.318516525781362 0.9999999999999999
vertex -7.6536686473018065 -18.47759065022573 0.9999999999999999
endloop
endfacet
facet normal 0.923879532511287 0.3826834323650894 0.0
outer loop
vertex 18.477590650225736 7.653668647301795 0.0
vertex 19.318516525781366 5.176380902050415 0.9999999999999999
vertex 19.318516525781366 5.176380902050415 0.0
endloop
endfacet
facet normal 0.9659258262890682 0.2588190451025207 0.0
outer loop
vertex 19.318516525781366 5.176380902050415 0.9999999999999999
vertex 18.477590650225736 7.653668647301795 0.0
vertex 18.477590650225736 7.653668647301795 0.9999999999999999
endloop
endfacet
facet normal 0.9238795325112864 -0.3826834323650907 0.0
outer loop
vertex 18.47759065022573 -7.653668647301807 0.0
vertex 17.320508075688767 -10.000000000000009 0.9999999999999999
vertex 17.320508075688767 -10.000000000000009 0.0
endloop
endfacet
facet normal 0.8660254037844385 -0.5000000000000004 0.0
outer loop
vertex 17.320508075688767 -10.000000000000009 0.9999999999999999
vertex 18.47759065022573 -7.653668647301807 0.0
vertex 18.47759065022573 -7.653668647301807 0.9999999999999999
endloop
endfacet
facet normal 0.9659258262890682 0.2588190451025207 0.0
outer loop
vertex 19.318516525781366 5.176380902050415 0.0
vertex 19.828897227476208 2.6105238444010315 0.9999999999999999
vertex 19.828897227476208 2.6105238444010315 0.0
endloop
endfacet
facet normal 0.9914448613738104 0.13052619222005177 0.0
outer loop
vertex 19.828897227476208 2.6105238444010315 0.9999999999999999
vertex 19.318516525781366 5.176380902050415 0.0
vertex 19.318516525781366 5.176380902050415 0.9999999999999999
endloop
endfacet
facet normal 4.736799502958571e-16 1.0 0.0
outer loop
vertex 1.2246467991473533e-15 20.0 0.9999999999999999
vertex 2.6105238444010346 19.828897227476208 0.0
vertex 1.2246467991473533e-15 20.0 0.0
endloop
endfacet
facet normal 0.13052619222005168 0.9914448613738104 0.0
outer loop
vertex 2.6105238444010346 19.828897227476208 0.0
vertex 1.2246467991473533e-15 20.0 0.9999999999999999
vertex 2.6105238444010346 19.828897227476208 0.9999999999999999
endloop
endfacet
facet normal 0.13052619222005168 0.9914448613738104 0.0
outer loop
vertex 2.6105238444010346 19.828897227476208 0.9999999999999999
vertex 5.176380902050419 19.318516525781366 0.0
vertex 2.6105238444010346 19.828897227476208 0.0
endloop
endfacet
facet normal 0.25881904510252074 0.9659258262890682 0.0
outer loop
vertex 5.176380902050419 19.318516525781366 0.0
vertex 2.6105238444010346 19.828897227476208 0.9999999999999999
vertex 5.176380902050419 19.318516525781366 0.9999999999999999
endloop
endfacet
facet normal 0.25881904510252074 0.9659258262890682 0.0
outer loop
vertex 5.176380902050419 19.318516525781366 0.9999999999999999
vertex 7.653668647301797 18.477590650225736 0.0
vertex 5.176380902050419 19.318516525781366 0.0
endloop
endfacet
facet normal 0.3826834323650898 0.9238795325112868 0.0
outer loop
vertex 7.653668647301797 18.477590650225736 0.0
vertex 5.176380902050419 19.318516525781366 0.9999999999999999
vertex 7.653668647301797 18.477590650225736 0.9999999999999999
endloop
endfacet
facet normal 0.3826834323650898 0.9238795325112868 0.0
outer loop
vertex 7.653668647301797 18.477590650225736 0.9999999999999999
vertex 10.000000000000004 17.32050807568877 0.0
vertex 7.653668647301797 18.477590650225736 0.0
endloop
endfacet
facet normal 0.5000000000000001 0.8660254037844385 0.0
outer loop
vertex 10.000000000000004 17.32050807568877 0.0
vertex 7.653668647301797 18.477590650225736 0.9999999999999999
vertex 10.000000000000004 17.32050807568877 0.9999999999999999
endloop
endfacet
facet normal 0.5000000000000001 0.8660254037844385 0.0
outer loop
vertex 10.000000000000004 17.32050807568877 0.9999999999999999
vertex 12.175228580174412 15.867066805824704 0.0
vertex 10.000000000000004 17.32050807568877 0.0
endloop
endfacet
facet normal 0.6087614290087205 0.7933533402912353 0.0
outer loop
vertex 12.175228580174412 15.867066805824704 0.0
vertex 10.000000000000004 17.32050807568877 0.9999999999999999
vertex 12.175228580174412 15.867066805824704 0.9999999999999999
endloop
endfacet
facet normal -0.6087614290087211 -0.7933533402912348 0.0
outer loop
vertex -12.175228580174418 -15.867066805824699 0.9999999999999999
vertex -14.142135623730958 -14.142135623730944 0.0
vertex -12.175228580174418 -15.867066805824699 0.0
endloop
endfacet
facet normal -0.7071067811865478 -0.7071067811865472 0.0
outer loop
vertex -14.142135623730958 -14.142135623730944 0.0
vertex -12.175228580174418 -15.867066805824699 0.9999999999999999
vertex -14.142135623730958 -14.142135623730944 0.9999999999999999
endloop
endfacet
facet normal -1.0 4.38264626909251e-16 0.0
outer loop
vertex -20.0 2.4492935982947065e-15 0.9999999999999999
vertex -19.82889722747621 -2.6105238444010266 0.0
vertex -19.82889722747621 -2.6105238444010266 0.9999999999999999
endloop
endfacet
facet normal -0.9914448613738105 -0.13052619222005135 0.0
outer loop
vertex -19.82889722747621 -2.6105238444010266 0.0
vertex -20.0 2.4492935982947065e-15 0.9999999999999999
vertex -20.0 2.4492935982947065e-15 0.0
endloop
endfacet
facet normal -0.8660254037844385 0.5000000000000003 0.0
outer loop
vertex -17.32050807568877 10.000000000000007 0.9999999999999999
vertex -18.477590650225736 7.653668647301798 0.0
vertex -18.477590650225736 7.653668647301798 0.9999999999999999
endloop
endfacet
facet normal -0.9238795325112866 0.38268343236509006 0.0
outer loop
vertex -18.477590650225736 7.653668647301798 0.0
vertex -17.32050807568877 10.000000000000007 0.9999999999999999
vertex -17.32050807568877 10.000000000000007 0.0
endloop
endfacet
facet normal -0.9914448613738105 -0.13052619222005135 0.0
outer loop
vertex -19.82889722747621 -2.6105238444010266 0.9999999999999999
vertex -19.31851652578137 -5.176380902050407 0.0
vertex -19.31851652578137 -5.176380902050407 0.9999999999999999
endloop
endfacet
facet normal -0.9659258262890682 -0.2588190451025209 0.0
outer loop
vertex -19.31851652578137 -5.176380902050407 0.0
vertex -19.82889722747621 -2.6105238444010266 0.9999999999999999
vertex -19.82889722747621 -2.6105238444010266 0.0
endloop
endfacet
facet normal -0.7933533402912348 0.6087614290087209 0.0
outer loop
vertex -15.8670668058247 12.175228580174418 0.9999999999999999
vertex -17.32050807568877 10.000000000000007 0.0
vertex -17.32050807568877 10.000000000000007 0.9999999999999999
endloop
endfacet
facet normal -0.8660254037844385 0.5000000000000003 0.0
outer loop
vertex -17.32050807568877 10.000000000000007 0.0
vertex -15.8670668058247 12.175228580174418 0.9999999999999999
vertex -15.8670668058247 12.175228580174418 0.0
endloop
endfacet
facet normal -0.7071067811865471 0.7071067811865479 0.0
outer loop
vertex -14.14213562373095 14.142135623730953 0.9999999999999999
vertex -12.175228580174405 15.867066805824708 0.0
vertex -14.14213562373095 14.142135623730953 0.0
endloop
endfacet
facet normal -0.6087614290087203 0.7933533402912354 0.0
outer loop
vertex -12.175228580174405 15.867066805824708 0.0
vertex -14.14213562373095 14.142135623730953 0.9999999999999999
vertex -12.175228580174405 15.867066805824708 0.9999999999999999
endloop
endfacet
facet normal -0.9238795325112866 0.38268343236509006 0.0
outer loop
vertex -18.477590650225736 7.653668647301798 0.9999999999999999
vertex -19.318516525781366 5.17638090205042 0.0
vertex -19.318516525781366 5.17638090205042 0.9999999999999999
endloop
endfacet
facet normal -0.9659258262890682 0.2588190451025209 0.0
outer loop
vertex -19.318516525781366 5.17638090205042 0.0
vertex -18.477590650225736 7.653668647301798 0.9999999999999999
vertex -18.477590650225736 7.653668647301798 0.0
endloop
endfacet
facet normal -0.6087614290087203 0.7933533402912354 0.0
outer loop
vertex -12.175228580174405 15.867066805824708 0.9999999999999999
vertex -9.999999999999996 17.320508075688775 0.0
vertex -12.175228580174405 15.867066805824708 0.0
endloop
endfacet
facet normal -0.5000000000000001 0.8660254037844385 0.0
outer loop
vertex -9.999999999999996 17.320508075688775 0.0
vertex -12.175228580174405 15.867066805824708 0.9999999999999999
vertex -9.999999999999996 17.320508075688775 0.9999999999999999
endloop
endfacet
facet normal -0.7933533402912354 -0.6087614290087205 0.0
outer loop
vertex -15.867066805824708 -12.175228580174405 0.9999999999999999
vertex -14.142135623730958 -14.142135623730944 0.0
vertex -14.142135623730958 -14.142135623730944 0.9999999999999999
endloop
endfacet
facet normal -0.7071067811865478 -0.7071067811865472 0.0
outer loop
vertex -14.142135623730958 -14.142135623730944 0.0
vertex -15.867066805824708 -12.175228580174405 0.9999999999999999
vertex -15.867066805824708 -12.175228580174405 0.0
endloop
endfacet
facet normal -0.8660254037844388 -0.4999999999999996 0.0
outer loop
vertex -17.320508075688778 -9.999999999999995 0.9999999999999999
vertex -15.867066805824708 -12.175228580174405 0.0
vertex -15.867066805824708 -12.175228580174405 0.9999999999999999
endloop
endfacet
facet normal -0.7933533402912354 -0.6087614290087205 0.0
outer loop
vertex -15.867066805824708 -12.175228580174405 0.0
vertex -17.320508075688778 -9.999999999999995 0.9999999999999999
vertex -17.320508075688778 -9.999999999999995 0.0
endloop
endfacet
facet normal -0.9659258262890682 -0.2588190451025209 0.0
outer loop
vertex -19.31851652578137 -5.176380902050407 0.9999999999999999
vertex -18.47759065022574 -7.653668647301785 0.0
vertex -18.47759065022574 -7.653668647301785 0.9999999999999999
endloop
endfacet
facet normal -0.923879532511287 -0.38268343236508906 0.0
outer loop
vertex -18.47759065022574 -7.653668647301785 0.0
vertex -19.31851652578137 -5.176380902050407 0.9999999999999999
vertex -19.31851652578137 -5.176380902050407 0.0
endloop
endfacet
facet normal -0.7071067811865471 0.7071067811865479 0.0
outer loop
vertex -14.14213562373095 14.142135623730953 0.9999999999999999
vertex -15.8670668058247 12.175228580174418 0.0
vertex -15.8670668058247 12.175228580174418 0.9999999999999999
endloop
endfacet
facet normal -0.7933533402912348 0.6087614290087209 0.0
outer loop
vertex -15.8670668058247 12.175228580174418 0.0
vertex -14.14213562373095 14.142135623730953 0.9999999999999999
vertex -14.14213562373095 14.142135623730953 0.0
endloop
endfacet
facet normal -0.25881904510252085 0.9659258262890682 0.0
outer loop
vertex -5.176380902050412 19.318516525781366 0.9999999999999999
vertex -2.6105238444010275 19.82889722747621 0.0
vertex -5.176380902050412 19.318516525781366 0.0
endloop
endfacet
facet normal -0.1305261922200517 0.9914448613738104 0.0
outer loop
vertex -2.6105238444010275 19.82889722747621 0.0
vertex -5.176380902050412 19.318516525781366 0.9999999999999999
vertex -2.6105238444010275 19.82889722747621 0.9999999999999999
endloop
endfacet
facet normal -0.9659258262890682 0.2588190451025209 0.0
outer loop
vertex -19.318516525781366 5.17638090205042 0.9999999999999999
vertex -19.828897227476208 2.6105238444010395 0.0
vertex -19.828897227476208 2.6105238444010395 0.9999999999999999
endloop
endfacet
facet normal -0.9914448613738105 0.13052619222005177 0.0
outer loop
vertex -19.828897227476208 2.6105238444010395 0.0
vertex -19.318516525781366 5.17638090205042 0.9999999999999999
vertex -19.318516525781366 5.17638090205042 0.0
endloop
endfacet
facet normal -0.9914448613738105 0.13052619222005177 0.0
outer loop
vertex -19.828897227476208 2.6105238444010395 0.9999999999999999
vertex -20.0 2.4492935982947065e-15 0.0
vertex -20.0 2.4492935982947065e-15 0.9999999999999999
endloop
endfacet
facet normal -1.0 4.38264626909251e-16 0.0
outer loop
vertex -20.0 2.4492935982947065e-15 0.0
vertex -19.828897227476208 2.6105238444010395 0.9999999999999999
vertex -19.828897227476208 2.6105238444010395 0.0
endloop
endfacet
facet normal -0.5000000000000001 0.8660254037844385 0.0
outer loop
vertex -9.999999999999996 17.320508075688775 0.9999999999999999
vertex -7.65366864730179 18.47759065022574 0.0
vertex -9.999999999999996 17.320508075688775 0.0
endloop
endfacet
facet normal -0.38268343236508934 0.923879532511287 0.0
outer loop
vertex -7.65366864730179 18.47759065022574 0.0
vertex -9.999999999999996 17.320508075688775 0.9999999999999999
vertex -7.65366864730179 18.47759065022574 0.9999999999999999
endloop
endfacet
facet normal -0.38268343236508934 0.923879532511287 0.0
outer loop
vertex -7.65366864730179 18.47759065022574 0.9999999999999999
vertex -5.176380902050412 19.318516525781366 0.0
vertex -7.65366864730179 18.47759065022574 0.0
endloop
endfacet
facet normal -0.25881904510252085 0.9659258262890682 0.0
outer loop
vertex -5.176380902050412 19.318516525781366 0.0
vertex -7.65366864730179 18.47759065022574 0.9999999999999999
vertex -5.176380902050412 19.318516525781366 0.9999999999999999
endloop
endfacet
facet normal -0.923879532511287 -0.38268343236508906 0.0
outer loop
vertex -18.47759065022574 -7.653668647301785 0.9999999999999999
vertex -17.320508075688778 -9.999999999999995 0.0
vertex -17.320508075688778 -9.999999999999995 0.9999999999999999
endloop
endfacet
facet normal -0.8660254037844388 -0.4999999999999996 0.0
outer loop
vertex -17.320508075688778 -9.999999999999995 0.0
vertex -18.47759065022574 -7.653668647301785 0.9999999999999999
vertex -18.47759065022574 -7.653668647301785 0.0
endloop
endfacet
facet normal -0.1305261922200517 0.9914448613738104 0.0
outer loop
vertex -2.6105238444010275 19.82889722747621 0.9999999999999999
vertex 1.2246467991473533e-15 20.0 0.0
vertex -2.6105238444010275 19.82889722747621 0.0
endloop
endfacet
facet normal 4.736799502958571e-16 1.0 0.0
outer loop
vertex 1.2246467991473533e-15 20.0 0.0
vertex -2.6105238444010275 19.82889722747621 0.9999999999999999
vertex 1.2246467991473533e-15 20.0 0.9999999999999999
endloop
endfacet
facet normal 0.0 0.0 -1.0
outer loop
vertex -19.828897227476208 2.6105238444010395 0.0
vertex -19.82889722747621 -2.6105238444010266 0.0
vertex -20.0 2.4492935982947065e-15 0.0
endloop
endfacet
facet normal 0.0 0.0 -1.0
outer loop
vertex -19.82889722747621 -2.6105238444010266 0.0
vertex -19.828897227476208 2.6105238444010395 0.0
vertex -19.31851652578137 -5.176380902050407 0.0
endloop
endfacet
facet normal 0.0 0.0 -1.0
outer loop
vertex -19.31851652578137 -5.176380902050407 0.0
vertex -19.828897227476208 2.6105238444010395 0.0
vertex -19.318516525781366 5.17638090205042 0.0
endloop
endfacet
facet normal 0.0 0.0 -1.0
outer loop
vertex -19.31851652578137 -5.176380902050407 0.0
vertex -19.318516525781366 5.17638090205042 0.0
vertex -18.47759065022574 -7.653668647301785 0.0
endloop
endfacet
facet normal 0.0 0.0 -1.0
outer loop
vertex -18.47759065022574 -7.653668647301785 0.0
vertex -19.318516525781366 5.17638090205042 0.0
vertex -18.477590650225736 7.653668647301798 0.0
endloop
endfacet
facet normal 0.0 0.0 -1.0
outer loop
vertex -18.47759065022574 -7.653668647301785 0.0
vertex -18.477590650225736 7.653668647301798 0.0
vertex -17.320508075688778 -9.999999999999995 0.0
endloop
endfacet
facet normal 0.0 0.0 -1.0
outer loop
vertex -17.320508075688778 -9.999999999999995 0.0
vertex -18.477590650225736 7.653668647301798 0.0
vertex -17.32050807568877 10.000000000000007 0.0
endloop
endfacet
facet normal 0.0 0.0 -1.0
outer loop
vertex -17.320508075688778 -9.999999999999995 0.0
vertex -17.32050807568877 10.000000000000007 0.0
vertex -15.867066805824708 -12.175228580174405 0.0
endloop
endfacet
facet normal 0.0 0.0 -1.0
outer loop
vertex -15.867066805824708 -12.175228580174405 0.0
vertex -17.32050807568877 10.000000000000007 0.0
vertex -15.8670668058247 12.175228580174418 0.0
endloop
endfacet
facet normal 0.0 0.0 -1.0
outer loop
vertex -15.867066805824708 -12.175228580174405 0.0
vertex -15.8670668058247 12.175228580174418 0.0
vertex -14.142135623730958 -14.142135623730944 0.0
endloop
endfacet
facet normal 0.0 0.0 -1.0
outer loop
vertex -14.142135623730958 -14.142135623730944 0.0
vertex -15.8670668058247 12.175228580174418 0.0
vertex -14.14213562373095 14.142135623730953 0.0
endloop
endfacet
facet normal 0.0 0.0 -1.0
outer loop
vertex -14.142135623730958 -14.142135623730944 0.0
vertex -14.14213562373095 14.142135623730953 0.0
vertex -12.175228580174418 -15.867066805824699 0.0
endloop
endfacet
facet normal 0.0 0.0 -1.0
outer loop
vertex -12.175228580174418 -15.867066805824699 0.0
vertex -14.14213562373095 14.142135623730953 0.0
vertex -12.175228580174405 15.867066805824708 0.0
endloop
endfacet
facet normal 0.0 0.0 -1.0
outer loop
vertex -12.175228580174418 -15.867066805824699 0.0
vertex -12.175228580174405 15.867066805824708 0.0
vertex -10.000000000000009 -17.32050807568877 0.0
endloop
endfacet
facet normal 0.0 0.0 -1.0
outer loop
vertex -10.000000000000009 -17.32050807568877 0.0
vertex -12.175228580174405 15.867066805824708 0.0
vertex -9.999999999999996 17.320508075688775 0.0
endloop
endfacet
facet normal 0.0 0.0 -1.0
outer loop
vertex -10.000000000000009 -17.32050807568877 0.0
vertex -9.999999999999996 17.320508075688775 0.0
vertex -7.6536686473018065 -18.47759065022573 0.0
endloop
endfacet
facet normal 0.0 0.0 -1.0
outer loop
vertex -7.6536686473018065 -18.47759065022573 0.0
vertex -9.999999999999996 17.320508075688775 0.0
vertex -7.65366864730179 18.47759065022574 0.0
endloop
endfacet
facet normal 0.0 0.0 -1.0
outer loop
vertex -7.6536686473018065 -18.47759065022573 0.0
vertex -7.65366864730179 18.47759065022574 0.0
vertex -5.176380902050431 -19.318516525781362 0.0
endloop
endfacet
facet normal 0.0 0.0 -1.0
outer loop
vertex -5.176380902050431 -19.318516525781362 0.0
vertex -7.65366864730179 18.47759065022574 0.0
vertex -5.176380902050412 19.318516525781366 0.0
endloop
endfacet
facet normal 0.0 0.0 -1.0
outer loop
vertex -5.176380902050431 -19.318516525781362 0.0
vertex -5.176380902050412 19.318516525781366 0.0
vertex -2.6105238444010497 -19.828897227476205 0.0
endloop
endfacet
facet normal 0.0 0.0 -1.0
outer loop
vertex -2.6105238444010497 -19.828897227476205 0.0
vertex -5.176380902050412 19.318516525781366 0.0
vertex -2.6105238444010275 19.82889722747621 0.0
endloop
endfacet
facet normal 0.0 0.0 -1.0
outer loop
vertex -2.6105238444010497 -19.828897227476205 0.0
vertex -2.6105238444010275 19.82889722747621 0.0
vertex -3.673940397442059e-15 -20.0 0.0
endloop
endfacet
facet normal 0.0 0.0 -1.0
outer loop
vertex -3.673940397442059e-15 -20.0 0.0
vertex -2.6105238444010275 19.82889722747621 0.0
vertex 1.2246467991473533e-15 20.0 0.0
endloop
endfacet
facet normal 0.0 0.0 -1.0
outer loop
vertex -3.673940397442059e-15 -20.0 0.0
vertex 1.2246467991473533e-15 20.0 0.0
vertex 2.6105238444010253 -19.82889722747621 0.0
endloop
endfacet
facet normal 0.0 0.0 -1.0
outer loop
vertex 2.6105238444010253 -19.82889722747621 0.0
vertex 1.2246467991473533e-15 20.0 0.0
vertex 2.6105238444010346 19.828897227476208 0.0
endloop
endfacet
facet normal 0.0 0.0 -1.0
outer loop
vertex 2.6105238444010253 -19.82889722747621 0.0
vertex 2.6105238444010346 19.828897227476208 0.0
vertex 5.176380902050406 -19.31851652578137 0.0
endloop
endfacet
facet normal 0.0 0.0 -1.0
outer loop
vertex 5.176380902050406 -19.31851652578137 0.0
vertex 2.6105238444010346 19.828897227476208 0.0
vertex 5.176380902050419 19.318516525781366 0.0
endloop
endfacet
facet normal 0.0 0.0 -1.0
outer loop
vertex 5.176380902050406 -19.31851652578137 0.0
vertex 5.176380902050419 19.318516525781366 0.0
vertex 7.653668647301783 -18.47759065022574 0.0
endloop
endfacet
facet normal 0.0 0.0 -1.0
outer loop
vertex 7.653668647301783 -18.47759065022574 0.0
vertex 5.176380902050419 19.318516525781366 0.0
vertex 7.653668647301797 18.477590650225736 0.0
endloop
endfacet
facet normal 0.0 0.0 -1.0
outer loop
vertex 7.653668647301783 -18.47759065022574 0.0
vertex 7.653668647301797 18.477590650225736 0.0
vertex 9.999999999999988 -17.32050807568878 0.0
endloop
endfacet
facet normal 0.0 0.0 -1.0
outer loop
vertex 9.999999999999988 -17.32050807568878 0.0
vertex 7.653668647301797 18.477590650225736 0.0
vertex 10.000000000000004 17.32050807568877 0.0
endloop
endfacet
facet normal 0.0 0.0 -1.0
outer loop
vertex 9.999999999999988 -17.32050807568878 0.0
vertex 10.000000000000004 17.32050807568877 0.0
vertex 12.175228580174398 -15.867066805824715 0.0
endloop
endfacet
facet normal 0.0 0.0 -1.0
outer loop
vertex 12.175228580174398 -15.867066805824715 0.0
vertex 10.000000000000004 17.32050807568877 0.0
vertex 12.175228580174412 15.867066805824704 0.0
endloop
endfacet
facet normal 0.0 0.0 -1.0
outer loop
vertex 12.175228580174398 -15.867066805824715 0.0
vertex 12.175228580174412 15.867066805824704 0.0
vertex 14.142135623730946 -14.142135623730955 0.0
endloop
endfacet
facet normal 0.0 0.0 -1.0
outer loop
vertex 14.142135623730946 -14.142135623730955 0.0
vertex 12.175228580174412 15.867066805824704 0.0
vertex 14.142135623730953 14.142135623730953 0.0
endloop
endfacet
facet normal 0.0 0.0 -1.0
outer loop
vertex 14.142135623730946 -14.142135623730955 0.0
vertex 14.142135623730953 14.142135623730953 0.0
vertex 15.867066805824699 -12.17522858017442 0.0
endloop
endfacet
facet normal 0.0 0.0 -1.0
outer loop
vertex 15.867066805824699 -12.17522858017442 0.0
vertex 14.142135623730953 14.142135623730953 0.0
vertex 15.867066805824704 12.175228580174412 0.0
endloop
endfacet
facet normal 0.0 0.0 -1.0
outer loop
vertex 15.867066805824699 -12.17522858017442 0.0
vertex 15.867066805824704 12.175228580174412 0.0
vertex 17.320508075688767 -10.000000000000009 0.0
endloop
endfacet
facet normal 0.0 0.0 -1.0
outer loop
vertex 17.320508075688767 -10.000000000000009 0.0
vertex 15.867066805824704 12.175228580174412 0.0
vertex 17.320508075688775 9.999999999999998 0.0
endloop
endfacet
facet normal 0.0 0.0 -1.0
outer loop
vertex 17.320508075688767 -10.000000000000009 0.0
vertex 17.320508075688775 9.999999999999998 0.0
vertex 18.47759065022573 -7.653668647301807 0.0
endloop
endfacet
facet normal 0.0 0.0 -1.0
outer loop
vertex 18.47759065022573 -7.653668647301807 0.0
vertex 17.320508075688775 9.999999999999998 0.0
vertex 18.477590650225736 7.653668647301795 0.0
endloop
endfacet
facet normal 0.0 0.0 -1.0
outer loop
vertex 18.47759065022573 -7.653668647301807 0.0
vertex 18.477590650225736 7.653668647301795 0.0
vertex 19.318516525781362 -5.176380902050432 0.0
endloop
endfacet
facet normal 0.0 0.0 -1.0
outer loop
vertex 19.318516525781362 -5.176380902050432 0.0
vertex 18.477590650225736 7.653668647301795 0.0
vertex 19.318516525781366 5.176380902050415 0.0
endloop
endfacet
facet normal 0.0 0.0 -1.0
outer loop
vertex 19.318516525781362 -5.176380902050432 0.0
vertex 19.318516525781366 5.176380902050415 0.0
vertex 19.828897227476205 -2.6105238444010515 0.0
endloop
endfacet
facet normal 0.0 0.0 -1.0
outer loop
vertex 19.828897227476205 -2.6105238444010515 0.0
vertex 19.318516525781366 5.176380902050415 0.0
vertex 19.828897227476208 2.6105238444010315 0.0
endloop
endfacet
facet normal 0.0 0.0 -1.0
outer loop
vertex 19.828897227476205 -2.6105238444010515 0.0
vertex 19.828897227476208 2.6105238444010315 0.0
vertex 20.0 0.0 0.0
endloop
endfacet
endsolid model
