solid model
facet normal 1.5854564106874361e-18 2.139263102281047e-16 1.0
outer loop
vertex 356.46469357088256 177.96988688140453 1.9999999999999998
vertex 339.3564226440635 154.141034483688 1.9999999999999998
vertex 353.20710501953965 160.95001612216257 1.9999999999999998
endloop
endfacet
facet normal 1.5854564106874361e-18 2.139263102281047e-16 1.0
outer loop
vertex 376.73693908228216 147.10658990672312 2.000000000000011
vertex 339.00483813934875 150.21082212216257 1.9999999999999998
vertex 335.94779308228215 147.10658990672312 2.000000000000011
endloop
endfacet
facet normal 1.5854564106874361e-18 2.139263102281047e-16 1.0
outer loop
vertex 339.00483813934875 150.21082212216257 1.9999999999999998
vertex 376.73693908228216 147.10658990672312 2.000000000000011
vertex 353.20710501953965 150.21082212216257 1.9999999999999998
endloop
endfacet
facet normal 1.5854564106874361e-18 2.139263102281047e-16 1.0
outer loop
vertex 353.20710501953965 150.21082212216257 1.9999999999999998
vertex 376.73693908228216 147.10658990672312 2.000000000000011
vertex 359.92946265260565 150.21082212216257 1.9999999999999998
endloop
endfacet
facet normal 1.5854564106874361e-18 2.139263102281047e-16 1.0
outer loop
vertex 353.20710501953965 150.21082212216257 1.9999999999999998
vertex 359.92946265260565 150.21082212216257 1.9999999999999998
vertex 353.20710501953965 160.95001612216257 1.9999999999999998
endloop
endfacet
facet normal 1.5854564106874361e-18 2.139263102281047e-16 1.0
outer loop
vertex 353.20710501953965 160.95001612216257 1.9999999999999998
vertex 359.92946265260565 150.21082212216257 1.9999999999999998
vertex 356.46469357088256 177.96988688140453 1.9999999999999998
endloop
endfacet
facet normal 1.5854564106874361e-18 2.139263102281047e-16 1.0
outer loop
vertex 359.92946265260565 150.21082212216257 1.9999999999999998
vertex 376.73693908228216 147.10658990672312 2.000000000000011
vertex 374.0601011393488 150.21082212216257 1.9999999999999998
endloop
endfacet
facet normal 1.5854564106874361e-18 2.139263102281047e-16 1.0
outer loop
vertex 356.46469357088256 177.96988688140453 1.9999999999999998
vertex 359.92946265260565 161.04116168217516 1.9999999999999998
vertex 373.87686754583876 154.23311837802075 1.9999999999999998
endloop
endfacet
facet normal 1.5854564106874361e-18 2.139263102281047e-16 1.0
outer loop
vertex 359.92946265260565 161.04116168217516 1.9999999999999998
vertex 356.46469357088256 177.96988688140453 1.9999999999999998
vertex 359.92946265260565 150.21082212216257 1.9999999999999998
endloop
endfacet
facet normal -0.4386542462082331 -0.8986559142872688 1.9294161109486547e-16
outer loop
vertex 373.87686754583876 154.23311837802075 6.846267800604426e-46
vertex 359.92946265260565 161.04116168217516 1.9999999999999998
vertex 359.92946265260565 161.04116168217516 1.5341952672010784e-54
endloop
endfacet
facet normal -0.4386542462082331 -0.8986559142872688 1.9294161109486547e-16
outer loop
vertex 359.92946265260565 161.04116168217516 1.9999999999999998
vertex 373.87686754583876 154.23311837802075 6.846267800604426e-46
vertex 373.87686754583876 154.23311837802075 1.9999999999999998
endloop
endfacet
facet normal 1.0 -4.305823987766738e-41 -1.5854564106874361e-18
outer loop
vertex 359.92946265260565 161.04116168217516 1.5341952672010784e-54
vertex 359.92946265260565 150.21082212216257 1.9999999999999998
vertex 359.92946265260565 150.21082212216257 2.941331944467743e-22
endloop
endfacet
facet normal 1.0 -4.305823987766738e-41 -1.5854564106874361e-18
outer loop
vertex 359.92946265260565 150.21082212216257 1.9999999999999998
vertex 359.92946265260565 161.04116168217516 1.5341952672010784e-54
vertex 359.92946265260565 161.04116168217516 1.9999999999999998
endloop
endfacet
facet normal -1.0 0.0 1.5854564106874361e-18
outer loop
vertex 353.20710501953965 160.95001612216257 1.9999999999999998
vertex 353.20710501953965 150.21082212216257 5.882663888935486e-22
vertex 353.20710501953965 150.21082212216257 1.9999999999999998
endloop
endfacet
facet normal -1.0 0.0 1.5854564106874361e-18
outer loop
vertex 353.20710501953965 150.21082212216257 5.882663888935486e-22
vertex 353.20710501953965 160.95001612216257 1.9999999999999998
vertex 353.20710501953965 160.95001612216257 5.882663888935486e-22
endloop
endfacet
facet normal 0.44117203173483316 -0.8974225528784974 1.9128283642685315e-16
outer loop
vertex 353.20710501953965 160.95001612216257 5.882663888935486e-22
vertex 339.3564226440635 154.141034483688 1.9999999999999998
vertex 339.3564226440635 154.141034483688 1.1632893807041474e-29
endloop
endfacet
facet normal 0.44117203173483316 -0.8974225528784974 1.9128283642685315e-16
outer loop
vertex 339.3564226440635 154.141034483688 1.9999999999999998
vertex 353.20710501953965 160.95001612216257 5.882663888935486e-22
vertex 353.20710501953965 160.95001612216257 1.9999999999999998
endloop
endfacet
facet normal -0.8123176466224381 0.5832152612764723 -1.2347719469324367e-16
outer loop
vertex 356.46469357088256 177.96988688140453 1.9999999999999998
vertex 339.3564226440635 154.141034483688 1.1632893807041474e-29
vertex 339.3564226440635 154.141034483688 1.9999999999999998
endloop
endfacet
facet normal -0.8123176466224381 0.5832152612764723 -1.2347719469324367e-16
outer loop
vertex 339.3564226440635 154.141034483688 1.1632893807041474e-29
vertex 356.46469357088256 177.96988688140453 1.9999999999999998
vertex 356.46469357088256 177.96988688140453 4.773592910549989e-38
endloop
endfacet
facet normal 0.8063205831525422 0.5914787546349779 -1.2781125369500372e-16
outer loop
vertex 356.46469357088256 177.96988688140453 4.773592910549989e-38
vertex 373.87686754583876 154.23311837802075 1.9999999999999998
vertex 373.87686754583876 154.23311837802075 6.846267800604426e-46
endloop
endfacet
facet normal 0.8063205831525422 0.5914787546349779 -1.2781125369500372e-16
outer loop
vertex 373.87686754583876 154.23311837802075 1.9999999999999998
vertex 356.46469357088256 177.96988688140453 4.773592910549989e-38
vertex 356.46469357088256 177.96988688140453 1.9999999999999998
endloop
endfacet
facet normal 4.4529360129505945e-39 1.0 -2.1392631022810468e-16
outer loop
vertex 359.92946265260565 150.21082212216257 1.9999999999999998
vertex 374.0601011393488 150.21082212216257 5.882663888935486e-22
vertex 359.92946265260565 150.21082212216257 2.941331944467743e-22
endloop
endfacet
facet normal 4.4529360129505945e-39 1.0 -2.1392631022810468e-16
outer loop
vertex 374.0601011393488 150.21082212216257 5.882663888935486e-22
vertex 359.92946265260565 150.21082212216257 1.9999999999999998
vertex 374.0601011393488 150.21082212216257 1.9999999999999998
endloop
endfacet
facet normal 0.0 1.0 -2.1392631022810473e-16
outer loop
vertex 339.00483813934875 150.21082212216257 1.9999999999999998
vertex 353.20710501953965 150.21082212216257 5.882663888935486e-22
vertex 339.00483813934875 150.21082212216257 5.882663888935486e-22
endloop
endfacet
facet normal 0.0 1.0 -2.1392631022810473e-16
outer loop
vertex 353.20710501953965 150.21082212216257 5.882663888935486e-22
vertex 339.00483813934875 150.21082212216257 1.9999999999999998
vertex 353.20710501953965 150.21082212216257 1.9999999999999998
endloop
endfacet
facet normal -1.5854564106874361e-18 -2.139263102281047e-16 -1.0
outer loop
vertex 356.46469357088256 177.96988688140453 4.773592910549989e-38
vertex 353.20710501953965 160.95001612216257 5.882663888935486e-22
vertex 339.3564226440635 154.141034483688 1.1632893807041474e-29
endloop
endfacet
facet normal -1.5854564106874361e-18 -2.139263102281047e-16 -1.0
outer loop
vertex 353.20710501953965 160.95001612216257 5.882663888935486e-22
vertex 356.46469357088256 177.96988688140453 4.773592910549989e-38
vertex 353.20710501953965 150.21082212216257 5.882663888935486e-22
endloop
endfacet
facet normal -1.5854564106874361e-18 -2.139263102281047e-16 -1.0
outer loop
vertex 373.87686754583876 154.23311837802075 6.846267800604426e-46
vertex 359.92946265260565 161.04116168217516 1.5341952672010784e-54
vertex 356.46469357088256 177.96988688140453 4.773592910549989e-38
endloop
endfacet
facet normal -1.5854564106874361e-18 -2.139263102281047e-16 -1.0
outer loop
vertex 339.00483813934875 150.21082212216257 5.882663888935486e-22
vertex 376.73693908228216 147.10658990672312 1.127986593019159e-14
vertex 335.94779308228215 147.10658990672312 1.127986593019159e-14
endloop
endfacet
facet normal -1.5854564106874361e-18 -2.139263102281047e-16 -1.0
outer loop
vertex 376.73693908228216 147.10658990672312 1.127986593019159e-14
vertex 339.00483813934875 150.21082212216257 5.882663888935486e-22
vertex 353.20710501953965 150.21082212216257 5.882663888935486e-22
endloop
endfacet
facet normal -1.5854564106874361e-18 -2.139263102281047e-16 -1.0
outer loop
vertex 376.73693908228216 147.10658990672312 1.127986593019159e-14
vertex 353.20710501953965 150.21082212216257 5.882663888935486e-22
vertex 359.92946265260565 150.21082212216257 2.941331944467743e-22
endloop
endfacet
facet normal -1.5854564106874361e-18 -2.139263102281047e-16 -1.0
outer loop
vertex 359.92946265260565 150.21082212216257 2.941331944467743e-22
vertex 353.20710501953965 150.21082212216257 5.882663888935486e-22
vertex 356.46469357088256 177.96988688140453 4.773592910549989e-38
endloop
endfacet
facet normal -1.5854564106874361e-18 -2.139263102281047e-16 -1.0
outer loop
vertex 359.92946265260565 150.21082212216257 2.941331944467743e-22
vertex 356.46469357088256 177.96988688140453 4.773592910549989e-38
vertex 359.92946265260565 161.04116168217516 1.5341952672010784e-54
endloop
endfacet
facet normal -1.5854564106874361e-18 -2.139263102281047e-16 -1.0
outer loop
vertex 376.73693908228216 147.10658990672312 1.127986593019159e-14
vertex 359.92946265260565 150.21082212216257 2.941331944467743e-22
vertex 374.0601011393488 150.21082212216257 5.882663888935486e-22
endloop
endfacet
facet normal 0.0 -1.0 2.1392631022810473e-16
outer loop
vertex 376.73693908228216 147.10658990672312 2.000000000000011
vertex 335.94779308228215 147.10658990672312 1.127986593019159e-14
vertex 376.73693908228216 147.10658990672312 1.127986593019159e-14
endloop
endfacet
facet normal 0.0 -1.0 2.1392631022810473e-16
outer loop
vertex 335.94779308228215 147.10658990672312 1.127986593019159e-14
vertex 376.73693908228216 147.10658990672312 2.000000000000011
vertex 335.94779308228215 147.10658990672312 2.000000000000011
endloop
endfacet
facet normal 0.7573163670659011 0.6530481759978397 -1.4090487878149492e-16
outer loop
vertex 374.0601011393488 150.21082212216257 5.882663888935486e-22
vertex 376.73693908228216 147.10658990672312 2.000000000000011
vertex 376.73693908228216 147.10658990672312 1.127986593019159e-14
endloop
endfacet
facet normal 0.7573163670659011 0.6530481759978397 -1.4090487878149492e-16
outer loop
vertex 376.73693908228216 147.10658990672312 2.000000000000011
vertex 374.0601011393488 150.21082212216257 5.882663888935486e-22
vertex 374.0601011393488 150.21082212216257 1.9999999999999998
endloop
endfacet
facet normal -0.712501379485668 0.7016707092582817 -1.4897618594703225e-16
outer loop
vertex 339.00483813934875 150.21082212216257 1.9999999999999998
vertex 335.94779308228215 147.10658990672312 1.127986593019159e-14
vertex 335.94779308228215 147.10658990672312 2.000000000000011
endloop
endfacet
facet normal -0.712501379485668 0.7016707092582817 -1.4897618594703225e-16
outer loop
vertex 335.94779308228215 147.10658990672312 1.127986593019159e-14
vertex 339.00483813934875 150.21082212216257 1.9999999999999998
vertex 339.00483813934875 150.21082212216257 5.882663888935486e-22
endloop
endfacet
endsolid model
