solid model
facet normal 1.0 0.0 0.0
outer loop
vertex 341.45034499999997 139.950974 0.0
vertex 341.45034499999997 113.81210300000001 1.9999999999999998
vertex 341.45034499999997 113.81210300000001 0.0
endloop
endfacet
facet normal 1.0 0.0 0.0
outer loop
vertex 341.45034499999997 113.81210300000001 1.9999999999999998
vertex 341.45034499999997 139.950974 0.0
vertex 341.45034499999997 139.950974 1.9999999999999998
endloop
endfacet
facet normal -0.0 1.0 0.0
outer loop
vertex 335.04343299999994 139.950974 1.9999999999999998
vertex 341.45034499999997 139.950974 0.0
vertex 335.04343299999994 139.950974 0.0
endloop
endfacet
facet normal -0.0 1.0 0.0
outer loop
vertex 341.45034499999997 139.950974 0.0
vertex 335.04343299999994 139.950974 1.9999999999999998
vertex 341.45034499999997 139.950974 1.9999999999999998
endloop
endfacet
facet normal -1.0 0.0 0.0
outer loop
vertex 347.789274 139.950974 1.9999999999999998
vertex 347.789274 113.81210300000001 0.0
vertex 347.789274 113.81210300000001 1.9999999999999998
endloop
endfacet
facet normal -1.0 0.0 0.0
outer loop
vertex 347.789274 113.81210300000001 0.0
vertex 347.789274 139.950974 1.9999999999999998
vertex 347.789274 139.950974 0.0
endloop
endfacet
facet normal -0.0 1.0 0.0
outer loop
vertex 341.45034499999997 113.81210300000001 1.9999999999999998
vertex 347.789274 113.81210300000001 0.0
vertex 341.45034499999997 113.81210300000001 0.0
endloop
endfacet
facet normal -0.0 1.0 0.0
outer loop
vertex 347.789274 113.81210300000001 0.0
vertex 341.45034499999997 113.81210300000001 1.9999999999999998
vertex 347.789274 113.81210300000001 1.9999999999999998
endloop
endfacet
facet normal 0.0 0.0 -1.0
outer loop
vertex 379.38694399999997 139.950974 0.0
vertex 373.767715 113.81210300000001 0.0
vertex 373.767715 139.950974 0.0
endloop
endfacet
facet normal 0.0 0.0 -1.0
outer loop
vertex 347.789274 139.950974 0.0
vertex 354.56609 134.692002 0.0
vertex 347.789274 113.81210300000001 0.0
endloop
endfacet
facet normal 0.0 0.0 -1.0
outer loop
vertex 354.56609 134.692002 0.0
vertex 347.789274 139.950974 0.0
vertex 367.25532899999996 139.950974 0.0
endloop
endfacet
facet normal 0.0 0.0 -1.0
outer loop
vertex 354.56609 134.692002 0.0
vertex 367.25532899999996 139.950974 0.0
vertex 361.26689799999997 134.692002 0.0
endloop
endfacet
facet normal 0.0 0.0 -1.0
outer loop
vertex 361.26689799999997 134.692002 0.0
vertex 367.25532899999996 139.950974 0.0
vertex 361.26689799999997 108.666246 0.0
endloop
endfacet
facet normal 0.0 0.0 -1.0
outer loop
vertex 361.26689799999997 108.666246 0.0
vertex 367.25532899999996 139.950974 0.0
vertex 367.25532899999996 113.81210300000001 0.0
endloop
endfacet
facet normal 0.0 0.0 -1.0
outer loop
vertex 361.26689799999997 108.666246 0.0
vertex 367.25532899999996 113.81210300000001 0.0
vertex 379.38694399999997 108.666246 0.0
endloop
endfacet
facet normal 0.0 0.0 -1.0
outer loop
vertex 379.38694399999997 108.666246 0.0
vertex 367.25532899999996 113.81210300000001 0.0
vertex 373.767715 113.81210300000001 0.0
endloop
endfacet
facet normal 0.0 0.0 -1.0
outer loop
vertex 379.38694399999997 108.666246 0.0
vertex 373.767715 113.81210300000001 0.0
vertex 379.38694399999997 139.950974 0.0
endloop
endfacet
facet normal 0.0 0.0 -1.0
outer loop
vertex 341.45034499999997 139.950974 0.0
vertex 335.04343299999994 108.666246 0.0
vertex 335.04343299999994 139.950974 0.0
endloop
endfacet
facet normal 0.0 0.0 -1.0
outer loop
vertex 335.04343299999994 108.666246 0.0
vertex 341.45034499999997 139.950974 0.0
vertex 341.45034499999997 113.81210300000001 0.0
endloop
endfacet
facet normal 0.0 0.0 -1.0
outer loop
vertex 335.04343299999994 108.666246 0.0
vertex 341.45034499999997 113.81210300000001 0.0
vertex 354.56609 108.666246 0.0
endloop
endfacet
facet normal 0.0 0.0 -1.0
outer loop
vertex 354.56609 108.666246 0.0
vertex 341.45034499999997 113.81210300000001 0.0
vertex 347.789274 113.81210300000001 0.0
endloop
endfacet
facet normal 0.0 0.0 -1.0
outer loop
vertex 354.56609 108.666246 0.0
vertex 347.789274 113.81210300000001 0.0
vertex 354.56609 134.692002 0.0
endloop
endfacet
facet normal -0.9999999999999999 0.0 0.0
outer loop
vertex 335.04343299999994 139.950974 1.9999999999999998
vertex 335.04343299999994 108.666246 0.0
vertex 335.04343299999994 108.666246 1.9999999999999998
endloop
endfacet
facet normal -0.9999999999999999 0.0 0.0
outer loop
vertex 335.04343299999994 108.666246 0.0
vertex 335.04343299999994 139.950974 1.9999999999999998
vertex 335.04343299999994 139.950974 0.0
endloop
endfacet
facet normal 1.0 0.0 0.0
outer loop
vertex 367.25532899999996 139.950974 0.0
vertex 367.25532899999996 113.81210300000001 1.9999999999999998
vertex 367.25532899999996 113.81210300000001 0.0
endloop
endfacet
facet normal 1.0 0.0 0.0
outer loop
vertex 367.25532899999996 113.81210300000001 1.9999999999999998
vertex 367.25532899999996 139.950974 0.0
vertex 367.25532899999996 139.950974 1.9999999999999998
endloop
endfacet
facet normal -1.0 0.0 0.0
outer loop
vertex 373.767715 139.950974 1.9999999999999998
vertex 373.767715 113.81210300000001 0.0
vertex 373.767715 113.81210300000001 1.9999999999999998
endloop
endfacet
facet normal -1.0 0.0 0.0
outer loop
vertex 373.767715 113.81210300000001 0.0
vertex 373.767715 139.950974 1.9999999999999998
vertex 373.767715 139.950974 0.0
endloop
endfacet
facet normal -0.0 1.0 0.0
outer loop
vertex 347.789274 139.950974 1.9999999999999998
vertex 367.25532899999996 139.950974 0.0
vertex 347.789274 139.950974 0.0
endloop
endfacet
facet normal -0.0 1.0 0.0
outer loop
vertex 367.25532899999996 139.950974 0.0
vertex 347.789274 139.950974 1.9999999999999998
vertex 367.25532899999996 139.950974 1.9999999999999998
endloop
endfacet
facet normal -0.0 1.0 0.0
outer loop
vertex 367.25532899999996 113.81210300000001 1.9999999999999998
vertex 373.767715 113.81210300000001 0.0
vertex 367.25532899999996 113.81210300000001 0.0
endloop
endfacet
facet normal -0.0 1.0 0.0
outer loop
vertex 373.767715 113.81210300000001 0.0
vertex 367.25532899999996 113.81210300000001 1.9999999999999998
vertex 373.767715 113.81210300000001 1.9999999999999998
endloop
endfacet
facet normal -0.0 -1.0 -0.0
outer loop
vertex 379.38694399999997 108.666246 1.9999999999999998
vertex 361.26689799999997 108.666246 0.0
vertex 379.38694399999997 108.666246 0.0
endloop
endfacet
facet normal -0.0 -1.0 -0.0
outer loop
vertex 361.26689799999997 108.666246 0.0
vertex 379.38694399999997 108.666246 1.9999999999999998
vertex 361.26689799999997 108.666246 1.9999999999999998
endloop
endfacet
facet normal 0.9999999999999999 0.0 0.0
outer loop
vertex 379.38694399999997 139.950974 0.0
vertex 379.38694399999997 108.666246 1.9999999999999998
vertex 379.38694399999997 108.666246 0.0
endloop
endfacet
facet normal 0.9999999999999999 0.0 0.0
outer loop
vertex 379.38694399999997 108.666246 1.9999999999999998
vertex 379.38694399999997 139.950974 0.0
vertex 379.38694399999997 139.950974 1.9999999999999998
endloop
endfacet
facet normal -1.0 0.0 0.0
outer loop
vertex 361.26689799999997 134.692002 1.9999999999999998
vertex 361.26689799999997 108.666246 0.0
vertex 361.26689799999997 108.666246 1.9999999999999998
endloop
endfacet
facet normal -1.0 0.0 0.0
outer loop
vertex 361.26689799999997 108.666246 0.0
vertex 361.26689799999997 134.692002 1.9999999999999998
vertex 361.26689799999997 134.692002 0.0
endloop
endfacet
facet normal -0.0 -1.0 -0.0
outer loop
vertex 361.26689799999997 134.692002 1.9999999999999998
vertex 354.56609 134.692002 0.0
vertex 361.26689799999997 134.692002 0.0
endloop
endfacet
facet normal -0.0 -1.0 -0.0
outer loop
vertex 354.56609 134.692002 0.0
vertex 361.26689799999997 134.692002 1.9999999999999998
vertex 354.56609 134.692002 1.9999999999999998
endloop
endfacet
facet normal -0.0 0.9999999999999999 0.0
outer loop
vertex 373.767715 139.950974 1.9999999999999998
vertex 379.38694399999997 139.950974 0.0
vertex 373.767715 139.950974 0.0
endloop
endfacet
facet normal -0.0 0.9999999999999999 0.0
outer loop
vertex 379.38694399999997 139.950974 0.0
vertex 373.767715 139.950974 1.9999999999999998
vertex 379.38694399999997 139.950974 1.9999999999999998
endloop
endfacet
facet normal 1.0 0.0 0.0
outer loop
vertex 354.56609 134.692002 0.0
vertex 354.56609 108.666246 1.9999999999999998
vertex 354.56609 108.666246 0.0
endloop
endfacet
facet normal 1.0 0.0 0.0
outer loop
vertex 354.56609 108.666246 1.9999999999999998
vertex 354.56609 134.692002 0.0
vertex 354.56609 134.692002 1.9999999999999998
endloop
endfacet
facet normal -0.0 -1.0 -0.0
outer loop
vertex 354.56609 108.666246 1.9999999999999998
vertex 335.04343299999994 108.666246 0.0
vertex 354.56609 108.666246 0.0
endloop
endfacet
facet normal -0.0 -1.0 -0.0
outer loop
vertex 335.04343299999994 108.666246 0.0
vertex 354.56609 108.666246 1.9999999999999998
vertex 335.04343299999994 108.666246 1.9999999999999998
endloop
endfacet
facet normal -0.0 -0.0 1.0
outer loop
vertex 361.26689799999997 108.666246 1.9999999999999998
vertex 367.25532899999996 113.81210300000001 1.9999999999999998
vertex 361.26689799999997 134.692002 1.9999999999999998
endloop
endfacet
facet normal -0.0 -0.0 1.0
outer loop
vertex 367.25532899999996 113.81210300000001 1.9999999999999998
vertex 361.26689799999997 108.666246 1.9999999999999998
vertex 379.38694399999997 108.666246 1.9999999999999998
endloop
endfacet
facet normal -0.0 -0.0 1.0
outer loop
vertex 367.25532899999996 113.81210300000001 1.9999999999999998
vertex 379.38694399999997 108.666246 1.9999999999999998
vertex 373.767715 113.81210300000001 1.9999999999999998
endloop
endfacet
facet normal -0.0 -0.0 1.0
outer loop
vertex 373.767715 113.81210300000001 1.9999999999999998
vertex 379.38694399999997 108.666246 1.9999999999999998
vertex 373.767715 139.950974 1.9999999999999998
endloop
endfacet
facet normal -0.0 -0.0 1.0
outer loop
vertex 373.767715 139.950974 1.9999999999999998
vertex 379.38694399999997 108.666246 1.9999999999999998
vertex 379.38694399999997 139.950974 1.9999999999999998
endloop
endfacet
facet normal -0.0 -0.0 1.0
outer loop
vertex 335.04343299999994 108.666246 1.9999999999999998
vertex 341.45034499999997 113.81210300000001 1.9999999999999998
vertex 335.04343299999994 139.950974 1.9999999999999998
endloop
endfacet
facet normal -0.0 -0.0 1.0
outer loop
vertex 341.45034499999997 113.81210300000001 1.9999999999999998
vertex 335.04343299999994 108.666246 1.9999999999999998
vertex 354.56609 108.666246 1.9999999999999998
endloop
endfacet
facet normal -0.0 -0.0 1.0
outer loop
vertex 341.45034499999997 113.81210300000001 1.9999999999999998
vertex 354.56609 108.666246 1.9999999999999998
vertex 347.789274 113.81210300000001 1.9999999999999998
endloop
endfacet
facet normal -0.0 -0.0 1.0
outer loop
vertex 347.789274 113.81210300000001 1.9999999999999998
vertex 354.56609 108.666246 1.9999999999999998
vertex 347.789274 139.950974 1.9999999999999998
endloop
endfacet
facet normal -0.0 -0.0 1.0
outer loop
vertex 347.789274 139.950974 1.9999999999999998
vertex 354.56609 108.666246 1.9999999999999998
vertex 354.56609 134.692002 1.9999999999999998
endloop
endfacet
facet normal -0.0 -0.0 1.0
outer loop
vertex 347.789274 139.950974 1.9999999999999998
vertex 354.56609 134.692002 1.9999999999999998
vertex 367.25532899999996 139.950974 1.9999999999999998
endloop
endfacet
facet normal -0.0 -0.0 1.0
outer loop
vertex 367.25532899999996 139.950974 1.9999999999999998
vertex 354.56609 134.692002 1.9999999999999998
vertex 361.26689799999997 134.692002 1.9999999999999998
endloop
endfacet
facet normal -0.0 -0.0 1.0
outer loop
vertex 367.25532899999996 139.950974 1.9999999999999998
vertex 361.26689799999997 134.692002 1.9999999999999998
vertex 367.25532899999996 113.81210300000001 1.9999999999999998
endloop
endfacet
facet normal -0.0 -0.0 1.0
outer loop
vertex 341.45034499999997 139.950974 1.9999999999999998
vertex 335.04343299999994 139.950974 1.9999999999999998
vertex 341.45034499999997 113.81210300000001 1.9999999999999998
endloop
endfacet
endsolid model
