solid Starburst
facet normal -0.0 -0.0 1.0
outer loop
vertex 13.875533234332481 -0.7249999999999969 8.0
vertex 14.104289539584567 0.7250000000000026 8.0
vertex 13.306411333419716 -0.01328042552681293 8.0
endloop
endfacet
facet normal -0.0 -0.0 1.0
outer loop
vertex 14.104289539584567 0.7250000000000026 8.0
vertex 13.875533234332481 -0.7249999999999969 8.0
vertex 15.028403983706985 -0.7249999999999966 8.0
endloop
endfacet
facet normal -0.0 -0.0 1.0
outer loop
vertex 14.104289539584567 0.7250000000000026 8.0
vertex 15.028403983706985 -0.7249999999999966 8.0
vertex 15.290458194442357 0.7250000000000032 8.0
endloop
endfacet
facet normal -0.0 -0.0 1.0
outer loop
vertex 15.290458194442357 0.7250000000000032 8.0
vertex 15.028403983706985 -0.7249999999999966 8.0
vertex 16.565541085162323 0.007990013698123685 8.0
endloop
endfacet
endsolid Starburst
