# Alias Wavefront OBJ File Exported from SketchUp
# with OBJexporter (c) 2013 TIG
# Units = meters

mtllib Starburst_d1.mtl

g Starburst-SKP-Default_Material
usemtl Default_Material
v 12.1527878062 8 6.93323418477
v 11.9442970348 8 6.50811763494
v 11.8464940062 8 6.5808834739
v 13.1092214901 8 5.64140924617
v 12.6925384641 8 7.09140924617
v 13.3127640085 8 7.09140924617
v 13.3951598477 8 5.64140924617
v 14.762436113 8 7.09140924617
v 13.8441598477 8 5.64140924617
v 15.0426136352 8 5.64140924617
v 15.7368933135 8 6.36640924617
vt 478.456212842 -272.961975778
vt 470.247914755 -256.225103738
vt 466.397401818 -259.089900547
vt 516.111082289 -222.102726227
vt 499.706238746 -279.1893404
vt 524.124567265 -279.1893404
vt 527.368497942 -222.102726227
vt 581.198272166 -279.1893404
vt 545.045663297 -222.102726227
vt 592.228883274 -222.102726227
vt 619.562728878 -250.646033314
vn 0 1 0
f 1/1/1 2/2/1 3/3/1
f 2/2/1 1/1/1 4/4/1
f 4/4/1 1/1/1 5/5/1
f 4/4/1 5/5/1 6/6/1
f 4/4/1 6/6/1 7/7/1
f 7/7/1 6/6/1 8/8/1
f 7/7/1 8/8/1 9/9/1
f 9/9/1 8/8/1 10/10/1
f 10/10/1 8/8/1 11/11/1

#EOF
