solid Starburst
facet normal -0.0 -0.0 1.0
outer loop
vertex 17.948518115035213 -0.7249999999999958 8.0
vertex 18.224235014656042 0.7250000000000036 8.0
vertex 16.694555187974437 -0.007990013698115923 8.0
endloop
endfacet
facet normal -0.0 -0.0 1.0
outer loop
vertex 18.224235014656042 0.7250000000000036 8.0
vertex 17.948518115035213 -0.7249999999999958 8.0
vertex 19.159710460415436 -0.7249999999999954 8.0
endloop
endfacet
facet normal -0.0 -0.0 1.0
outer loop
vertex 18.224235014656042 0.7250000000000036 8.0
vertex 19.159710460415436 -0.7249999999999954 8.0
vertex 19.388466765667523 0.7250000000000041 8.0
endloop
endfacet
facet normal -0.0 -0.0 1.0
outer loop
vertex 19.388466765667523 0.7250000000000041 8.0
vertex 19.159710460415436 -0.7249999999999954 8.0
vertex 19.95758866658029 0.013280425526820487 8.0
endloop
endfacet
endsolid Starburst
