# Alias Wavefront OBJ File Exported from SketchUp
# with OBJexporter (c) 2013 TIG
# Units = meters

mtllib Starburst_dp.mtl

g Starburst-SKP-Default_Material
usemtl Default_Material
v 21.0468888402 8 6.88765241636
v 21.0468888402 8 5.86234758364
v 20.8345412566 8 6.375
v 21.5595412566 8 7.1
v 21.5595412566 8 5.65
v 22.072193673 8 6.88765241636
v 22.072193673 8 5.86234758364
v 22.2845412566 8 6.375
vt 828.617670876 -271.167417967
vt 828.617670876 -230.80108597
vt 820.257529788 -250.984251969
vt 848.800836874 -279.527559055
vt 848.800836874 -222.440944882
vt 868.984002873 -271.167417967
vt 868.984002873 -230.80108597
vt 877.344143961 -250.984251969
vn 0 1 0
f 1/1/1 2/2/1 3/3/1
f 2/2/1 1/1/1 4/4/1
f 2/2/1 4/4/1 5/5/1
f 5/5/1 4/4/1 6/6/1
f 5/5/1 6/6/1 7/7/1
f 7/7/1 6/6/1 8/8/1

#EOF
