solid Starburst
facet normal -0.5397506579515143 -0.8418249385952564 0.0
outer loop
vertex 21.109023845817887 6.94182493859526 8.310999999999996
vertex 20.569273187866372 7.100000000000005 8.0
vertex 21.109023845817887 6.94182493859526 8.0
endloop
endfacet
facet normal -0.28122505347563415 -0.9596418442823482 -0.0
outer loop
vertex 20.569273187866372 7.100000000000005 8.0
vertex 21.109023845817887 6.94182493859526 8.310999999999996
vertex 20.569273187866372 7.100000000000005 8.310999999999996
endloop
endfacet
facet normal 0.0 -0.9999999999999999 0.0
outer loop
vertex 20.569273187866372 7.100000000000005 8.310999999999996
vertex 18.49937553898506 7.100000000000005 8.0
vertex 20.569273187866372 7.100000000000005 8.0
endloop
endfacet
facet normal 0.0 -0.9999999999999999 0.0
outer loop
vertex 18.49937553898506 7.100000000000005 8.0
vertex 20.569273187866372 7.100000000000005 8.310999999999996
vertex 18.49937553898506 7.100000000000005 8.310999999999996
endloop
endfacet
facet normal -0.7222429460339116 -0.6916394486322018 -0.0
outer loop
vertex 16.73066573048726 7.100000000000005 8.310999999999996
vertex 17.424945408830848 6.375000000000003 8.0
vertex 17.424945408830848 6.375000000000003 8.310999999999996
endloop
endfacet
facet normal -0.7222429460339116 -0.6916394486322018 -0.0
outer loop
vertex 17.424945408830848 6.375000000000003 8.0
vertex 16.73066573048726 7.100000000000005 8.310999999999996
vertex 16.73066573048726 7.100000000000005 8.0
endloop
endfacet
facet normal 0.0 -1.0 0.0
outer loop
vertex 16.73066573048726 7.100000000000005 8.310999999999996
vertex 14.4093249955028 7.100000000000005 8.0
vertex 16.73066573048726 7.100000000000005 8.0
endloop
endfacet
facet normal 0.0 -1.0 0.0
outer loop
vertex 14.4093249955028 7.100000000000005 8.0
vertex 16.73066573048726 7.100000000000005 8.310999999999996
vertex 14.4093249955028 7.100000000000005 8.310999999999996
endloop
endfacet
facet normal 0.23627288165064791 -0.9716867424208787 0.0
outer loop
vertex 14.4093249955028 7.100000000000005 8.310999999999996
vertex 13.95015854211579 6.988350250793006 8.0
vertex 14.4093249955028 7.100000000000005 8.0
endloop
endfacet
facet normal 0.45916645338701534 -0.8883502507930022 0.0
outer loop
vertex 13.95015854211579 6.988350250793006 8.0
vertex 14.4093249955028 7.100000000000005 8.310999999999996
vertex 13.95015854211579 6.988350250793006 8.310999999999996
endloop
endfacet
facet normal 0.45916645338701534 -0.8883502507930022 0.0
outer loop
vertex 13.95015854211579 6.988350250793006 8.310999999999996
vertex 13.771841134787211 6.8333412934804985 8.0
vertex 13.95015854211579 6.988350250793006 8.0
endloop
endfacet
facet normal 0.6560590289905084 -0.754709580222771 0.0
outer loop
vertex 13.771841134787211 6.8333412934804985 8.0
vertex 13.95015854211579 6.988350250793006 8.310999999999996
vertex 13.771841134787211 6.8333412934804985 8.310999999999996
endloop
endfacet
facet normal 0.756120743439207 -0.6544321365435387 0.0
outer loop
vertex 13.771841134787211 6.8333412934804985 8.0
vertex 13.684684765776021 6.732642176104836 8.310999999999996
vertex 13.684684765776021 6.732642176104836 8.0
endloop
endfacet
facet normal 0.756120743439207 -0.6544321365435387 0.0
outer loop
vertex 13.684684765776021 6.732642176104836 8.310999999999996
vertex 13.771841134787211 6.8333412934804985 8.0
vertex 13.771841134787211 6.8333412934804985 8.310999999999996
endloop
endfacet
facet normal 0.7222429460339113 0.6916394486322022 0.0
outer loop
vertex 13.684684765776021 6.732642176104836 8.0
vertex 14.721452299275692 5.650000000000003 8.310999999999996
vertex 14.721452299275692 5.650000000000003 8.0
endloop
endfacet
facet normal 0.7222429460339113 0.6916394486322022 0.0
outer loop
vertex 14.721452299275692 5.650000000000003 8.310999999999996
vertex 13.684684765776021 6.732642176104836 8.0
vertex 13.684684765776021 6.732642176104836 8.310999999999996
endloop
endfacet
facet normal 0.0 1.0 0.0
outer loop
vertex 14.721452299275692 5.650000000000003 8.310999999999996
vertex 16.461029790070935 5.650000000000003 8.0
vertex 14.721452299275692 5.650000000000003 8.0
endloop
endfacet
facet normal 0.0 1.0 0.0
outer loop
vertex 16.461029790070935 5.650000000000003 8.0
vertex 14.721452299275692 5.650000000000003 8.310999999999996
vertex 16.461029790070935 5.650000000000003 8.310999999999996
endloop
endfacet
facet normal -0.6010942612727076 0.7991781335002965 0.0
outer loop
vertex 16.461029790070935 5.650000000000003 8.310999999999996
vertex 17.424945408830848 6.375000000000003 8.0
vertex 16.461029790070935 5.650000000000003 8.0
endloop
endfacet
facet normal -0.6010942612727076 0.7991781335002965 0.0
outer loop
vertex 17.424945408830848 6.375000000000003 8.0
vertex 16.461029790070935 5.650000000000003 8.310999999999996
vertex 17.424945408830848 6.375000000000003 8.310999999999996
endloop
endfacet
facet normal -0.9894416385809445 -0.14493185930724703 -0.0
outer loop
vertex 21.47802431683994 6.517338454481823 8.310999999999996
vertex 21.559541256607943 5.9608268990399385 8.0
vertex 21.559541256607943 5.9608268990399385 8.310999999999996
endloop
endfacet
facet normal -0.9894416385809445 -0.14493185930724703 -0.0
outer loop
vertex 21.559541256607943 5.9608268990399385 8.0
vertex 21.47802431683994 6.517338454481823 8.310999999999996
vertex 21.47802431683994 6.517338454481823 8.0
endloop
endfacet
facet normal -0.5397506579515143 -0.8418249385952564 0.0
outer loop
vertex 21.109023845817887 6.94182493859526 8.310999999999996
vertex 21.415317645832026 6.589474227731325 8.0
vertex 21.415317645832026 6.589474227731325 8.310999999999996
endloop
endfacet
facet normal -0.7547095802227718 -0.6560590289905074 -0.0
outer loop
vertex 21.415317645832026 6.589474227731325 8.0
vertex 21.109023845817887 6.94182493859526 8.310999999999996
vertex 21.109023845817887 6.94182493859526 8.0
endloop
endfacet
facet normal -0.5969167373166865 0.8023031900168425 0.0
outer loop
vertex 20.15259016186878 5.650000000000003 8.310999999999996
vertex 21.415317645832026 6.589474227731325 8.0
vertex 20.15259016186878 5.650000000000003 8.0
endloop
endfacet
facet normal -0.5969167373166865 0.8023031900168425 0.0
outer loop
vertex 21.415317645832026 6.589474227731325 8.0
vertex 20.15259016186878 5.650000000000003 8.310999999999996
vertex 21.415317645832026 6.589474227731325 8.310999999999996
endloop
endfacet
facet normal 0.0 1.0 0.0
outer loop
vertex 18.219198016853774 5.650000000000003 8.310999999999996
vertex 20.15259016186878 5.650000000000003 8.0
vertex 18.219198016853774 5.650000000000003 8.0
endloop
endfacet
facet normal 0.0 1.0 0.0
outer loop
vertex 20.15259016186878 5.650000000000003 8.0
vertex 18.219198016853774 5.650000000000003 8.310999999999996
vertex 20.15259016186878 5.650000000000003 8.310999999999996
endloop
endfacet
facet normal 0.7222429460339101 0.6916394486322032 0.0
outer loop
vertex 17.52491833851019 6.375000000000003 8.0
vertex 18.219198016853774 5.650000000000003 8.310999999999996
vertex 18.219198016853774 5.650000000000003 8.0
endloop
endfacet
facet normal 0.7222429460339101 0.6916394486322032 0.0
outer loop
vertex 18.219198016853774 5.650000000000003 8.310999999999996
vertex 17.52491833851019 6.375000000000003 8.0
vertex 17.52491833851019 6.375000000000003 8.310999999999996
endloop
endfacet
facet normal 0.5969167373166866 -0.8023031900168427 0.0
outer loop
vertex 18.49937553898506 7.100000000000005 8.310999999999996
vertex 17.52491833851019 6.375000000000003 8.0
vertex 18.49937553898506 7.100000000000005 8.0
endloop
endfacet
facet normal 0.5969167373166866 -0.8023031900168427 0.0
outer loop
vertex 17.52491833851019 6.375000000000003 8.0
vertex 18.49937553898506 7.100000000000005 8.310999999999996
vertex 17.52491833851019 6.375000000000003 8.310999999999996
endloop
endfacet
facet normal -0.7810046259922272 -0.6245252390246061 -0.0
outer loop
vertex 13.206972105893529 -0.05165657847682403 8.310999999999996
vertex 13.794878564334658 -0.7868673193755387 8.0
vertex 13.794878564334658 -0.7868673193755387 8.310999999999996
endloop
endfacet
facet normal -0.7810046259922272 -0.6245252390246061 -0.0
outer loop
vertex 13.794878564334658 -0.7868673193755387 8.0
vertex 13.206972105893529 -0.05165657847682403 8.310999999999996
vertex 13.206972105893529 -0.05165657847682403 8.0
endloop
endfacet
facet normal -0.9902680687415701 0.13917310096006572 0.0
outer loop
vertex 13.794878564334658 -0.7868673193755387 8.310999999999996
vertex 13.133381541808994 -5.49366320490193 8.0
vertex 13.133381541808994 -5.49366320490193 8.310999999999996
endloop
endfacet
facet normal -0.9902680687415701 0.13917310096006572 0.0
outer loop
vertex 13.133381541808994 -5.49366320490193 8.0
vertex 13.794878564334658 -0.7868673193755387 8.310999999999996
vertex 13.794878564334658 -0.7868673193755387 8.0
endloop
endfacet
facet normal -0.6010942612727275 0.7991781335002817 0.0
outer loop
vertex 13.129584466748529 -5.496519138933147 8.310999999999996
vertex 13.133381541808994 -5.49366320490193 8.0
vertex 13.129584466748529 -5.496519138933147 8.0
endloop
endfacet
facet normal -0.6010942612727275 0.7991781335002817 0.0
outer loop
vertex 13.133381541808994 -5.49366320490193 8.0
vertex 13.129584466748529 -5.496519138933147 8.310999999999996
vertex 13.133381541808994 -5.49366320490193 8.310999999999996
endloop
endfacet
facet normal -0.6010942612727151 0.7991781335002909 0.0
outer loop
vertex 12.262495037132592 -6.148692238151435 8.310999999999996
vertex 13.129584466748529 -5.496519138933147 8.0
vertex 12.262495037132592 -6.148692238151435 8.0
endloop
endfacet
facet normal -0.6010942612727151 0.7991781335002909 0.0
outer loop
vertex 13.129584466748529 -5.496519138933147 8.0
vertex 12.262495037132592 -6.148692238151435 8.310999999999996
vertex 13.129584466748529 -5.496519138933147 8.310999999999996
endloop
endfacet
facet normal -0.6010942612727135 0.7991781335002922 -0.0
outer loop
vertex 11.784625031975484 -6.508117634935261 8.310999999999996
vertex 12.262495037132592 -6.148692238151435 8.0
vertex 11.784625031975484 -6.508117634935261 8.0
endloop
endfacet
facet normal -0.6010942612727135 0.7991781335002922 -0.0
outer loop
vertex 12.262495037132592 -6.148692238151435 8.0
vertex 11.784625031975484 -6.508117634935261 8.310999999999996
vertex 12.262495037132592 -6.148692238151435 8.310999999999996
endloop
endfacet
facet normal 0.9894416385809446 0.144931859307247 -0.0
outer loop
vertex 11.704458743392053 -5.9608268990399305 8.0
vertex 11.784625031975484 -6.508117634935261 8.310999999999996
vertex 11.784625031975484 -6.508117634935261 8.0
endloop
endfacet
facet normal 0.9894416385809446 0.144931859307247 -0.0
outer loop
vertex 11.784625031975484 -6.508117634935261 8.310999999999996
vertex 11.704458743392053 -5.9608268990399305 8.0
vertex 11.704458743392053 -5.9608268990399305 8.310999999999996
endloop
endfacet
facet normal 0.9902680687415701 -0.13917310096006602 0.0
outer loop
vertex 12.434481393532193 -0.7664458375781129 8.0
vertex 11.704458743392053 -5.9608268990399305 8.310999999999996
vertex 11.704458743392053 -5.9608268990399305 8.0
endloop
endfacet
facet normal 0.9902680687415701 -0.13917310096006602 0.0
outer loop
vertex 11.704458743392053 -5.9608268990399305 8.310999999999996
vertex 12.434481393532193 -0.7664458375781129 8.0
vertex 12.434481393532193 -0.7664458375781129 8.310999999999996
endloop
endfacet
facet normal 0.6791624816016824 -0.7339879587463576 0.0
outer loop
vertex 13.206972105893529 -0.05165657847682403 8.310999999999996
vertex 12.434481393532193 -0.7664458375781129 8.0
vertex 13.206972105893529 -0.05165657847682403 8.0
endloop
endfacet
facet normal 0.6791624816016824 -0.7339879587463576 0.0
outer loop
vertex 12.434481393532193 -0.7664458375781129 8.0
vertex 13.206972105893529 -0.05165657847682403 8.310999999999996
vertex 12.434481393532193 -0.7664458375781129 8.310999999999996
endloop
endfacet
facet normal -0.9667830084211813 -0.2555985419130753 -0.0
outer loop
vertex 16.015390999752466 2.2250000000000036 8.310999999999996
vertex 16.590084555952522 0.05126316635129082 8.0
vertex 16.590084555952522 0.05126316635129082 8.310999999999996
endloop
endfacet
facet normal -0.9667830084211813 -0.2555985419130753 -0.0
outer loop
vertex 16.590084555952522 0.05126316635129082 8.0
vertex 16.015390999752466 2.2250000000000036 8.310999999999996
vertex 16.015390999752466 2.2250000000000036 8.0
endloop
endfacet
facet normal 0.5009990788530327 0.8654478164444191 0.0
outer loop
vertex 15.253497561188142 0.8250000000000033 8.310999999999996
vertex 16.590084555952522 0.05126316635129082 8.0
vertex 15.253497561188142 0.8250000000000033 8.0
endloop
endfacet
facet normal 0.5009990788530327 0.8654478164444191 0.0
outer loop
vertex 16.590084555952522 0.05126316635129082 8.0
vertex 15.253497561188142 0.8250000000000033 8.310999999999996
vertex 16.590084555952522 0.05126316635129082 8.310999999999996
endloop
endfacet
facet normal 0.9379819584894546 0.346684071667977 0.0
outer loop
vertex 14.43400295064063 3.0422093343505963 8.0
vertex 15.253497561188142 0.8250000000000033 8.310999999999996
vertex 15.253497561188142 0.8250000000000033 8.0
endloop
endfacet
facet normal 0.9379819584894546 0.346684071667977 0.0
outer loop
vertex 15.253497561188142 0.8250000000000033 8.310999999999996
vertex 14.43400295064063 3.0422093343505963 8.0
vertex 14.43400295064063 3.0422093343505963 8.310999999999996
endloop
endfacet
facet normal 0.9902680687415705 -0.1391731009600652 0.0
outer loop
vertex 14.786449944049863 5.550000000000004 8.0
vertex 14.43400295064063 3.0422093343505963 8.310999999999996
vertex 14.43400295064063 3.0422093343505963 8.0
endloop
endfacet
facet normal 0.9902680687415705 -0.1391731009600652 0.0
outer loop
vertex 14.43400295064063 3.0422093343505963 8.310999999999996
vertex 14.786449944049863 5.550000000000004 8.0
vertex 14.786449944049863 5.550000000000004 8.310999999999996
endloop
endfacet
facet normal -0.9379819584894544 -0.3466840716679776 -0.0
outer loop
vertex 14.786449944049863 5.550000000000004 8.310999999999996
vertex 16.015390999752466 2.2250000000000036 8.0
vertex 16.015390999752466 2.2250000000000036 8.310999999999996
endloop
endfacet
facet normal -0.9379819584894544 -0.3466840716679776 -0.0
outer loop
vertex 16.015390999752466 2.2250000000000036 8.0
vertex 14.786449944049863 5.550000000000004 8.310999999999996
vertex 14.786449944049863 5.550000000000004 8.0
endloop
endfacet
facet normal -0.8992492500399262 0.4374366083247152 0.0
outer loop
vertex 17.689002282513968 2.2250000000000036 8.310999999999996
vertex 16.6380381502665 0.06450705140606215 8.0
vertex 16.6380381502665 0.06450705140606215 8.310999999999996
endloop
endfacet
facet normal -0.8992492500399262 0.4374366083247152 0.0
outer loop
vertex 16.6380381502665 0.06450705140606215 8.0
vertex 17.689002282513968 2.2250000000000036 8.310999999999996
vertex 17.689002282513968 2.2250000000000036 8.0
endloop
endfacet
facet normal 0.9730690891685313 0.23051366055990039 0.0
outer loop
vertex 16.12623159537964 2.2250000000000036 8.0
vertex 16.6380381502665 0.06450705140606215 8.310999999999996
vertex 16.6380381502665 0.06450705140606215 8.0
endloop
endfacet
facet normal 0.9730690891685313 0.23051366055990039 0.0
outer loop
vertex 16.6380381502665 0.06450705140606215 8.310999999999996
vertex 16.12623159537964 2.2250000000000036 8.0
vertex 16.12623159537964 2.2250000000000036 8.310999999999996
endloop
endfacet
facet normal 0.9924161754778222 -0.12292328766337451 0.0
outer loop
vertex 16.55046113803532 5.650000000000003 8.0
vertex 16.12623159537964 2.2250000000000036 8.310999999999996
vertex 16.12623159537964 2.2250000000000036 8.0
endloop
endfacet
facet normal 0.9924161754778222 -0.12292328766337451 0.0
outer loop
vertex 16.12623159537964 2.2250000000000036 8.310999999999996
vertex 16.55046113803532 5.650000000000003 8.0
vertex 16.55046113803532 5.650000000000003 8.310999999999996
endloop
endfacet
facet normal 0.5969167373166863 -0.8023031900168429 0.0
outer loop
vertex 17.466539248064496 6.331565726485988 8.310999999999996
vertex 16.55046113803532 5.650000000000003 8.0
vertex 17.466539248064496 6.331565726485988 8.0
endloop
endfacet
facet normal 0.5969167373166863 -0.8023031900168429 0.0
outer loop
vertex 16.55046113803532 5.650000000000003 8.0
vertex 17.466539248064496 6.331565726485988 8.310999999999996
vertex 16.55046113803532 5.650000000000003 8.310999999999996
endloop
endfacet
facet normal -0.7222429460339114 -0.6916394486322022 -0.0
outer loop
vertex 17.466539248064496 6.331565726485988 8.310999999999996
vertex 18.11922508717443 5.650000000000003 8.0
vertex 18.11922508717443 5.650000000000003 8.310999999999996
endloop
endfacet
facet normal -0.7222429460339114 -0.6916394486322022 -0.0
outer loop
vertex 18.11922508717443 5.650000000000003 8.0
vertex 17.466539248064496 6.331565726485988 8.310999999999996
vertex 17.466539248064496 6.331565726485988 8.0
endloop
endfacet
facet normal -0.992202899741191 0.1246330844726713 0.0
outer loop
vertex 18.11922508717443 5.650000000000003 8.310999999999996
vertex 17.689002282513968 2.2250000000000036 8.0
vertex 17.689002282513968 2.2250000000000036 8.310999999999996
endloop
endfacet
facet normal -0.992202899741191 0.1246330844726713 0.0
outer loop
vertex 17.689002282513968 2.2250000000000036 8.0
vertex 18.11922508717443 5.650000000000003 8.310999999999996
vertex 18.11922508717443 5.650000000000003 8.0
endloop
endfacet
facet normal -0.43815947449401027 0.8988972549246843 0.0
outer loop
vertex 16.681311302919667 0.039963580615862984 8.310999999999996
vertex 18.291836975599043 0.8250000000000044 8.0
vertex 16.681311302919667 0.039963580615862984 8.0
endloop
endfacet
facet normal -0.43815947449401027 0.8988972549246843 0.0
outer loop
vertex 18.291836975599043 0.8250000000000044 8.0
vertex 16.681311302919667 0.039963580615862984 8.310999999999996
vertex 18.291836975599043 0.8250000000000044 8.310999999999996
endloop
endfacet
facet normal 0.8918066571254785 -0.45241671753669677 0.0
outer loop
vertex 17.789788119791893 2.2250000000000045 8.0
vertex 16.681311302919667 0.039963580615862984 8.310999999999996
vertex 16.681311302919667 0.039963580615862984 8.0
endloop
endfacet
facet normal 0.8918066571254785 -0.45241671753669677 0.0
outer loop
vertex 16.681311302919667 0.039963580615862984 8.310999999999996
vertex 17.789788119791893 2.2250000000000045 8.0
vertex 17.789788119791893 2.2250000000000045 8.310999999999996
endloop
endfacet
facet normal 0.8284567669738833 -0.5600530200393361 0.0
outer loop
vertex 20.037553321146685 5.550000000000004 8.0
vertex 17.789788119791893 2.2250000000000045 8.310999999999996
vertex 17.789788119791893 2.2250000000000045 8.0
endloop
endfacet
facet normal 0.8284567669738833 -0.5600530200393361 0.0
outer loop
vertex 17.789788119791893 2.2250000000000045 8.310999999999996
vertex 20.037553321146685 5.550000000000004 8.0
vertex 20.037553321146685 5.550000000000004 8.310999999999996
endloop
endfacet
facet normal -0.99026806874157 0.13917310096006708 0.0
outer loop
vertex 20.037553321146685 5.550000000000004 8.310999999999996
vertex 19.657388729901516 2.844988377931586 8.0
vertex 19.657388729901516 2.844988377931586 8.310999999999996
endloop
endfacet
facet normal -0.99026806874157 0.13917310096006708 0.0
outer loop
vertex 19.657388729901516 2.844988377931586 8.0
vertex 20.037553321146685 5.550000000000004 8.310999999999996
vertex 20.037553321146685 5.550000000000004 8.0
endloop
endfacet
facet normal -0.8284567669738832 0.560053020039336 0.0
outer loop
vertex 19.657388729901516 2.844988377931586 8.310999999999996
vertex 18.291836975599043 0.8250000000000044 8.0
vertex 18.291836975599043 0.8250000000000044 8.310999999999996
endloop
endfacet
facet normal -0.8284567669738832 0.560053020039336 0.0
outer loop
vertex 18.291836975599043 0.8250000000000044 8.0
vertex 19.657388729901516 2.844988377931586 8.310999999999996
vertex 19.657388729901516 2.844988377931586 8.0
endloop
endfacet
facet normal -0.5067959272059752 -0.8620660578908301 -0.0
outer loop
vertex 17.98614751508971 -0.8249999999999957 8.310999999999996
vertex 16.670011717184238 -0.05126316635128306 8.0
vertex 17.98614751508971 -0.8249999999999957 8.0
endloop
endfacet
facet normal -0.5067959272059752 -0.8620660578908301 -0.0
outer loop
vertex 16.670011717184238 -0.05126316635128306 8.0
vertex 17.98614751508971 -0.8249999999999957 8.310999999999996
vertex 16.670011717184238 -0.05126316635128306 8.310999999999996
endloop
endfacet
facet normal -0.9359304075069864 -0.35218499727246494 -0.0
outer loop
vertex 17.98614751508971 -0.8249999999999957 8.310999999999996
vertex 18.827406420103173 -3.060642619322023 8.0
vertex 18.827406420103173 -3.060642619322023 8.310999999999996
endloop
endfacet
facet normal -0.9359304075069864 -0.35218499727246494 -0.0
outer loop
vertex 18.827406420103173 -3.060642619322023 8.0
vertex 17.98614751508971 -0.8249999999999957 8.310999999999996
vertex 17.98614751508971 -0.8249999999999957 8.0
endloop
endfacet
facet normal -0.99026806874157 0.13917310096006677 0.0
outer loop
vertex 18.827406420103173 -3.060642619322023 8.310999999999996
vertex 18.47875740766385 -5.541409246171925 8.0
vertex 18.47875740766385 -5.541409246171925 8.310999999999996
endloop
endfacet
facet normal -0.99026806874157 0.13917310096006677 0.0
outer loop
vertex 18.47875740766385 -5.541409246171925 8.0
vertex 18.827406420103173 -3.060642619322023 8.310999999999996
vertex 18.827406420103173 -3.060642619322023 8.0
endloop
endfacet
facet normal 0.9359304075069866 0.35218499727246483 0.0
outer loop
vertex 17.230812504977568 -2.224999999999995 8.0
vertex 18.47875740766385 -5.541409246171925 8.310999999999996
vertex 18.47875740766385 -5.541409246171925 8.0
endloop
endfacet
facet normal 0.9359304075069866 0.35218499727246483 0.0
outer loop
vertex 18.47875740766385 -5.541409246171925 8.310999999999996
vertex 17.230812504977568 -2.224999999999995 8.0
vertex 17.230812504977568 -2.224999999999995 8.310999999999996
endloop
endfacet
facet normal 0.9682949490137999 0.24980971100892513 0.0
outer loop
vertex 16.670011717184238 -0.05126316635128306 8.0
vertex 17.230812504977568 -2.224999999999995 8.310999999999996
vertex 17.230812504977568 -2.224999999999995 8.0
endloop
endfacet
facet normal 0.9682949490137999 0.24980971100892513 0.0
outer loop
vertex 17.230812504977568 -2.224999999999995 8.310999999999996
vertex 16.670011717184238 -0.05126316635128306 8.0
vertex 16.670011717184238 -0.05126316635128306 8.310999999999996
endloop
endfacet
facet normal -0.9293475242268716 0.3692061473125607 0.0
outer loop
vertex 19.848009294229247 -6.217355804962275 8.310999999999996
vertex 19.842754725244596 -6.23058234713203 8.0
vertex 19.842754725244596 -6.23058234713203 8.310999999999996
endloop
endfacet
facet normal -0.9293475242268716 0.3692061473125607 0.0
outer loop
vertex 19.842754725244596 -6.23058234713203 8.0
vertex 19.848009294229247 -6.217355804962275 8.310999999999996
vertex 19.848009294229247 -6.217355804962275 8.0
endloop
endfacet
facet normal -0.9293475242268412 0.3692061473126377 0.0
outer loop
vertex 19.842754725244596 -6.23058234713203 8.310999999999996
vertex 19.668287924547222 -6.669741582339954 8.0
vertex 19.668287924547222 -6.669741582339954 8.310999999999996
endloop
endfacet
facet normal -0.9293475242268412 0.3692061473126377 0.0
outer loop
vertex 19.668287924547222 -6.669741582339954 8.0
vertex 19.842754725244596 -6.23058234713203 8.310999999999996
vertex 19.842754725244596 -6.23058234713203 8.0
endloop
endfacet
facet normal 0.7239784227209392 0.6898226173694952 -0.0
outer loop
vertex 18.581468746082408 -5.5291097520757315 8.0
vertex 19.668287924547222 -6.669741582339954 8.310999999999996
vertex 19.668287924547222 -6.669741582339954 8.0
endloop
endfacet
facet normal 0.7239784227209392 0.6898226173694952 -0.0
outer loop
vertex 19.668287924547222 -6.669741582339954 8.310999999999996
vertex 18.581468746082408 -5.5291097520757315 8.0
vertex 18.581468746082408 -5.5291097520757315 8.310999999999996
endloop
endfacet
facet normal 0.9902680687415701 -0.13917310096006633 -0.0
outer loop
vertex 19.250817508032867 -0.7664458375781097 8.0
vertex 18.581468746082408 -5.5291097520757315 8.310999999999996
vertex 18.581468746082408 -5.5291097520757315 8.0
endloop
endfacet
facet normal 0.9902680687415701 -0.13917310096006633 -0.0
outer loop
vertex 18.581468746082408 -5.5291097520757315 8.310999999999996
vertex 19.250817508032867 -0.7664458375781097 8.0
vertex 19.250817508032867 -0.7664458375781097 8.310999999999996
endloop
endfacet
facet normal 0.6791624816016828 -0.7339879587463569 0.0
outer loop
vertex 20.0233082203942 -0.051656578476823777 8.310999999999996
vertex 19.250817508032867 -0.7664458375781097 8.0
vertex 20.0233082203942 -0.051656578476823777 8.0
endloop
endfacet
facet normal 0.6791624816016828 -0.7339879587463569 0.0
outer loop
vertex 19.250817508032867 -0.7664458375781097 8.0
vertex 20.0233082203942 -0.051656578476823777 8.310999999999996
vertex 19.250817508032867 -0.7664458375781097 8.310999999999996
endloop
endfacet
facet normal -0.7810046259922258 -0.624525239024608 -0.0
outer loop
vertex 20.0233082203942 -0.051656578476823777 8.310999999999996
vertex 20.61121467883533 -0.786867319375542 8.0
vertex 20.61121467883533 -0.786867319375542 8.310999999999996
endloop
endfacet
facet normal -0.7810046259922258 -0.624525239024608 -0.0
outer loop
vertex 20.61121467883533 -0.786867319375542 8.0
vertex 20.0233082203942 -0.051656578476823777 8.310999999999996
vertex 20.0233082203942 -0.051656578476823777 8.0
endloop
endfacet
facet normal -0.9902680687415703 0.13917310096006538 0.0
outer loop
vertex 20.61121467883533 -0.786867319375542 8.310999999999996
vertex 20.199973653787897 -3.712999257600316 8.0
vertex 20.199973653787897 -3.712999257600316 8.310999999999996
endloop
endfacet
facet normal -0.9902680687415703 0.13917310096006538 0.0
outer loop
vertex 20.199973653787897 -3.712999257600316 8.0
vertex 20.61121467883533 -0.786867319375542 8.310999999999996
vertex 20.61121467883533 -0.786867319375542 8.0
endloop
endfacet
facet normal -0.9902680687415701 0.13917310096006605 0.0
outer loop
vertex 20.199973653787897 -3.712999257600316 8.310999999999996
vertex 19.848009294229247 -6.217355804962275 8.0
vertex 19.848009294229247 -6.217355804962275 8.310999999999996
endloop
endfacet
facet normal -0.9902680687415701 0.13917310096006605 0.0
outer loop
vertex 19.848009294229247 -6.217355804962275 8.0
vertex 20.199973653787897 -3.712999257600316 8.310999999999996
vertex 20.199973653787897 -3.712999257600316 8.0
endloop
endfacet
facet normal 4.975823901437545e-15 1.0 0.0
outer loop
vertex 16.5311459215186 -7.091409246171966 8.310999999999996
vertex 18.852486656503043 -7.0914092461719775 8.0
vertex 16.5311459215186 -7.091409246171966 8.0
endloop
endfacet
facet normal 4.975823901437545e-15 1.0 0.0
outer loop
vertex 18.852486656503043 -7.0914092461719775 8.0
vertex 16.5311459215186 -7.091409246171966 8.310999999999996
vertex 18.852486656503043 -7.0914092461719775 8.310999999999996
endloop
endfacet
facet normal 0.7222429460338904 0.6916394486322243 0.0
outer loop
vertex 15.836866243174981 -6.366409246171975 8.0
vertex 16.5311459215186 -7.091409246171966 8.310999999999996
vertex 16.5311459215186 -7.091409246171966 8.0
endloop
endfacet
facet normal 0.7222429460338904 0.6916394486322243 0.0
outer loop
vertex 16.5311459215186 -7.091409246171966 8.310999999999996
vertex 15.836866243174981 -6.366409246171975 8.0
vertex 15.836866243174981 -6.366409246171975 8.310999999999996
endloop
endfacet
facet normal 0.6010942612727234 -0.799178133500285 0.0
outer loop
vertex 16.800781861934915 -5.64140924617193 8.310999999999996
vertex 15.836866243174981 -6.366409246171975 8.0
vertex 16.800781861934915 -5.64140924617193 8.0
endloop
endfacet
facet normal 0.6010942612727234 -0.799178133500285 0.0
outer loop
vertex 15.836866243174981 -6.366409246171975 8.0
vertex 16.800781861934915 -5.64140924617193 8.310999999999996
vertex 15.836866243174981 -6.366409246171975 8.310999999999996
endloop
endfacet
facet normal 1.0 2.503637556812944e-33 -3.7188669347560974e-16
outer loop
vertex 22.932 9.500000000000005 0.3999999999999986
vertex 22.932 -9.499999999999996 8.310999999999996
vertex 22.932 -9.499999999999996 0.3999999999999986
endloop
endfacet
facet normal 1.0 2.503637556812944e-33 -3.7188669347560974e-16
outer loop
vertex 22.932 -9.499999999999996 8.310999999999996
vertex 22.932 9.500000000000005 0.3999999999999986
vertex 22.932 9.500000000000002 8.310999999999996
endloop
endfacet
facet normal 0.0 0.0 -1.0
outer loop
vertex 22.932 9.500000000000005 0.3999999999999986
vertex 10.332 -9.499999999999996 0.3999999999999986
vertex 10.332 9.500000000000005 0.3999999999999986
endloop
endfacet
facet normal 0.0 0.0 -1.0
outer loop
vertex 10.332 -9.499999999999996 0.3999999999999986
vertex 22.932 9.500000000000005 0.3999999999999986
vertex 22.932 -9.499999999999996 0.3999999999999986
endloop
endfacet
facet normal -1.0 -5.066045049349206e-17 -9.297167336890245e-17
outer loop
vertex 10.331999999999999 9.500000000000002 8.310999999999996
vertex 10.332 -9.499999999999996 0.3999999999999986
vertex 10.332 -9.499999999999996 8.310999999999996
endloop
endfacet
facet normal -1.0 -5.066045049349206e-17 -9.297167336890245e-17
outer loop
vertex 10.332 -9.499999999999996 0.3999999999999986
vertex 10.331999999999999 9.500000000000002 8.310999999999996
vertex 10.332 9.500000000000005 0.3999999999999986
endloop
endfacet
facet normal -2.989374843491738e-33 1.0 3.7188669347560974e-16
outer loop
vertex 10.331999999999999 9.500000000000002 8.310999999999996
vertex 22.932 9.500000000000005 0.3999999999999986
vertex 10.332 9.500000000000005 0.3999999999999986
endloop
endfacet
facet normal -2.989374843491738e-33 1.0 3.7188669347560974e-16
outer loop
vertex 22.932 9.500000000000005 0.3999999999999986
vertex 10.331999999999999 9.500000000000002 8.310999999999996
vertex 22.932 9.500000000000002 8.310999999999996
endloop
endfacet
facet normal 0.0 -1.0 0.0
outer loop
vertex 22.932 -9.499999999999996 8.310999999999996
vertex 10.332 -9.499999999999996 0.3999999999999986
vertex 22.932 -9.499999999999996 0.3999999999999986
endloop
endfacet
facet normal 0.0 -1.0 0.0
outer loop
vertex 10.332 -9.499999999999996 0.3999999999999986
vertex 22.932 -9.499999999999996 8.310999999999996
vertex 10.332 -9.499999999999996 8.310999999999996
endloop
endfacet
facet normal -0.5969167373166772 0.8023031900168496 -0.0
outer loop
vertex 15.795272403941356 -6.322974972657933 8.310999999999996
vertex 16.699803863039175 -5.649999999999997 8.0
vertex 15.795272403941356 -6.322974972657933 8.0
endloop
endfacet
facet normal -0.5969167373166772 0.8023031900168496 -0.0
outer loop
vertex 16.699803863039175 -5.649999999999997 8.0
vertex 15.795272403941356 -6.322974972657933 8.310999999999996
vertex 16.699803863039175 -5.649999999999997 8.310999999999996
endloop
endfacet
facet normal 0.722242946033903 0.6916394486322107 0.0
outer loop
vertex 15.150813303872052 -5.649999999999997 8.0
vertex 15.795272403941356 -6.322974972657933 8.310999999999996
vertex 15.795272403941356 -6.322974972657933 8.0
endloop
endfacet
facet normal 0.722242946033903 0.6916394486322107 0.0
outer loop
vertex 15.795272403941356 -6.322974972657933 8.310999999999996
vertex 15.150813303872052 -5.649999999999997 8.0
vertex 15.150813303872052 -5.649999999999997 8.310999999999996
endloop
endfacet
facet normal 0.9924161754778189 -0.12292328766339905 0.0
outer loop
vertex 15.152088931930242 -5.63970126862935 8.0
vertex 15.150813303872052 -5.649999999999997 8.310999999999996
vertex 15.150813303872052 -5.649999999999997 8.0
endloop
endfacet
facet normal 0.9924161754778189 -0.12292328766339905 0.0
outer loop
vertex 15.150813303872052 -5.649999999999997 8.310999999999996
vertex 15.152088931930242 -5.63970126862935 8.0
vertex 15.152088931930242 -5.63970126862935 8.310999999999996
endloop
endfacet
facet normal 0.8290837032279142 -0.5591245058498936 0.0
outer loop
vertex 14.960965134809937 -0.8249999999999968 8.0
vertex 13.608691827281767 -2.8301844443439665 8.310999999999996
vertex 13.608691827281767 -2.8301844443439665 8.0
endloop
endfacet
facet normal 0.8290837032279142 -0.5591245058498936 0.0
outer loop
vertex 13.608691827281767 -2.8301844443439665 8.310999999999996
vertex 14.960965134809937 -0.8249999999999968 8.0
vertex 14.960965134809937 -0.8249999999999968 8.310999999999996
endloop
endfacet
facet normal 0.4365611642445832 -0.899674579986238 0.0
outer loop
vertex 16.578784970217093 -0.039963580615855226 8.310999999999996
vertex 14.960965134809937 -0.8249999999999968 8.0
vertex 16.578784970217093 -0.039963580615855226 8.0
endloop
endfacet
facet normal 0.4365611642445832 -0.899674579986238 0.0
outer loop
vertex 14.960965134809937 -0.8249999999999968 8.0
vertex 16.578784970217093 -0.039963580615855226 8.310999999999996
vertex 14.960965134809937 -0.8249999999999968 8.310999999999996
endloop
endfacet
facet normal -0.8908001195441861 0.4543953642149793 0.0
outer loop
vertex 16.578784970217093 -0.039963580615855226 8.310999999999996
vertex 15.464202250900561 -2.224999999999997 8.0
vertex 15.464202250900561 -2.224999999999997 8.310999999999996
endloop
endfacet
facet normal -0.8908001195441861 0.4543953642149793 0.0
outer loop
vertex 15.464202250900561 -2.224999999999997 8.0
vertex 16.578784970217093 -0.039963580615855226 8.310999999999996
vertex 16.578784970217093 -0.039963580615855226 8.0
endloop
endfacet
facet normal -0.8290837032279136 0.5591245058498947 0.0
outer loop
vertex 15.464202250900561 -2.224999999999997 8.310999999999996
vertex 13.22765403056703 -5.541409246171964 8.0
vertex 13.22765403056703 -5.541409246171964 8.310999999999996
endloop
endfacet
facet normal -0.8290837032279136 0.5591245058498947 0.0
outer loop
vertex 13.22765403056703 -5.541409246171964 8.0
vertex 15.464202250900561 -2.224999999999997 8.310999999999996
vertex 15.464202250900561 -2.224999999999997 8.0
endloop
endfacet
facet normal 0.99026806874157 -0.13917310096006716 0.0
outer loop
vertex 13.608691827281767 -2.8301844443439665 8.0
vertex 13.22765403056703 -5.541409246171964 8.310999999999996
vertex 13.22765403056703 -5.541409246171964 8.0
endloop
endfacet
facet normal 0.99026806874157 -0.13917310096006716 0.0
outer loop
vertex 13.22765403056703 -5.541409246171964 8.310999999999996
vertex 13.608691827281767 -2.8301844443439665 8.0
vertex 13.608691827281767 -2.8301844443439665 8.310999999999996
endloop
endfacet
facet normal 0.43212901687332794 -0.9018117945425703 0.0
outer loop
vertex 18.224235014656042 0.7250000000000036 8.310999999999996
vertex 16.694555187974437 -0.007990013698115923 8.0
vertex 18.224235014656042 0.7250000000000036 8.0
endloop
endfacet
facet normal 0.43212901687332794 -0.9018117945425703 0.0
outer loop
vertex 16.694555187974437 -0.007990013698115923 8.0
vertex 18.224235014656042 0.7250000000000036 8.310999999999996
vertex 16.694555187974437 -0.007990013698115923 8.310999999999996
endloop
endfacet
facet normal 3.875470986044379e-16 -1.0 0.0
outer loop
vertex 19.388466765667523 0.7250000000000041 8.310999999999996
vertex 18.224235014656042 0.7250000000000036 8.0
vertex 19.388466765667523 0.7250000000000041 8.0
endloop
endfacet
facet normal 3.875470986044379e-16 -1.0 0.0
outer loop
vertex 18.224235014656042 0.7250000000000036 8.0
vertex 19.388466765667523 0.7250000000000041 8.310999999999996
vertex 18.224235014656042 0.7250000000000036 8.310999999999996
endloop
endfacet
facet normal -0.7810046259922248 -0.624525239024609 -0.0
outer loop
vertex 19.388466765667523 0.7250000000000041 8.310999999999996
vertex 19.95758866658029 0.013280425526820487 8.0
vertex 19.95758866658029 0.013280425526820487 8.310999999999996
endloop
endfacet
facet normal -0.7810046259922248 -0.624525239024609 -0.0
outer loop
vertex 19.95758866658029 0.013280425526820487 8.0
vertex 19.388466765667523 0.7250000000000041 8.310999999999996
vertex 19.388466765667523 0.7250000000000041 8.0
endloop
endfacet
facet normal -0.6791624816016828 0.7339879587463572 0.0
outer loop
vertex 19.159710460415436 -0.7249999999999954 8.310999999999996
vertex 19.95758866658029 0.013280425526820487 8.0
vertex 19.159710460415436 -0.7249999999999954 8.0
endloop
endfacet
facet normal -0.6791624816016828 0.7339879587463572 0.0
outer loop
vertex 19.95758866658029 0.013280425526820487 8.0
vertex 19.159710460415436 -0.7249999999999954 8.310999999999996
vertex 19.95758866658029 0.013280425526820487 8.310999999999996
endloop
endfacet
facet normal -2.9801683534651005e-16 1.0 0.0
outer loop
vertex 17.948518115035213 -0.7249999999999958 8.310999999999996
vertex 19.159710460415436 -0.7249999999999954 8.0
vertex 17.948518115035213 -0.7249999999999958 8.0
endloop
endfacet
facet normal -2.9801683534651005e-16 1.0 0.0
outer loop
vertex 19.159710460415436 -0.7249999999999954 8.0
vertex 17.948518115035213 -0.7249999999999958 8.310999999999996
vertex 19.159710460415436 -0.7249999999999954 8.310999999999996
endloop
endfacet
facet normal 0.49637884978148444 0.8681060059057364 0.0
outer loop
vertex 16.694555187974437 -0.007990013698115923 8.310999999999996
vertex 17.948518115035213 -0.7249999999999958 8.0
vertex 16.694555187974437 -0.007990013698115923 8.0
endloop
endfacet
facet normal 0.49637884978148444 0.8681060059057364 0.0
outer loop
vertex 17.948518115035213 -0.7249999999999958 8.0
vertex 16.694555187974437 -0.007990013698115923 8.310999999999996
vertex 17.948518115035213 -0.7249999999999958 8.310999999999996
endloop
endfacet
facet normal -0.4901448419191459 -0.8716410006075066 -0.0
outer loop
vertex 16.565541085162323 0.007990013698123685 8.310999999999996
vertex 15.290458194442357 0.7250000000000032 8.0
vertex 16.565541085162323 0.007990013698123685 8.0
endloop
endfacet
facet normal -0.4901448419191459 -0.8716410006075066 -0.0
outer loop
vertex 15.290458194442357 0.7250000000000032 8.0
vertex 16.565541085162323 0.007990013698123685 8.310999999999996
vertex 15.290458194442357 0.7250000000000032 8.310999999999996
endloop
endfacet
facet normal -0.4304217457818308 0.9026278971747553 0.0
outer loop
vertex 15.028403983706985 -0.7249999999999966 8.310999999999996
vertex 16.565541085162323 0.007990013698123685 8.0
vertex 15.028403983706985 -0.7249999999999966 8.0
endloop
endfacet
facet normal -0.4304217457818308 0.9026278971747553 0.0
outer loop
vertex 16.565541085162323 0.007990013698123685 8.0
vertex 15.028403983706985 -0.7249999999999966 8.310999999999996
vertex 16.565541085162323 0.007990013698123685 8.310999999999996
endloop
endfacet
facet normal -1.5654647754831555e-16 0.9999999999999999 0.0
outer loop
vertex 13.875533234332481 -0.7249999999999969 8.310999999999996
vertex 15.028403983706985 -0.7249999999999966 8.0
vertex 13.875533234332481 -0.7249999999999969 8.0
endloop
endfacet
facet normal -1.5654647754831555e-16 0.9999999999999999 0.0
outer loop
vertex 15.028403983706985 -0.7249999999999966 8.0
vertex 13.875533234332481 -0.7249999999999969 8.310999999999996
vertex 15.028403983706985 -0.7249999999999966 8.310999999999996
endloop
endfacet
facet normal 0.781004625992225 0.6245252390246088 0.0
outer loop
vertex 13.306411333419716 -0.01328042552681293 8.0
vertex 13.875533234332481 -0.7249999999999969 8.310999999999996
vertex 13.875533234332481 -0.7249999999999969 8.0
endloop
endfacet
facet normal 0.781004625992225 0.6245252390246088 0.0
outer loop
vertex 13.875533234332481 -0.7249999999999969 8.310999999999996
vertex 13.306411333419716 -0.01328042552681293 8.0
vertex 13.306411333419716 -0.01328042552681293 8.310999999999996
endloop
endfacet
facet normal 0.6791624816016826 -0.7339879587463574 0.0
outer loop
vertex 14.104289539584567 0.7250000000000026 8.310999999999996
vertex 13.306411333419716 -0.01328042552681293 8.0
vertex 14.104289539584567 0.7250000000000026 8.0
endloop
endfacet
facet normal 0.6791624816016826 -0.7339879587463574 0.0
outer loop
vertex 13.306411333419716 -0.01328042552681293 8.0
vertex 14.104289539584567 0.7250000000000026 8.310999999999996
vertex 13.306411333419716 -0.01328042552681293 8.310999999999996
endloop
endfacet
facet normal 5.325317689890067e-16 -0.9999999999999999 0.0
outer loop
vertex 15.290458194442357 0.7250000000000032 8.310999999999996
vertex 14.104289539584567 0.7250000000000026 8.0
vertex 15.290458194442357 0.7250000000000032 8.0
endloop
endfacet
facet normal 5.325317689890067e-16 -0.9999999999999999 0.0
outer loop
vertex 14.104289539584567 0.7250000000000026 8.0
vertex 15.290458194442357 0.7250000000000032 8.310999999999996
vertex 14.104289539584567 0.7250000000000026 8.310999999999996
endloop
endfacet
facet normal 0.0 -1.0 0.0
outer loop
vertex 17.374781861934913 -5.64140924617193 8.310999999999996
vertex 16.800781861934915 -5.64140924617193 8.0
vertex 17.374781861934913 -5.64140924617193 8.0
endloop
endfacet
facet normal 0.0 -1.0 0.0
outer loop
vertex 16.800781861934915 -5.64140924617193 8.0
vertex 17.374781861934913 -5.64140924617193 8.310999999999996
vertex 16.800781861934915 -5.64140924617193 8.310999999999996
endloop
endfacet
facet normal -6.193594379038048e-15 -1.0 -0.0
outer loop
vertex 18.540359352730146 -5.641409246171937 8.310999999999996
vertex 17.374781861934913 -5.64140924617193 8.0
vertex 18.540359352730146 -5.641409246171937 8.0
endloop
endfacet
facet normal -6.193594379038048e-15 -1.0 -0.0
outer loop
vertex 17.374781861934913 -5.64140924617193 8.0
vertex 18.540359352730146 -5.641409246171937 8.310999999999996
vertex 17.374781861934913 -5.64140924617193 8.310999999999996
endloop
endfacet
facet normal -0.722242946033922 -0.6916394486321912 -0.0
outer loop
vertex 18.540359352730146 -5.641409246171937 8.310999999999996
vertex 19.577126886229813 -6.7240514222768 8.0
vertex 19.577126886229813 -6.7240514222768 8.310999999999996
endloop
endfacet
facet normal -0.722242946033922 -0.6916394486321912 -0.0
outer loop
vertex 19.577126886229813 -6.7240514222768 8.0
vertex 18.540359352730146 -5.641409246171937 8.310999999999996
vertex 18.540359352730146 -5.641409246171937 8.0
endloop
endfacet
facet normal -0.7561207434392404 0.6544321365435003 0.0
outer loop
vertex 19.577126886229813 -6.7240514222768 8.310999999999996
vertex 19.48997051721864 -6.824750539652451 8.0
vertex 19.48997051721864 -6.824750539652451 8.310999999999996
endloop
endfacet
facet normal -0.7561207434392404 0.6544321365435003 0.0
outer loop
vertex 19.48997051721864 -6.824750539652451 8.0
vertex 19.577126886229813 -6.7240514222768 8.310999999999996
vertex 19.577126886229813 -6.7240514222768 8.0
endloop
endfacet
facet normal -0.45916645338702755 0.8883502507929959 0.0
outer loop
vertex 19.311653109890052 -6.9797594969649746 8.310999999999996
vertex 19.48997051721864 -6.824750539652451 8.0
vertex 19.311653109890052 -6.9797594969649746 8.0
endloop
endfacet
facet normal -0.6560590289905225 0.7547095802227588 0.0
outer loop
vertex 19.48997051721864 -6.824750539652451 8.0
vertex 19.311653109890052 -6.9797594969649746 8.310999999999996
vertex 19.48997051721864 -6.824750539652451 8.310999999999996
endloop
endfacet
facet normal -0.23627288165065655 0.9716867424208766 0.0
outer loop
vertex 18.852486656503043 -7.0914092461719775 8.310999999999996
vertex 19.311653109890052 -6.9797594969649746 8.0
vertex 18.852486656503043 -7.0914092461719775 8.0
endloop
endfacet
facet normal -0.45916645338702755 0.8883502507929959 0.0
outer loop
vertex 19.311653109890052 -6.9797594969649746 8.0
vertex 18.852486656503043 -7.0914092461719775 8.310999999999996
vertex 19.311653109890052 -6.9797594969649746 8.310999999999996
endloop
endfacet
facet normal -6.9836990048878e-15 1.0 -0.0
outer loop
vertex 12.692538464139458 -7.0914092461719545 8.310999999999996
vertex 13.312764008533916 -7.09140924617195 8.0
vertex 12.692538464139458 -7.0914092461719545 8.0
endloop
endfacet
facet normal -6.9836990048878e-15 1.0 -0.0
outer loop
vertex 13.312764008533916 -7.09140924617195 8.0
vertex 12.692538464139458 -7.0914092461719545 8.310999999999996
vertex 13.312764008533916 -7.09140924617195 8.310999999999996
endloop
endfacet
facet normal 0.5397506579515199 0.8418249385952529 0.0
outer loop
vertex 12.152787806187929 -6.933234184767191 8.310999999999996
vertex 12.692538464139458 -7.0914092461719545 8.0
vertex 12.152787806187929 -6.933234184767191 8.0
endloop
endfacet
facet normal 0.2812250534756556 0.9596418442823419 0.0
outer loop
vertex 12.692538464139458 -7.0914092461719545 8.0
vertex 12.152787806187929 -6.933234184767191 8.310999999999996
vertex 12.692538464139458 -7.0914092461719545 8.310999999999996
endloop
endfacet
facet normal 0.7547095802227658 0.6560590289905143 0.0
outer loop
vertex 11.846494006173804 -6.58088347390328 8.0
vertex 12.152787806187929 -6.933234184767191 8.310999999999996
vertex 12.152787806187929 -6.933234184767191 8.0
endloop
endfacet
facet normal 0.5397506579515199 0.8418249385952529 0.0
outer loop
vertex 12.152787806187929 -6.933234184767191 8.310999999999996
vertex 11.846494006173804 -6.58088347390328 8.0
vertex 11.846494006173804 -6.58088347390328 8.310999999999996
endloop
endfacet
facet normal 0.5969167373166846 -0.802303190016844 0.0
outer loop
vertex 11.944297034768262 -6.508117634935261 8.310999999999996
vertex 11.846494006173804 -6.58088347390328 8.0
vertex 11.944297034768262 -6.508117634935261 8.0
endloop
endfacet
facet normal 0.5969167373166846 -0.802303190016844 0.0
outer loop
vertex 11.846494006173804 -6.58088347390328 8.0
vertex 11.944297034768262 -6.508117634935261 8.310999999999996
vertex 11.846494006173804 -6.58088347390328 8.310999999999996
endloop
endfacet
facet normal 0.5969167373166848 -0.8023031900168439 0.0
outer loop
vertex 13.109221490137045 -5.641409246171967 8.310999999999996
vertex 11.944297034768262 -6.508117634935261 8.0
vertex 13.109221490137045 -5.641409246171967 8.0
endloop
endfacet
facet normal 0.5969167373166848 -0.8023031900168439 0.0
outer loop
vertex 11.944297034768262 -6.508117634935261 8.0
vertex 13.109221490137045 -5.641409246171967 8.310999999999996
vertex 11.944297034768262 -6.508117634935261 8.310999999999996
endloop
endfacet
facet normal 7.574129881650599e-15 -1.0 0.0
outer loop
vertex 13.395159847735531 -5.641409246171964 8.310999999999996
vertex 13.109221490137045 -5.641409246171967 8.0
vertex 13.395159847735531 -5.641409246171964 8.0
endloop
endfacet
facet normal 7.574129881650599e-15 -1.0 0.0
outer loop
vertex 13.109221490137045 -5.641409246171967 8.0
vertex 13.395159847735531 -5.641409246171964 8.310999999999996
vertex 13.109221490137045 -5.641409246171967 8.310999999999996
endloop
endfacet
facet normal 8.039102667397143e-15 -1.0 0.0
outer loop
vertex 13.84415984773553 -5.6414092461719605 8.310999999999996
vertex 13.395159847735531 -5.641409246171964 8.0
vertex 13.84415984773553 -5.6414092461719605 8.0
endloop
endfacet
facet normal 8.039102667397143e-15 -1.0 0.0
outer loop
vertex 13.395159847735531 -5.641409246171964 8.0
vertex 13.84415984773553 -5.6414092461719605 8.310999999999996
vertex 13.395159847735531 -5.641409246171964 8.310999999999996
endloop
endfacet
facet normal 7.228428100729255e-15 -1.0 0.0
outer loop
vertex 15.042613635152073 -5.641409246171952 8.310999999999996
vertex 13.84415984773553 -5.6414092461719605 8.0
vertex 15.042613635152073 -5.641409246171952 8.0
endloop
endfacet
facet normal 7.228428100729255e-15 -1.0 0.0
outer loop
vertex 13.84415984773553 -5.6414092461719605 8.0
vertex 15.042613635152073 -5.641409246171952 8.310999999999996
vertex 13.84415984773553 -5.6414092461719605 8.310999999999996
endloop
endfacet
facet normal -0.7222429460339093 -0.6916394486322043 -0.0
outer loop
vertex 15.042613635152073 -5.641409246171952 8.310999999999996
vertex 15.736893313495672 -6.366409246171965 8.0
vertex 15.736893313495672 -6.366409246171965 8.310999999999996
endloop
endfacet
facet normal -0.7222429460339093 -0.6916394486322043 -0.0
outer loop
vertex 15.736893313495672 -6.366409246171965 8.0
vertex 15.042613635152073 -5.641409246171952 8.310999999999996
vertex 15.042613635152073 -5.641409246171952 8.0
endloop
endfacet
facet normal -0.5969167373166663 0.8023031900168576 0.0
outer loop
vertex 14.762436113020787 -7.09140924617194 8.310999999999996
vertex 15.736893313495672 -6.366409246171965 8.0
vertex 14.762436113020787 -7.09140924617194 8.0
endloop
endfacet
facet normal -0.5969167373166663 0.8023031900168576 0.0
outer loop
vertex 15.736893313495672 -6.366409246171965 8.0
vertex 14.762436113020787 -7.09140924617194 8.310999999999996
vertex 15.736893313495672 -6.366409246171965 8.310999999999996
endloop
endfacet
facet normal -6.971755779924507e-15 1.0 -0.0
outer loop
vertex 13.312764008533916 -7.09140924617195 8.310999999999996
vertex 14.762436113020787 -7.09140924617194 8.0
vertex 13.312764008533916 -7.09140924617195 8.0
endloop
endfacet
facet normal -6.971755779924507e-15 1.0 -0.0
outer loop
vertex 14.762436113020787 -7.09140924617194 8.0
vertex 13.312764008533916 -7.09140924617195 8.310999999999996
vertex 14.762436113020787 -7.09140924617194 8.310999999999996
endloop
endfacet
facet normal 0.9924161754778039 -0.1229232876635209 0.0
outer loop
vertex 15.153441088094542 -5.628784690699094 8.0
vertex 15.152088931930242 -5.63970126862935 8.310999999999996
vertex 15.152088931930242 -5.63970126862935 8.0
endloop
endfacet
facet normal 0.9924161754778039 -0.1229232876635209 0.0
outer loop
vertex 15.152088931930242 -5.63970126862935 8.310999999999996
vertex 15.153441088094542 -5.628784690699094 8.0
vertex 15.153441088094542 -5.628784690699094 8.310999999999996
endloop
endfacet
facet normal 0.992416175477822 -0.12292328766337392 0.0
outer loop
vertex 15.575042846527735 -2.224999999999997 8.0
vertex 15.153441088094542 -5.628784690699094 8.310999999999996
vertex 15.153441088094542 -5.628784690699094 8.0
endloop
endfacet
facet normal 0.992416175477822 -0.12292328766337392 0.0
outer loop
vertex 15.153441088094542 -5.628784690699094 8.310999999999996
vertex 15.575042846527735 -2.224999999999997 8.0
vertex 15.575042846527735 -2.224999999999997 8.310999999999996
endloop
endfacet
facet normal 0.8998952683935969 -0.4361060718710716 0.0
outer loop
vertex 16.62205812287026 -0.0645070514060544 8.0
vertex 15.575042846527735 -2.224999999999997 8.310999999999996
vertex 15.575042846527735 -2.224999999999997 8.0
endloop
endfacet
facet normal 0.8998952683935969 -0.4361060718710716 0.0
outer loop
vertex 15.575042846527735 -2.224999999999997 8.310999999999996
vertex 16.62205812287026 -0.0645070514060544 8.0
vertex 16.62205812287026 -0.0645070514060544 8.310999999999996
endloop
endfacet
facet normal -0.9734556025551081 -0.22887592676835064 -0.0
outer loop
vertex 16.62205812287026 -0.0645070514060544 8.310999999999996
vertex 17.13002666769964 -2.224999999999997 8.0
vertex 17.13002666769964 -2.224999999999997 8.310999999999996
endloop
endfacet
facet normal -0.9734556025551081 -0.22887592676835064 -0.0
outer loop
vertex 17.13002666769964 -2.224999999999997 8.0
vertex 16.62205812287026 -0.0645070514060544 8.310999999999996
vertex 16.62205812287026 -0.0645070514060544 8.0
endloop
endfacet
facet normal -0.992202899741191 0.12463308447267124 0.0
outer loop
vertex 17.13002666769964 -2.224999999999997 8.310999999999996
vertex 16.699803863039175 -5.649999999999997 8.0
vertex 16.699803863039175 -5.649999999999997 8.310999999999996
endloop
endfacet
facet normal -0.992202899741191 0.12463308447267124 0.0
outer loop
vertex 16.699803863039175 -5.649999999999997 8.0
vertex 17.13002666769964 -2.224999999999997 8.310999999999996
vertex 17.13002666769964 -2.224999999999997 8.0
endloop
endfacet
facet normal -0.7239784227209346 -0.6898226173695 -0.0
outer loop
vertex 13.59352372745863 6.6783323361679905 8.310999999999996
vertex 14.683302122492453 5.534594766993265 8.0
vertex 14.683302122492453 5.534594766993265 8.310999999999996
endloop
endfacet
facet normal -0.7239784227209346 -0.6898226173695 -0.0
outer loop
vertex 14.683302122492453 5.534594766993265 8.0
vertex 13.59352372745863 6.6783323361679905 8.310999999999996
vertex 13.59352372745863 6.6783323361679905 8.0
endloop
endfacet
facet normal 0.9902680687415703 -0.1391731009600656 0.0
outer loop
vertex 13.419056926761233 6.239173100960068 8.0
vertex 12.65278532116467 0.7868673193755522 8.310999999999996
vertex 12.65278532116467 0.7868673193755522 8.0
endloop
endfacet
facet normal 0.9902680687415703 -0.1391731009600656 0.0
outer loop
vertex 12.65278532116467 0.7868673193755522 8.310999999999996
vertex 13.419056926761233 6.239173100960068 8.0
vertex 13.419056926761233 6.239173100960068 8.310999999999996
endloop
endfacet
facet normal 0.7810046259922271 0.6245252390246063 0.0
outer loop
vertex 19.469121435665343 0.7868673193755467 8.0
vertex 20.03237769671293 0.08248306393007784 8.310999999999996
vertex 20.03237769671293 0.08248306393007784 8.0
endloop
endfacet
facet normal 0.7810046259922271 0.6245252390246063 0.0
outer loop
vertex 20.03237769671293 0.08248306393007784 8.310999999999996
vertex 19.469121435665343 0.7868673193755467 8.0
vertex 19.469121435665343 0.7868673193755467 8.310999999999996
endloop
endfacet
facet normal 0.781004625992227 0.6245252390246063 0.0
outer loop
vertex 12.65278532116467 0.7868673193755522 8.0
vertex 13.240691779605802 0.051656578476832596 8.310999999999996
vertex 13.240691779605802 0.051656578476832596 8.0
endloop
endfacet
facet normal 0.781004625992227 0.6245252390246063 0.0
outer loop
vertex 13.240691779605802 0.051656578476832596 8.310999999999996
vertex 12.65278532116467 0.7868673193755522 8.0
vertex 12.65278532116467 0.7868673193755522 8.310999999999996
endloop
endfacet
facet normal 0.0 0.0 1.0
outer loop
vertex 15.736893313495672 -6.366409246171965 8.310999999999996
vertex 15.150813303872052 -5.649999999999997 8.310999999999996
vertex 15.042613635152073 -5.641409246171952 8.310999999999996
endloop
endfacet
facet normal 0.0 0.0 1.0
outer loop
vertex 15.150813303872052 -5.649999999999997 8.310999999999996
vertex 15.736893313495672 -6.366409246171965 8.310999999999996
vertex 15.795272403941356 -6.322974972657933 8.310999999999996
endloop
endfacet
facet normal 0.0 0.0 1.0
outer loop
vertex 14.683302122492453 5.534594766993265 8.310999999999996
vertex 13.684684765776021 6.732642176104836 8.310999999999996
vertex 13.59352372745863 6.6783323361679905 8.310999999999996
endloop
endfacet
facet normal 0.0 0.0 1.0
outer loop
vertex 13.684684765776021 6.732642176104836 8.310999999999996
vertex 14.683302122492453 5.534594766993265 8.310999999999996
vertex 14.721452299275692 5.650000000000003 8.310999999999996
endloop
endfacet
facet normal 0.0 0.0 1.0
outer loop
vertex 13.206972105893529 -0.05165657847682403 8.310999999999996
vertex 12.65278532116467 0.7868673193755522 8.310999999999996
vertex 12.434481393532193 -0.7664458375781129 8.310999999999996
endloop
endfacet
facet normal 0.0 0.0 1.0
outer loop
vertex 12.65278532116467 0.7868673193755522 8.310999999999996
vertex 13.206972105893529 -0.05165657847682403 8.310999999999996
vertex 13.240691779605802 0.051656578476832596 8.310999999999996
endloop
endfacet
facet normal 0.0 0.0 1.0
outer loop
vertex 13.240691779605802 0.051656578476832596 8.310999999999996
vertex 13.206972105893529 -0.05165657847682403 8.310999999999996
vertex 13.794878564334658 -0.7868673193755387 8.310999999999996
endloop
endfacet
facet normal 0.0 0.0 1.0
outer loop
vertex 13.240691779605802 0.051656578476832596 8.310999999999996
vertex 13.794878564334658 -0.7868673193755387 8.310999999999996
vertex 13.306411333419716 -0.01328042552681293 8.310999999999996
endloop
endfacet
facet normal 0.0 0.0 1.0
outer loop
vertex 13.306411333419716 -0.01328042552681293 8.310999999999996
vertex 13.794878564334658 -0.7868673193755387 8.310999999999996
vertex 13.875533234332481 -0.7249999999999969 8.310999999999996
endloop
endfacet
facet normal 0.0 0.0 1.0
outer loop
vertex 13.306411333419716 -0.01328042552681293 8.310999999999996
vertex 14.013182491967136 0.7664458375781207 8.310999999999996
vertex 13.240691779605802 0.051656578476832596 8.310999999999996
endloop
endfacet
facet normal 0.0 0.0 1.0
outer loop
vertex 14.013182491967136 0.7664458375781207 8.310999999999996
vertex 13.306411333419716 -0.01328042552681293 8.310999999999996
vertex 14.104289539584567 0.7250000000000026 8.310999999999996
endloop
endfacet
facet normal 0.0 0.0 1.0
outer loop
vertex 14.013182491967136 0.7664458375781207 8.310999999999996
vertex 14.104289539584567 0.7250000000000026 8.310999999999996
vertex 14.683302122492453 5.534594766993265 8.310999999999996
endloop
endfacet
facet normal 0.0 0.0 1.0
outer loop
vertex 14.683302122492453 5.534594766993265 8.310999999999996
vertex 14.104289539584567 0.7250000000000026 8.310999999999996
vertex 14.43400295064063 3.0422093343505963 8.310999999999996
endloop
endfacet
facet normal 0.0 0.0 1.0
outer loop
vertex 14.683302122492453 5.534594766993265 8.310999999999996
vertex 14.43400295064063 3.0422093343505963 8.310999999999996
vertex 14.786449944049863 5.550000000000004 8.310999999999996
endloop
endfacet
facet normal 0.0 0.0 1.0
outer loop
vertex 14.683302122492453 5.534594766993265 8.310999999999996
vertex 14.786449944049863 5.550000000000004 8.310999999999996
vertex 14.721452299275692 5.650000000000003 8.310999999999996
endloop
endfacet
facet normal 0.0 0.0 1.0
outer loop
vertex 14.721452299275692 5.650000000000003 8.310999999999996
vertex 14.786449944049863 5.550000000000004 8.310999999999996
vertex 16.461029790070935 5.650000000000003 8.310999999999996
endloop
endfacet
facet normal 0.0 0.0 1.0
outer loop
vertex 16.461029790070935 5.650000000000003 8.310999999999996
vertex 14.786449944049863 5.550000000000004 8.310999999999996
vertex 16.015390999752466 2.2250000000000036 8.310999999999996
endloop
endfacet
facet normal 0.0 0.0 1.0
outer loop
vertex 16.461029790070935 5.650000000000003 8.310999999999996
vertex 16.015390999752466 2.2250000000000036 8.310999999999996
vertex 16.12623159537964 2.2250000000000036 8.310999999999996
endloop
endfacet
facet normal 0.0 0.0 1.0
outer loop
vertex 16.461029790070935 5.650000000000003 8.310999999999996
vertex 16.12623159537964 2.2250000000000036 8.310999999999996
vertex 16.55046113803532 5.650000000000003 8.310999999999996
endloop
endfacet
facet normal 0.0 0.0 1.0
outer loop
vertex 16.461029790070935 5.650000000000003 8.310999999999996
vertex 16.55046113803532 5.650000000000003 8.310999999999996
vertex 17.424945408830848 6.375000000000003 8.310999999999996
endloop
endfacet
facet normal 0.0 0.0 1.0
outer loop
vertex 17.424945408830848 6.375000000000003 8.310999999999996
vertex 16.55046113803532 5.650000000000003 8.310999999999996
vertex 17.466539248064496 6.331565726485988 8.310999999999996
endloop
endfacet
facet normal 0.0 0.0 1.0
outer loop
vertex 15.836866243174981 -6.366409246171975 8.310999999999996
vertex 16.699803863039175 -5.649999999999997 8.310999999999996
vertex 15.795272403941356 -6.322974972657933 8.310999999999996
endloop
endfacet
facet normal 0.0 0.0 1.0
outer loop
vertex 16.699803863039175 -5.649999999999997 8.310999999999996
vertex 15.836866243174981 -6.366409246171975 8.310999999999996
vertex 16.800781861934915 -5.64140924617193 8.310999999999996
endloop
endfacet
facet normal 0.0 0.0 1.0
outer loop
vertex 16.699803863039175 -5.649999999999997 8.310999999999996
vertex 16.800781861934915 -5.64140924617193 8.310999999999996
vertex 17.13002666769964 -2.224999999999997 8.310999999999996
endloop
endfacet
facet normal 0.0 0.0 1.0
outer loop
vertex 17.13002666769964 -2.224999999999997 8.310999999999996
vertex 16.800781861934915 -5.64140924617193 8.310999999999996
vertex 17.374781861934913 -5.64140924617193 8.310999999999996
endloop
endfacet
facet normal 0.0 0.0 1.0
outer loop
vertex 17.13002666769964 -2.224999999999997 8.310999999999996
vertex 17.374781861934913 -5.64140924617193 8.310999999999996
vertex 17.230812504977568 -2.224999999999995 8.310999999999996
endloop
endfacet
facet normal 0.0 0.0 1.0
outer loop
vertex 17.230812504977568 -2.224999999999995 8.310999999999996
vertex 17.374781861934913 -5.64140924617193 8.310999999999996
vertex 18.47875740766385 -5.541409246171925 8.310999999999996
endloop
endfacet
facet normal 0.0 0.0 1.0
outer loop
vertex 18.47875740766385 -5.541409246171925 8.310999999999996
vertex 17.374781861934913 -5.64140924617193 8.310999999999996
vertex 18.540359352730146 -5.641409246171937 8.310999999999996
endloop
endfacet
facet normal 0.0 0.0 1.0
outer loop
vertex 18.47875740766385 -5.541409246171925 8.310999999999996
vertex 18.540359352730146 -5.641409246171937 8.310999999999996
vertex 18.827406420103173 -3.060642619322023 8.310999999999996
endloop
endfacet
facet normal 0.0 0.0 1.0
outer loop
vertex 18.827406420103173 -3.060642619322023 8.310999999999996
vertex 18.540359352730146 -5.641409246171937 8.310999999999996
vertex 18.581468746082408 -5.5291097520757315 8.310999999999996
endloop
endfacet
facet normal 0.0 0.0 1.0
outer loop
vertex 18.827406420103173 -3.060642619322023 8.310999999999996
vertex 18.581468746082408 -5.5291097520757315 8.310999999999996
vertex 19.250817508032867 -0.7664458375781097 8.310999999999996
endloop
endfacet
facet normal 0.0 0.0 1.0
outer loop
vertex 18.827406420103173 -3.060642619322023 8.310999999999996
vertex 19.250817508032867 -0.7664458375781097 8.310999999999996
vertex 19.159710460415436 -0.7249999999999954 8.310999999999996
endloop
endfacet
facet normal 0.0 0.0 1.0
outer loop
vertex 19.159710460415436 -0.7249999999999954 8.310999999999996
vertex 19.250817508032867 -0.7664458375781097 8.310999999999996
vertex 19.95758866658029 0.013280425526820487 8.310999999999996
endloop
endfacet
facet normal 0.0 0.0 1.0
outer loop
vertex 19.95758866658029 0.013280425526820487 8.310999999999996
vertex 19.250817508032867 -0.7664458375781097 8.310999999999996
vertex 20.0233082203942 -0.051656578476823777 8.310999999999996
endloop
endfacet
facet normal 0.0 0.0 1.0
outer loop
vertex 16.694555187974437 -0.007990013698115923 8.310999999999996
vertex 18.291836975599043 0.8250000000000044 8.310999999999996
vertex 16.681311302919667 0.039963580615862984 8.310999999999996
endloop
endfacet
facet normal 0.0 0.0 1.0
outer loop
vertex 18.291836975599043 0.8250000000000044 8.310999999999996
vertex 16.694555187974437 -0.007990013698115923 8.310999999999996
vertex 18.224235014656042 0.7250000000000036 8.310999999999996
endloop
endfacet
facet normal 0.0 0.0 1.0
outer loop
vertex 18.291836975599043 0.8250000000000044 8.310999999999996
vertex 18.224235014656042 0.7250000000000036 8.310999999999996
vertex 19.388466765667523 0.7250000000000041 8.310999999999996
endloop
endfacet
facet normal 0.0 0.0 1.0
outer loop
vertex 18.291836975599043 0.8250000000000044 8.310999999999996
vertex 19.388466765667523 0.7250000000000041 8.310999999999996
vertex 19.657388729901516 2.844988377931586 8.310999999999996
endloop
endfacet
facet normal 0.0 0.0 1.0
outer loop
vertex 19.657388729901516 2.844988377931586 8.310999999999996
vertex 19.388466765667523 0.7250000000000041 8.310999999999996
vertex 19.469121435665343 0.7868673193755467 8.310999999999996
endloop
endfacet
facet normal 0.0 0.0 1.0
outer loop
vertex 19.657388729901516 2.844988377931586 8.310999999999996
vertex 19.469121435665343 0.7868673193755467 8.310999999999996
vertex 20.13222718525732 5.505109892761194 8.310999999999996
endloop
endfacet
facet normal 0.0 0.0 1.0
outer loop
vertex 19.657388729901516 2.844988377931586 8.310999999999996
vertex 20.13222718525732 5.505109892761194 8.310999999999996
vertex 20.037553321146685 5.550000000000004 8.310999999999996
endloop
endfacet
facet normal 0.0 0.0 1.0
outer loop
vertex 16.6380381502665 0.06450705140606215 8.310999999999996
vertex 16.681311302919667 0.039963580615862984 8.310999999999996
vertex 17.689002282513968 2.2250000000000036 8.310999999999996
endloop
endfacet
facet normal 0.0 0.0 1.0
outer loop
vertex 16.681311302919667 0.039963580615862984 8.310999999999996
vertex 16.6380381502665 0.06450705140606215 8.310999999999996
vertex 16.670011717184238 -0.05126316635128306 8.310999999999996
endloop
endfacet
facet normal 0.0 0.0 1.0
outer loop
vertex 17.689002282513968 2.2250000000000036 8.310999999999996
vertex 16.681311302919667 0.039963580615862984 8.310999999999996
vertex 17.789788119791893 2.2250000000000045 8.310999999999996
endloop
endfacet
facet normal 0.0 0.0 1.0
outer loop
vertex 17.689002282513968 2.2250000000000036 8.310999999999996
vertex 17.789788119791893 2.2250000000000045 8.310999999999996
vertex 18.11922508717443 5.650000000000003 8.310999999999996
endloop
endfacet
facet normal 0.0 0.0 1.0
outer loop
vertex 18.11922508717443 5.650000000000003 8.310999999999996
vertex 17.789788119791893 2.2250000000000045 8.310999999999996
vertex 20.037553321146685 5.550000000000004 8.310999999999996
endloop
endfacet
facet normal 0.0 0.0 1.0
outer loop
vertex 18.11922508717443 5.650000000000003 8.310999999999996
vertex 20.037553321146685 5.550000000000004 8.310999999999996
vertex 18.219198016853774 5.650000000000003 8.310999999999996
endloop
endfacet
facet normal 0.0 0.0 1.0
outer loop
vertex 18.219198016853774 5.650000000000003 8.310999999999996
vertex 20.037553321146685 5.550000000000004 8.310999999999996
vertex 20.15259016186878 5.650000000000003 8.310999999999996
endloop
endfacet
facet normal 0.0 0.0 1.0
outer loop
vertex 20.15259016186878 5.650000000000003 8.310999999999996
vertex 20.037553321146685 5.550000000000004 8.310999999999996
vertex 20.13222718525732 5.505109892761194 8.310999999999996
endloop
endfacet
facet normal 0.0 0.0 1.0
outer loop
vertex 20.15259016186878 5.650000000000003 8.310999999999996
vertex 20.13222718525732 5.505109892761194 8.310999999999996
vertex 21.47802431683994 6.517338454481823 8.310999999999996
endloop
endfacet
facet normal 0.0 0.0 1.0
outer loop
vertex 20.15259016186878 5.650000000000003 8.310999999999996
vertex 21.47802431683994 6.517338454481823 8.310999999999996
vertex 21.415317645832026 6.589474227731325 8.310999999999996
endloop
endfacet
facet normal 0.0 0.0 1.0
outer loop
vertex 19.95758866658029 0.013280425526820487 8.310999999999996
vertex 19.469121435665343 0.7868673193755467 8.310999999999996
vertex 19.388466765667523 0.7250000000000041 8.310999999999996
endloop
endfacet
facet normal 0.0 0.0 1.0
outer loop
vertex 19.469121435665343 0.7868673193755467 8.310999999999996
vertex 19.95758866658029 0.013280425526820487 8.310999999999996
vertex 20.03237769671293 0.08248306393007784 8.310999999999996
endloop
endfacet
facet normal 0.0 0.0 1.0
outer loop
vertex 20.03237769671293 0.08248306393007784 8.310999999999996
vertex 19.95758866658029 0.013280425526820487 8.310999999999996
vertex 20.0233082203942 -0.051656578476823777 8.310999999999996
endloop
endfacet
facet normal 0.0 0.0 1.0
outer loop
vertex 20.03237769671293 0.08248306393007784 8.310999999999996
vertex 20.0233082203942 -0.051656578476823777 8.310999999999996
vertex 20.61121467883533 -0.786867319375542 8.310999999999996
endloop
endfacet
facet normal 0.0 0.0 1.0
outer loop
vertex 20.03237769671293 0.08248306393007784 8.310999999999996
vertex 20.61121467883533 -0.786867319375542 8.310999999999996
vertex 20.838183366460886 0.828098808484608 8.310999999999996
endloop
endfacet
facet normal 0.0 0.0 1.0
outer loop
vertex 20.838183366460886 0.828098808484608 8.310999999999996
vertex 20.61121467883533 -0.786867319375542 8.310999999999996
vertex 20.834541256607945 -6.374999999999997 8.310999999999996
endloop
endfacet
facet normal 0.0 0.0 1.0
outer loop
vertex 20.838183366460886 0.828098808484608 8.310999999999996
vertex 20.834541256607945 -6.374999999999997 8.310999999999996
vertex 21.0468888402477 -5.8623475836397505 8.310999999999996
endloop
endfacet
facet normal 0.0 0.0 1.0
outer loop
vertex 20.838183366460886 0.828098808484608 8.310999999999996
vertex 21.0468888402477 -5.8623475836397505 8.310999999999996
vertex 21.559541256607943 5.9608268990399385 8.310999999999996
endloop
endfacet
facet normal 0.0 0.0 1.0
outer loop
vertex 21.559541256607943 5.9608268990399385 8.310999999999996
vertex 21.0468888402477 -5.8623475836397505 8.310999999999996
vertex 21.559541256607947 -5.649999999999997 8.310999999999996
endloop
endfacet
facet normal 0.0 0.0 1.0
outer loop
vertex 10.332 -9.499999999999996 8.310999999999996
vertex 11.784625031975484 -6.508117634935261 8.310999999999996
vertex 11.704458743392053 -5.9608268990399305 8.310999999999996
endloop
endfacet
facet normal 0.0 0.0 1.0
outer loop
vertex 11.784625031975484 -6.508117634935261 8.310999999999996
vertex 10.332 -9.499999999999996 8.310999999999996
vertex 11.846494006173804 -6.58088347390328 8.310999999999996
endloop
endfacet
facet normal 0.0 0.0 1.0
outer loop
vertex 11.846494006173804 -6.58088347390328 8.310999999999996
vertex 10.332 -9.499999999999996 8.310999999999996
vertex 12.152787806187929 -6.933234184767191 8.310999999999996
endloop
endfacet
facet normal 0.0 0.0 1.0
outer loop
vertex 12.152787806187929 -6.933234184767191 8.310999999999996
vertex 10.332 -9.499999999999996 8.310999999999996
vertex 12.692538464139458 -7.0914092461719545 8.310999999999996
endloop
endfacet
facet normal 0.0 0.0 1.0
outer loop
vertex 12.692538464139458 -7.0914092461719545 8.310999999999996
vertex 10.332 -9.499999999999996 8.310999999999996
vertex 22.932 -9.499999999999996 8.310999999999996
endloop
endfacet
facet normal 0.0 0.0 1.0
outer loop
vertex 12.692538464139458 -7.0914092461719545 8.310999999999996
vertex 22.932 -9.499999999999996 8.310999999999996
vertex 13.312764008533916 -7.09140924617195 8.310999999999996
endloop
endfacet
facet normal 0.0 0.0 1.0
outer loop
vertex 13.312764008533916 -7.09140924617195 8.310999999999996
vertex 22.932 -9.499999999999996 8.310999999999996
vertex 14.762436113020787 -7.09140924617194 8.310999999999996
endloop
endfacet
facet normal 0.0 0.0 1.0
outer loop
vertex 14.762436113020787 -7.09140924617194 8.310999999999996
vertex 22.932 -9.499999999999996 8.310999999999996
vertex 16.5311459215186 -7.091409246171966 8.310999999999996
endloop
endfacet
facet normal 0.0 0.0 1.0
outer loop
vertex 14.762436113020787 -7.09140924617194 8.310999999999996
vertex 16.5311459215186 -7.091409246171966 8.310999999999996
vertex 15.736893313495672 -6.366409246171965 8.310999999999996
endloop
endfacet
facet normal 0.0 0.0 1.0
outer loop
vertex 15.736893313495672 -6.366409246171965 8.310999999999996
vertex 16.5311459215186 -7.091409246171966 8.310999999999996
vertex 15.836866243174981 -6.366409246171975 8.310999999999996
endloop
endfacet
facet normal 0.0 0.0 1.0
outer loop
vertex 15.736893313495672 -6.366409246171965 8.310999999999996
vertex 15.836866243174981 -6.366409246171975 8.310999999999996
vertex 15.795272403941356 -6.322974972657933 8.310999999999996
endloop
endfacet
facet normal 0.0 0.0 1.0
outer loop
vertex 16.5311459215186 -7.091409246171966 8.310999999999996
vertex 22.932 -9.499999999999996 8.310999999999996
vertex 18.852486656503043 -7.0914092461719775 8.310999999999996
endloop
endfacet
facet normal 0.0 0.0 1.0
outer loop
vertex 18.852486656503043 -7.0914092461719775 8.310999999999996
vertex 22.932 -9.499999999999996 8.310999999999996
vertex 19.311653109890052 -6.9797594969649746 8.310999999999996
endloop
endfacet
facet normal 0.0 0.0 1.0
outer loop
vertex 19.311653109890052 -6.9797594969649746 8.310999999999996
vertex 22.932 -9.499999999999996 8.310999999999996
vertex 19.48997051721864 -6.824750539652451 8.310999999999996
endloop
endfacet
facet normal 0.0 0.0 1.0
outer loop
vertex 19.48997051721864 -6.824750539652451 8.310999999999996
vertex 22.932 -9.499999999999996 8.310999999999996
vertex 19.577126886229813 -6.7240514222768 8.310999999999996
endloop
endfacet
facet normal 0.0 0.0 1.0
outer loop
vertex 19.577126886229813 -6.7240514222768 8.310999999999996
vertex 22.932 -9.499999999999996 8.310999999999996
vertex 19.668287924547222 -6.669741582339954 8.310999999999996
endloop
endfacet
facet normal 0.0 0.0 1.0
outer loop
vertex 19.668287924547222 -6.669741582339954 8.310999999999996
vertex 22.932 -9.499999999999996 8.310999999999996
vertex 19.842754725244596 -6.23058234713203 8.310999999999996
endloop
endfacet
facet normal 0.0 0.0 1.0
outer loop
vertex 19.842754725244596 -6.23058234713203 8.310999999999996
vertex 22.932 -9.499999999999996 8.310999999999996
vertex 19.848009294229247 -6.217355804962275 8.310999999999996
endloop
endfacet
facet normal 0.0 0.0 1.0
outer loop
vertex 19.848009294229247 -6.217355804962275 8.310999999999996
vertex 22.932 -9.499999999999996 8.310999999999996
vertex 21.0468888402477 -6.887652416360243 8.310999999999996
endloop
endfacet
facet normal 0.0 0.0 1.0
outer loop
vertex 19.848009294229247 -6.217355804962275 8.310999999999996
vertex 21.0468888402477 -6.887652416360243 8.310999999999996
vertex 20.834541256607945 -6.374999999999997 8.310999999999996
endloop
endfacet
facet normal 0.0 0.0 1.0
outer loop
vertex 19.848009294229247 -6.217355804962275 8.310999999999996
vertex 20.834541256607945 -6.374999999999997 8.310999999999996
vertex 20.199973653787897 -3.712999257600316 8.310999999999996
endloop
endfacet
facet normal 0.0 0.0 1.0
outer loop
vertex 20.199973653787897 -3.712999257600316 8.310999999999996
vertex 20.834541256607945 -6.374999999999997 8.310999999999996
vertex 20.61121467883533 -0.786867319375542 8.310999999999996
endloop
endfacet
facet normal 0.0 0.0 1.0
outer loop
vertex 21.0468888402477 -6.887652416360243 8.310999999999996
vertex 22.932 -9.499999999999996 8.310999999999996
vertex 21.559541256607947 -7.099999999999997 8.310999999999996
endloop
endfacet
facet normal 0.0 0.0 1.0
outer loop
vertex 21.559541256607947 -7.099999999999997 8.310999999999996
vertex 22.932 -9.499999999999996 8.310999999999996
vertex 22.072193672968194 -6.887652416360243 8.310999999999996
endloop
endfacet
facet normal 0.0 0.0 1.0
outer loop
vertex 22.072193672968194 -6.887652416360243 8.310999999999996
vertex 22.932 -9.499999999999996 8.310999999999996
vertex 22.284541256607945 -6.374999999999997 8.310999999999996
endloop
endfacet
facet normal 0.0 0.0 1.0
outer loop
vertex 10.331999999999999 9.500000000000002 8.310999999999996
vertex 13.95015854211579 6.988350250793006 8.310999999999996
vertex 22.932 9.500000000000002 8.310999999999996
endloop
endfacet
facet normal 0.0 0.0 1.0
outer loop
vertex 13.95015854211579 6.988350250793006 8.310999999999996
vertex 10.331999999999999 9.500000000000002 8.310999999999996
vertex 13.59352372745863 6.6783323361679905 8.310999999999996
endloop
endfacet
facet normal 0.0 0.0 1.0
outer loop
vertex 13.59352372745863 6.6783323361679905 8.310999999999996
vertex 10.331999999999999 9.500000000000002 8.310999999999996
vertex 13.419056926761233 6.239173100960068 8.310999999999996
endloop
endfacet
facet normal 0.0 0.0 1.0
outer loop
vertex 13.419056926761233 6.239173100960068 8.310999999999996
vertex 10.331999999999999 9.500000000000002 8.310999999999996
vertex 10.332 -9.499999999999996 8.310999999999996
endloop
endfacet
facet normal 0.0 0.0 1.0
outer loop
vertex 13.419056926761233 6.239173100960068 8.310999999999996
vertex 10.332 -9.499999999999996 8.310999999999996
vertex 11.704458743392053 -5.9608268990399305 8.310999999999996
endloop
endfacet
facet normal 0.0 0.0 1.0
outer loop
vertex 13.419056926761233 6.239173100960068 8.310999999999996
vertex 11.704458743392053 -5.9608268990399305 8.310999999999996
vertex 12.434481393532193 -0.7664458375781129 8.310999999999996
endloop
endfacet
facet normal 0.0 0.0 1.0
outer loop
vertex 13.419056926761233 6.239173100960068 8.310999999999996
vertex 12.434481393532193 -0.7664458375781129 8.310999999999996
vertex 12.65278532116467 0.7868673193755522 8.310999999999996
endloop
endfacet
facet normal 0.0 0.0 1.0
outer loop
vertex 13.95015854211579 6.988350250793006 8.310999999999996
vertex 13.59352372745863 6.6783323361679905 8.310999999999996
vertex 13.771841134787211 6.8333412934804985 8.310999999999996
endloop
endfacet
facet normal 0.0 0.0 1.0
outer loop
vertex 13.771841134787211 6.8333412934804985 8.310999999999996
vertex 13.59352372745863 6.6783323361679905 8.310999999999996
vertex 13.684684765776021 6.732642176104836 8.310999999999996
endloop
endfacet
facet normal 0.0 0.0 1.0
outer loop
vertex 22.932 9.500000000000002 8.310999999999996
vertex 13.95015854211579 6.988350250793006 8.310999999999996
vertex 14.4093249955028 7.100000000000005 8.310999999999996
endloop
endfacet
facet normal 0.0 0.0 1.0
outer loop
vertex 22.932 9.500000000000002 8.310999999999996
vertex 14.4093249955028 7.100000000000005 8.310999999999996
vertex 16.73066573048726 7.100000000000005 8.310999999999996
endloop
endfacet
facet normal 0.0 0.0 1.0
outer loop
vertex 22.932 9.500000000000002 8.310999999999996
vertex 16.73066573048726 7.100000000000005 8.310999999999996
vertex 18.49937553898506 7.100000000000005 8.310999999999996
endloop
endfacet
facet normal 0.0 0.0 1.0
outer loop
vertex 18.49937553898506 7.100000000000005 8.310999999999996
vertex 16.73066573048726 7.100000000000005 8.310999999999996
vertex 17.424945408830848 6.375000000000003 8.310999999999996
endloop
endfacet
facet normal 0.0 0.0 1.0
outer loop
vertex 18.49937553898506 7.100000000000005 8.310999999999996
vertex 17.424945408830848 6.375000000000003 8.310999999999996
vertex 17.466539248064496 6.331565726485988 8.310999999999996
endloop
endfacet
facet normal 0.0 0.0 1.0
outer loop
vertex 18.49937553898506 7.100000000000005 8.310999999999996
vertex 17.466539248064496 6.331565726485988 8.310999999999996
vertex 17.52491833851019 6.375000000000003 8.310999999999996
endloop
endfacet
facet normal 0.0 0.0 1.0
outer loop
vertex 22.932 9.500000000000002 8.310999999999996
vertex 18.49937553898506 7.100000000000005 8.310999999999996
vertex 20.569273187866372 7.100000000000005 8.310999999999996
endloop
endfacet
facet normal 0.0 0.0 1.0
outer loop
vertex 22.932 9.500000000000002 8.310999999999996
vertex 20.569273187866372 7.100000000000005 8.310999999999996
vertex 21.109023845817887 6.94182493859526 8.310999999999996
endloop
endfacet
facet normal 0.0 0.0 1.0
outer loop
vertex 22.932 9.500000000000002 8.310999999999996
vertex 21.109023845817887 6.94182493859526 8.310999999999996
vertex 21.415317645832026 6.589474227731325 8.310999999999996
endloop
endfacet
facet normal 0.0 0.0 1.0
outer loop
vertex 22.932 9.500000000000002 8.310999999999996
vertex 21.415317645832026 6.589474227731325 8.310999999999996
vertex 21.47802431683994 6.517338454481823 8.310999999999996
endloop
endfacet
facet normal 0.0 0.0 1.0
outer loop
vertex 22.932 9.500000000000002 8.310999999999996
vertex 21.47802431683994 6.517338454481823 8.310999999999996
vertex 21.559541256607943 5.9608268990399385 8.310999999999996
endloop
endfacet
facet normal 0.0 0.0 1.0
outer loop
vertex 22.932 9.500000000000002 8.310999999999996
vertex 21.559541256607943 5.9608268990399385 8.310999999999996
vertex 21.559541256607947 -5.649999999999997 8.310999999999996
endloop
endfacet
facet normal 0.0 0.0 1.0
outer loop
vertex 22.932 9.500000000000002 8.310999999999996
vertex 21.559541256607947 -5.649999999999997 8.310999999999996
vertex 22.072193672968194 -5.8623475836397505 8.310999999999996
endloop
endfacet
facet normal 0.0 0.0 1.0
outer loop
vertex 22.932 9.500000000000002 8.310999999999996
vertex 22.072193672968194 -5.8623475836397505 8.310999999999996
vertex 22.284541256607945 -6.374999999999997 8.310999999999996
endloop
endfacet
facet normal 0.0 0.0 1.0
outer loop
vertex 22.932 9.500000000000002 8.310999999999996
vertex 22.284541256607945 -6.374999999999997 8.310999999999996
vertex 22.932 -9.499999999999996 8.310999999999996
endloop
endfacet
facet normal 0.0 0.0 1.0
outer loop
vertex 19.577126886229813 -6.7240514222768 8.310999999999996
vertex 18.581468746082408 -5.5291097520757315 8.310999999999996
vertex 18.540359352730146 -5.641409246171937 8.310999999999996
endloop
endfacet
facet normal 0.0 0.0 1.0
outer loop
vertex 18.581468746082408 -5.5291097520757315 8.310999999999996
vertex 19.577126886229813 -6.7240514222768 8.310999999999996
vertex 19.668287924547222 -6.669741582339954 8.310999999999996
endloop
endfacet
facet normal 0.0 0.0 1.0
outer loop
vertex 16.670011717184238 -0.05126316635128306 8.310999999999996
vertex 16.694555187974437 -0.007990013698115923 8.310999999999996
vertex 16.681311302919667 0.039963580615862984 8.310999999999996
endloop
endfacet
facet normal 0.0 0.0 1.0
outer loop
vertex 16.694555187974437 -0.007990013698115923 8.310999999999996
vertex 16.670011717184238 -0.05126316635128306 8.310999999999996
vertex 17.98614751508971 -0.8249999999999957 8.310999999999996
endloop
endfacet
facet normal 0.0 0.0 1.0
outer loop
vertex 16.694555187974437 -0.007990013698115923 8.310999999999996
vertex 17.98614751508971 -0.8249999999999957 8.310999999999996
vertex 17.948518115035213 -0.7249999999999958 8.310999999999996
endloop
endfacet
facet normal 0.0 0.0 1.0
outer loop
vertex 17.948518115035213 -0.7249999999999958 8.310999999999996
vertex 17.98614751508971 -0.8249999999999957 8.310999999999996
vertex 19.159710460415436 -0.7249999999999954 8.310999999999996
endloop
endfacet
facet normal 0.0 0.0 1.0
outer loop
vertex 19.159710460415436 -0.7249999999999954 8.310999999999996
vertex 17.98614751508971 -0.8249999999999957 8.310999999999996
vertex 18.827406420103173 -3.060642619322023 8.310999999999996
endloop
endfacet
facet normal 0.0 0.0 1.0
outer loop
vertex 18.11922508717443 5.650000000000003 8.310999999999996
vertex 17.52491833851019 6.375000000000003 8.310999999999996
vertex 17.466539248064496 6.331565726485988 8.310999999999996
endloop
endfacet
facet normal 0.0 0.0 1.0
outer loop
vertex 17.52491833851019 6.375000000000003 8.310999999999996
vertex 18.11922508717443 5.650000000000003 8.310999999999996
vertex 18.219198016853774 5.650000000000003 8.310999999999996
endloop
endfacet
facet normal 0.0 0.0 1.0
outer loop
vertex 16.590084555952522 0.05126316635129082 8.310999999999996
vertex 16.12623159537964 2.2250000000000036 8.310999999999996
vertex 16.015390999752466 2.2250000000000036 8.310999999999996
endloop
endfacet
facet normal 0.0 0.0 1.0
outer loop
vertex 16.12623159537964 2.2250000000000036 8.310999999999996
vertex 16.590084555952522 0.05126316635129082 8.310999999999996
vertex 16.6380381502665 0.06450705140606215 8.310999999999996
endloop
endfacet
facet normal 0.0 0.0 1.0
outer loop
vertex 16.6380381502665 0.06450705140606215 8.310999999999996
vertex 16.590084555952522 0.05126316635129082 8.310999999999996
vertex 16.62205812287026 -0.0645070514060544 8.310999999999996
endloop
endfacet
facet normal 0.0 0.0 1.0
outer loop
vertex 16.6380381502665 0.06450705140606215 8.310999999999996
vertex 16.62205812287026 -0.0645070514060544 8.310999999999996
vertex 17.13002666769964 -2.224999999999997 8.310999999999996
endloop
endfacet
facet normal 0.0 0.0 1.0
outer loop
vertex 16.6380381502665 0.06450705140606215 8.310999999999996
vertex 17.13002666769964 -2.224999999999997 8.310999999999996
vertex 16.670011717184238 -0.05126316635128306 8.310999999999996
endloop
endfacet
facet normal 0.0 0.0 1.0
outer loop
vertex 16.670011717184238 -0.05126316635128306 8.310999999999996
vertex 17.13002666769964 -2.224999999999997 8.310999999999996
vertex 17.230812504977568 -2.224999999999995 8.310999999999996
endloop
endfacet
facet normal 0.0 0.0 1.0
outer loop
vertex 13.22765403056703 -5.541409246171964 8.310999999999996
vertex 13.794878564334658 -0.7868673193755387 8.310999999999996
vertex 13.133381541808994 -5.49366320490193 8.310999999999996
endloop
endfacet
facet normal 0.0 0.0 1.0
outer loop
vertex 13.794878564334658 -0.7868673193755387 8.310999999999996
vertex 13.22765403056703 -5.541409246171964 8.310999999999996
vertex 13.608691827281767 -2.8301844443439665 8.310999999999996
endloop
endfacet
facet normal 0.0 0.0 1.0
outer loop
vertex 13.794878564334658 -0.7868673193755387 8.310999999999996
vertex 13.608691827281767 -2.8301844443439665 8.310999999999996
vertex 14.960965134809937 -0.8249999999999968 8.310999999999996
endloop
endfacet
facet normal 0.0 0.0 1.0
outer loop
vertex 13.794878564334658 -0.7868673193755387 8.310999999999996
vertex 14.960965134809937 -0.8249999999999968 8.310999999999996
vertex 13.875533234332481 -0.7249999999999969 8.310999999999996
endloop
endfacet
facet normal 0.0 0.0 1.0
outer loop
vertex 13.875533234332481 -0.7249999999999969 8.310999999999996
vertex 14.960965134809937 -0.8249999999999968 8.310999999999996
vertex 15.028403983706985 -0.7249999999999966 8.310999999999996
endloop
endfacet
facet normal 0.0 0.0 1.0
outer loop
vertex 15.028403983706985 -0.7249999999999966 8.310999999999996
vertex 14.960965134809937 -0.8249999999999968 8.310999999999996
vertex 16.578784970217093 -0.039963580615855226 8.310999999999996
endloop
endfacet
facet normal 0.0 0.0 1.0
outer loop
vertex 15.028403983706985 -0.7249999999999966 8.310999999999996
vertex 16.578784970217093 -0.039963580615855226 8.310999999999996
vertex 16.565541085162323 0.007990013698123685 8.310999999999996
endloop
endfacet
facet normal 0.0 0.0 1.0
outer loop
vertex 11.846494006173804 -6.58088347390328 8.310999999999996
vertex 12.262495037132592 -6.148692238151435 8.310999999999996
vertex 11.784625031975484 -6.508117634935261 8.310999999999996
endloop
endfacet
facet normal 0.0 0.0 1.0
outer loop
vertex 12.262495037132592 -6.148692238151435 8.310999999999996
vertex 11.846494006173804 -6.58088347390328 8.310999999999996
vertex 11.944297034768262 -6.508117634935261 8.310999999999996
endloop
endfacet
facet normal 0.0 0.0 1.0
outer loop
vertex 12.262495037132592 -6.148692238151435 8.310999999999996
vertex 11.944297034768262 -6.508117634935261 8.310999999999996
vertex 13.109221490137045 -5.641409246171967 8.310999999999996
endloop
endfacet
facet normal 0.0 0.0 1.0
outer loop
vertex 12.262495037132592 -6.148692238151435 8.310999999999996
vertex 13.109221490137045 -5.641409246171967 8.310999999999996
vertex 13.129584466748529 -5.496519138933147 8.310999999999996
endloop
endfacet
facet normal 0.0 0.0 1.0
outer loop
vertex 13.129584466748529 -5.496519138933147 8.310999999999996
vertex 13.109221490137045 -5.641409246171967 8.310999999999996
vertex 13.395159847735531 -5.641409246171964 8.310999999999996
endloop
endfacet
facet normal 0.0 0.0 1.0
outer loop
vertex 13.129584466748529 -5.496519138933147 8.310999999999996
vertex 13.395159847735531 -5.641409246171964 8.310999999999996
vertex 13.133381541808994 -5.49366320490193 8.310999999999996
endloop
endfacet
facet normal 0.0 0.0 1.0
outer loop
vertex 13.133381541808994 -5.49366320490193 8.310999999999996
vertex 13.395159847735531 -5.641409246171964 8.310999999999996
vertex 13.22765403056703 -5.541409246171964 8.310999999999996
endloop
endfacet
facet normal 0.0 0.0 1.0
outer loop
vertex 13.22765403056703 -5.541409246171964 8.310999999999996
vertex 13.395159847735531 -5.641409246171964 8.310999999999996
vertex 15.464202250900561 -2.224999999999997 8.310999999999996
endloop
endfacet
facet normal 0.0 0.0 1.0
outer loop
vertex 15.464202250900561 -2.224999999999997 8.310999999999996
vertex 13.395159847735531 -5.641409246171964 8.310999999999996
vertex 13.84415984773553 -5.6414092461719605 8.310999999999996
endloop
endfacet
facet normal 0.0 0.0 1.0
outer loop
vertex 15.464202250900561 -2.224999999999997 8.310999999999996
vertex 13.84415984773553 -5.6414092461719605 8.310999999999996
vertex 15.042613635152073 -5.641409246171952 8.310999999999996
endloop
endfacet
facet normal 0.0 0.0 1.0
outer loop
vertex 15.464202250900561 -2.224999999999997 8.310999999999996
vertex 15.042613635152073 -5.641409246171952 8.310999999999996
vertex 15.150813303872052 -5.649999999999997 8.310999999999996
endloop
endfacet
facet normal 0.0 0.0 1.0
outer loop
vertex 15.464202250900561 -2.224999999999997 8.310999999999996
vertex 15.150813303872052 -5.649999999999997 8.310999999999996
vertex 15.152088931930242 -5.63970126862935 8.310999999999996
endloop
endfacet
facet normal 0.0 0.0 1.0
outer loop
vertex 15.464202250900561 -2.224999999999997 8.310999999999996
vertex 15.152088931930242 -5.63970126862935 8.310999999999996
vertex 15.153441088094542 -5.628784690699094 8.310999999999996
endloop
endfacet
facet normal 0.0 0.0 1.0
outer loop
vertex 15.464202250900561 -2.224999999999997 8.310999999999996
vertex 15.153441088094542 -5.628784690699094 8.310999999999996
vertex 15.575042846527735 -2.224999999999997 8.310999999999996
endloop
endfacet
facet normal 0.0 0.0 1.0
outer loop
vertex 15.464202250900561 -2.224999999999997 8.310999999999996
vertex 15.575042846527735 -2.224999999999997 8.310999999999996
vertex 16.578784970217093 -0.039963580615855226 8.310999999999996
endloop
endfacet
facet normal 0.0 0.0 1.0
outer loop
vertex 16.578784970217093 -0.039963580615855226 8.310999999999996
vertex 15.575042846527735 -2.224999999999997 8.310999999999996
vertex 16.62205812287026 -0.0645070514060544 8.310999999999996
endloop
endfacet
facet normal 0.0 0.0 1.0
outer loop
vertex 16.578784970217093 -0.039963580615855226 8.310999999999996
vertex 16.62205812287026 -0.0645070514060544 8.310999999999996
vertex 16.590084555952522 0.05126316635129082 8.310999999999996
endloop
endfacet
facet normal 0.0 0.0 1.0
outer loop
vertex 15.290458194442357 0.7250000000000032 8.310999999999996
vertex 14.43400295064063 3.0422093343505963 8.310999999999996
vertex 14.104289539584567 0.7250000000000026 8.310999999999996
endloop
endfacet
facet normal 0.0 0.0 1.0
outer loop
vertex 14.43400295064063 3.0422093343505963 8.310999999999996
vertex 15.290458194442357 0.7250000000000032 8.310999999999996
vertex 15.253497561188142 0.8250000000000033 8.310999999999996
endloop
endfacet
facet normal 0.0 0.0 1.0
outer loop
vertex 15.253497561188142 0.8250000000000033 8.310999999999996
vertex 15.290458194442357 0.7250000000000032 8.310999999999996
vertex 16.590084555952522 0.05126316635129082 8.310999999999996
endloop
endfacet
facet normal 0.0 0.0 1.0
outer loop
vertex 16.590084555952522 0.05126316635129082 8.310999999999996
vertex 15.290458194442357 0.7250000000000032 8.310999999999996
vertex 16.565541085162323 0.007990013698123685 8.310999999999996
endloop
endfacet
facet normal 0.0 0.0 1.0
outer loop
vertex 16.590084555952522 0.05126316635129082 8.310999999999996
vertex 16.565541085162323 0.007990013698123685 8.310999999999996
vertex 16.578784970217093 -0.039963580615855226 8.310999999999996
endloop
endfacet
facet normal 0.7071067811865476 0.7071067811865476 0.0
outer loop
vertex 21.0468888402477 -6.887652416360243 8.310999999999996
vertex 21.559541256607947 -7.099999999999997 8.0
vertex 21.0468888402477 -6.887652416360243 8.0
endloop
endfacet
facet normal 0.0 0.9999999999999999 0.0
outer loop
vertex 21.559541256607947 -7.099999999999997 8.0
vertex 21.0468888402477 -6.887652416360243 8.310999999999996
vertex 21.559541256607947 -7.099999999999997 8.310999999999996
endloop
endfacet
facet normal -0.7071067811865476 -0.7071067811865476 0.0
outer loop
vertex 22.072193672968194 -5.8623475836397505 8.310999999999996
vertex 21.559541256607947 -5.649999999999997 8.0
vertex 22.072193672968194 -5.8623475836397505 8.0
endloop
endfacet
facet normal 0.0 -0.9999999999999999 0.0
outer loop
vertex 21.559541256607947 -5.649999999999997 8.0
vertex 22.072193672968194 -5.8623475836397505 8.310999999999996
vertex 21.559541256607947 -5.649999999999997 8.310999999999996
endloop
endfacet
facet normal -0.9902680687415704 0.13917310096006558 0.0
outer loop
vertex 21.559541256607943 5.9608268990399385 8.310999999999996
vertex 20.838183366460886 0.828098808484608 8.0
vertex 20.838183366460886 0.828098808484608 8.310999999999996
endloop
endfacet
facet normal -0.9902680687415704 0.13917310096006558 0.0
outer loop
vertex 20.838183366460886 0.828098808484608 8.0
vertex 21.559541256607943 5.9608268990399385 8.310999999999996
vertex 21.559541256607943 5.9608268990399385 8.0
endloop
endfacet
facet normal -0.6791624816016814 0.7339879587463582 0.0
outer loop
vertex 20.03237769671293 0.08248306393007784 8.310999999999996
vertex 20.838183366460886 0.828098808484608 8.0
vertex 20.03237769671293 0.08248306393007784 8.0
endloop
endfacet
facet normal -0.6791624816016814 0.7339879587463582 0.0
outer loop
vertex 20.838183366460886 0.828098808484608 8.0
vertex 20.03237769671293 0.08248306393007784 8.310999999999996
vertex 20.838183366460886 0.828098808484608 8.310999999999996
endloop
endfacet
facet normal 0.0 0.9999999999999999 0.0
outer loop
vertex 21.559541256607947 -7.099999999999997 8.310999999999996
vertex 22.072193672968194 -6.887652416360243 8.0
vertex 21.559541256607947 -7.099999999999997 8.0
endloop
endfacet
facet normal -0.7071067811865476 0.7071067811865476 0.0
outer loop
vertex 22.072193672968194 -6.887652416360243 8.0
vertex 21.559541256607947 -7.099999999999997 8.310999999999996
vertex 22.072193672968194 -6.887652416360243 8.310999999999996
endloop
endfacet
facet normal 0.929347524226824 -0.3692061473126809 0.0
outer loop
vertex 13.59352372745863 6.6783323361679905 8.0
vertex 13.419056926761233 6.239173100960068 8.310999999999996
vertex 13.419056926761233 6.239173100960068 8.0
endloop
endfacet
facet normal 0.929347524226824 -0.3692061473126809 0.0
outer loop
vertex 13.419056926761233 6.239173100960068 8.310999999999996
vertex 13.59352372745863 6.6783323361679905 8.0
vertex 13.59352372745863 6.6783323361679905 8.310999999999996
endloop
endfacet
facet normal -0.9999999999999999 0.0 0.0
outer loop
vertex 22.284541256607945 -6.374999999999997 8.310999999999996
vertex 22.072193672968194 -6.887652416360243 8.0
vertex 22.072193672968194 -6.887652416360243 8.310999999999996
endloop
endfacet
facet normal -0.7071067811865476 0.7071067811865476 0.0
outer loop
vertex 22.072193672968194 -6.887652416360243 8.0
vertex 22.284541256607945 -6.374999999999997 8.310999999999996
vertex 22.284541256607945 -6.374999999999997 8.0
endloop
endfacet
facet normal -0.7071067811865476 -0.7071067811865476 0.0
outer loop
vertex 22.072193672968194 -5.8623475836397505 8.310999999999996
vertex 22.284541256607945 -6.374999999999997 8.0
vertex 22.284541256607945 -6.374999999999997 8.310999999999996
endloop
endfacet
facet normal -0.9999999999999999 0.0 0.0
outer loop
vertex 22.284541256607945 -6.374999999999997 8.0
vertex 22.072193672968194 -5.8623475836397505 8.310999999999996
vertex 22.072193672968194 -5.8623475836397505 8.0
endloop
endfacet
facet normal -0.6791624816016826 0.7339879587463572 0.0
outer loop
vertex 13.240691779605802 0.051656578476832596 8.310999999999996
vertex 14.013182491967136 0.7664458375781207 8.0
vertex 13.240691779605802 0.051656578476832596 8.0
endloop
endfacet
facet normal -0.6791624816016826 0.7339879587463572 0.0
outer loop
vertex 14.013182491967136 0.7664458375781207 8.0
vertex 13.240691779605802 0.051656578476832596 8.310999999999996
vertex 14.013182491967136 0.7664458375781207 8.310999999999996
endloop
endfacet
facet normal 0.9902680687415703 -0.139173100960065 0.0
outer loop
vertex 20.13222718525732 5.505109892761194 8.0
vertex 19.469121435665343 0.7868673193755467 8.310999999999996
vertex 19.469121435665343 0.7868673193755467 8.0
endloop
endfacet
facet normal 0.9902680687415703 -0.139173100960065 0.0
outer loop
vertex 19.469121435665343 0.7868673193755467 8.310999999999996
vertex 20.13222718525732 5.505109892761194 8.0
vertex 20.13222718525732 5.505109892761194 8.310999999999996
endloop
endfacet
facet normal 0.7071067811865476 -0.7071067811865476 0.0
outer loop
vertex 21.0468888402477 -5.8623475836397505 8.0
vertex 20.834541256607945 -6.374999999999997 8.310999999999996
vertex 20.834541256607945 -6.374999999999997 8.0
endloop
endfacet
facet normal 0.9999999999999999 0.0 0.0
outer loop
vertex 20.834541256607945 -6.374999999999997 8.310999999999996
vertex 21.0468888402477 -5.8623475836397505 8.0
vertex 21.0468888402477 -5.8623475836397505 8.310999999999996
endloop
endfacet
facet normal 0.9999999999999999 0.0 0.0
outer loop
vertex 20.834541256607945 -6.374999999999997 8.0
vertex 21.0468888402477 -6.887652416360243 8.310999999999996
vertex 21.0468888402477 -6.887652416360243 8.0
endloop
endfacet
facet normal 0.7071067811865476 0.7071067811865476 0.0
outer loop
vertex 21.0468888402477 -6.887652416360243 8.310999999999996
vertex 20.834541256607945 -6.374999999999997 8.0
vertex 20.834541256607945 -6.374999999999997 8.310999999999996
endloop
endfacet
facet normal 0.0 -0.9999999999999999 0.0
outer loop
vertex 21.559541256607947 -5.649999999999997 8.310999999999996
vertex 21.0468888402477 -5.8623475836397505 8.0
vertex 21.559541256607947 -5.649999999999997 8.0
endloop
endfacet
facet normal 0.7071067811865476 -0.7071067811865476 0.0
outer loop
vertex 21.0468888402477 -5.8623475836397505 8.0
vertex 21.559541256607947 -5.649999999999997 8.310999999999996
vertex 21.0468888402477 -5.8623475836397505 8.310999999999996
endloop
endfacet
facet normal -0.9902680687415703 0.13917310096006535 0.0
outer loop
vertex 14.683302122492453 5.534594766993265 8.310999999999996
vertex 14.013182491967136 0.7664458375781207 8.0
vertex 14.013182491967136 0.7664458375781207 8.310999999999996
endloop
endfacet
facet normal -0.9902680687415703 0.13917310096006535 0.0
outer loop
vertex 14.013182491967136 0.7664458375781207 8.0
vertex 14.683302122492453 5.534594766993265 8.310999999999996
vertex 14.683302122492453 5.534594766993265 8.0
endloop
endfacet
facet normal 0.6010942612727077 -0.7991781335002967 0.0
outer loop
vertex 21.47802431683994 6.517338454481823 8.310999999999996
vertex 20.13222718525732 5.505109892761194 8.0
vertex 21.47802431683994 6.517338454481823 8.0
endloop
endfacet
facet normal 0.6010942612727077 -0.7991781335002967 0.0
outer loop
vertex 20.13222718525732 5.505109892761194 8.0
vertex 21.47802431683994 6.517338454481823 8.310999999999996
vertex 20.13222718525732 5.505109892761194 8.310999999999996
endloop
endfacet
endsolid Starburst
