solid Starburst
facet normal -0.0 -0.0 1.0
outer loop
vertex 17.230812504977568 -2.224999999999995 8.0
vertex 17.98614751508971 -0.8249999999999957 8.0
vertex 16.670011717184238 -0.05126316635128306 8.0
endloop
endfacet
facet normal -0.0 -0.0 1.0
outer loop
vertex 17.98614751508971 -0.8249999999999957 8.0
vertex 17.230812504977568 -2.224999999999995 8.0
vertex 18.47875740766385 -5.541409246171925 8.0
endloop
endfacet
facet normal -0.0 -0.0 1.0
outer loop
vertex 17.98614751508971 -0.8249999999999957 8.0
vertex 18.47875740766385 -5.541409246171925 8.0
vertex 18.827406420103173 -3.060642619322023 8.0
endloop
endfacet
endsolid Starburst
