solid Starburst
facet normal -0.0 -0.0 1.0
outer loop
vertex 18.291836975599043 0.8250000000000044 8.0
vertex 17.789788119791893 2.2250000000000045 8.0
vertex 16.681311302919667 0.039963580615862984 8.0
endloop
endfacet
facet normal -0.0 -0.0 1.0
outer loop
vertex 17.789788119791893 2.2250000000000045 8.0
vertex 18.291836975599043 0.8250000000000044 8.0
vertex 20.037553321146685 5.550000000000004 8.0
endloop
endfacet
facet normal -0.0 -0.0 1.0
outer loop
vertex 20.037553321146685 5.550000000000004 8.0
vertex 18.291836975599043 0.8250000000000044 8.0
vertex 19.657388729901516 2.844988377931586 8.0
endloop
endfacet
endsolid Starburst
