# Alias Wavefront OBJ File Exported from SketchUp
# with OBJexporter (c) 2013 TIG
# Units = meters

mtllib Starburst_l.mtl

g Starburst-SKP-Default_Material
usemtl Default_Material
v 15.7952724039 8 6.32297497266
v 15.1520889319 8 5.63970126863
v 15.1508133039 8 5.65
v 15.1534410881 8 5.6287846907
v 15.5750428465 8 2.225
v 16.6220581229 8 0.0645070514061
v 16.699803863 8 5.65
v 17.1300266677 8 2.225
vt 621.861118265 -248.936022546
vt 596.538934328 -222.035483017
vt 596.488712751 -222.440944882
vt 596.592168823 -221.605696484
vt 613.190663249 -87.5984251969
vt 654.411737121 -2.53964769315
vt 657.472593033 -222.440944882
vt 674.410498728 -87.5984251969
vn 0 1 0
f 1/1/1 2/2/1 3/3/1
f 2/2/1 1/1/1 4/4/1
f 4/4/1 1/1/1 5/5/1
f 5/5/1 1/1/1 6/6/1
f 6/6/1 1/1/1 7/7/1
f 6/6/1 7/7/1 8/8/1

#EOF
