solid Starburst
facet normal -0.0 -0.0 1.0
outer loop
vertex 15.253497561188142 0.8250000000000033 8.0
vertex 14.786449944049863 5.550000000000004 8.0
vertex 14.43400295064063 3.0422093343505963 8.0
endloop
endfacet
facet normal -0.0 -0.0 1.0
outer loop
vertex 14.786449944049863 5.550000000000004 8.0
vertex 15.253497561188142 0.8250000000000033 8.0
vertex 16.015390999752466 2.2250000000000036 8.0
endloop
endfacet
facet normal -0.0 -0.0 1.0
outer loop
vertex 16.015390999752466 2.2250000000000036 8.0
vertex 15.253497561188142 0.8250000000000033 8.0
vertex 16.590084555952522 0.05126316635129082 8.0
endloop
endfacet
endsolid Starburst
