# Alias Wavefront OBJ File Exported from SketchUp
# with OBJexporter (c) 2013 TIG
# Units = meters

mtllib Starburst_e.mtl

g Starburst-SKP-Default_Material
usemtl Default_Material
v 11.784625032 8 6.50811763494
v 12.4344813935 8 0.766445837578
v 11.7044587434 8 5.96082689904
v 12.2624950371 8 6.14869223815
v 13.1295844667 8 5.49651913893
v 13.2069721059 8 0.0516565784768
v 13.1333815418 8 5.4936632049
v 13.7948785643 8 0.786867319376
vt 463.961615432 -256.225103738
vt 489.546511556 -30.1750329755
vt 460.805462338 -234.678224372
vt 482.775395163 -242.074497565
vt 516.912774281 -216.398391297
vt 519.959531728 -2.03372356208
vt 517.062265426 -216.285952949
vt 543.105455289 -30.9790283219
vn 0 1 0
f 1/1/1 2/2/1 3/3/1
f 2/2/1 1/1/1 4/4/1
f 2/2/1 4/4/1 5/5/1
f 2/2/1 5/5/1 6/6/1
f 6/6/1 5/5/1 7/7/1
f 6/6/1 7/7/1 8/8/1

#EOF
