# Alias Wavefront OBJ File Exported from SketchUp
# with OBJexporter (c) 2013 TIG
# Units = meters

mtllib Starburst_b.mtl

g Starburst-SKP-Default_Material
usemtl Default_Material
v 20.0323776967 8 -0.0824830639301
v 20.1322271853 8 -5.50510989276
v 19.4691214357 8 -0.786867319376
v 20.8381833665 8 -0.828098808485
v 21.4780243168 8 -6.51733845448
v 21.5595412566 8 -5.96082689904
vt 788.676287272 3.24736472166
vt 792.607369498 216.736609951
vt 766.500843924 30.9790283219
vt 820.400919939 32.6023152947
vt 845.591508537 256.588128129
vt 848.800836874 234.678224372
vn 0 1 0
f 1/1/1 2/2/1 3/3/1
f 2/2/1 1/1/1 4/4/1
f 2/2/1 4/4/1 5/5/1
f 5/5/1 4/4/1 6/6/1

#EOF
