# Alias Wavefront OBJ File Exported from SketchUp
# with OBJexporter (c) 2013 TIG
# Units = meters

mtllib Starburst_a1.mtl

g Starburst-SKP-Default_Material
usemtl Default_Material
v 14.7214522993 8 -5.65
v 13.7718411348 8 -6.83334129348
v 13.6846847658 8 -6.7326421761
v 13.9501585421 8 -6.98835025079
v 14.4093249955 8 -7.1
v 16.7306657305 8 -7.1
v 16.4610297901 8 -5.65
v 17.4249454088 8 -6.375
vt 579.584736192 222.440944882
vt 542.198469874 269.029184783
vt 538.767116763 265.064652603
vt 549.218840241 275.131899638
vt 567.296259665 279.527559055
vt 658.687627185 279.527559055
vt 648.072038979 222.440944882
vt 686.021472789 250.984251969
vn 0 1 0
f 1/1/1 2/2/1 3/3/1
f 2/2/1 1/1/1 4/4/1
f 4/4/1 1/1/1 5/5/1
f 5/5/1 1/1/1 6/6/1
f 6/6/1 1/1/1 7/7/1
f 6/6/1 7/7/1 8/8/1

#EOF
