<?xml version="1.0" encoding="UTF-8" standalone="no"?>
<!-- Created with Inkscape (http://www.inkscape.org/) -->

<svg width="210mm" height="297mm" viewBox="0 0 210 297" version="1.1" id="svg5" sodipodi:docname="LED Type SMD Green On.svg" inkscape:version="1.1.2 (b8e25be833, 2022-02-05)" xmlns:inkscape="http://www.inkscape.org/namespaces/inkscape" xmlns:sodipodi="http://sodipodi.sourceforge.net/DTD/sodipodi-0.dtd" xmlns="http://www.w3.org/2000/svg" xmlns:svg="http://www.w3.org/2000/svg" xmlns:rdf="http://www.w3.org/1999/02/22-rdf-syntax-ns#" xmlns:cc="http://creativecommons.org/ns#" xmlns:dc="http://purl.org/dc/elements/1.1/">
  <sodipodi:namedview id="namedview3491" pagecolor="#ffffff" bordercolor="#666666" borderopacity="1.0" inkscape:pageshadow="2" inkscape:pageopacity="0.0" inkscape:pagecheckerboard="0" inkscape:document-units="mm" showgrid="false" inkscape:zoom="0.74920735" inkscape:cx="348.36818" inkscape:cy="492.52053" inkscape:window-width="1920" inkscape:window-height="1027" inkscape:window-x="-8" inkscape:window-y="-8" inkscape:window-maximized="1" inkscape:current-layer="svg5" />
  <title id="title2147">led</title>
  <defs id="defs2" />
  <ellipse style="fill:#00ff00;fill-rule:evenodd;stroke-width:0.264583" id="path826" cx="106.19736" cy="124.50919" rx="50.680206" ry="48.876606" />
  <path style="fill:none;stroke:#000000;stroke-width:0.255943px;stroke-linecap:butt;stroke-linejoin:miter;stroke-opacity:1" d="m 171.54543,171.66268 v 0 L 161.30776,66.668017 40.84929,60.210696 l 0.634845,126.417324 83.994135,2.17967 v 0" id="path978" />
  <path style="fill:#502d16;stroke:#000000;stroke-width:0.264583px;stroke-linecap:butt;stroke-linejoin:miter;stroke-opacity:1" d="m 125.47827,188.80769 46.06716,-18.32209 v 0" id="path980" />
  <path style="fill:#917c6f;stroke:#000000;stroke-width:0.256397px;stroke-linecap:butt;stroke-linejoin:miter;stroke-opacity:1" d="m 40.84929,60.210696 -0.34435,0.520298 0.577464,132.752486 v 0 l -0.01614,2.81116 v 0 0" id="path982" />
  <path style="fill:none;stroke:#000000;stroke-width:0.264583px;stroke-linecap:butt;stroke-linejoin:miter;stroke-opacity:1" d="m 125.47827,188.80769 -0.4254,3.96307 v 0" id="path984" />
  <path style="fill:none;stroke:#000000;stroke-width:0.264583px;stroke-linecap:butt;stroke-linejoin:miter;stroke-opacity:1" d="m 125.05287,192.77076 48.0714,1.3497 -1.78203,6.79192 -130.275976,-4.61774 v 0" id="path986" />
  <path style="fill:none;stroke:#000000;stroke-width:0.264583px;stroke-linecap:butt;stroke-linejoin:miter;stroke-opacity:1" d="m 171.54543,170.4856 1.57884,23.63486 v 0" id="path988" />
  <path style="fill:#ac9d93;stroke:#000000;stroke-width:0.264583px;stroke-linecap:butt;stroke-linejoin:miter;stroke-opacity:1" d="m 125.05287,192.77076 46.53811,-18.21688 v 0" id="path990" />
  <path style="fill:none;stroke:#000000;stroke-width:0.264583px;stroke-linecap:butt;stroke-linejoin:miter;stroke-opacity:1" d="m 41.066264,196.29464 0.41787,-9.81626 v 0" id="path992" />
  <path style="fill:#f9f9f9;stroke-width:0.12636" d="m 144.89212,199.79311 c -13.72624,-0.49484 -42.64139,-1.52528 -64.255873,-2.28988 -21.614485,-0.76459 -39.315916,-1.40477 -39.336512,-1.42262 -0.04025,-0.0349 0.354994,-9.33143 0.398767,-9.37944 0.05071,-0.0556 83.495278,2.27724 83.535948,2.33543 0.0126,0.0181 -0.0631,0.84398 -0.16841,1.83528 -0.13868,1.3057 -0.15327,1.84046 -0.053,1.94061 0.16013,0.15989 -0.30367,0.1443 27.39306,0.92037 11.18943,0.31352 20.36624,0.59113 20.39292,0.61689 0.0446,0.0431 -1.21902,5.01891 -1.51445,5.96369 -0.12419,0.39714 -0.15013,0.41024 -0.78206,0.39507 -0.35947,-0.009 -11.88416,-0.42056 -25.61041,-0.9154 z" id="path1471" />
  <metadata id="metadata2145">
    <rdf:RDF>
      <cc:Work rdf:about="">
        <dc:title>led</dc:title>
      </cc:Work>
    </rdf:RDF>
  </metadata>
  <path style="fill:#ac9d93;stroke-width:5.09515" d="m 474.65863,721.08128 c 0.46835,-3.11218 1.22522,-6.03432 1.68194,-6.49365 0.77899,-0.78344 169.00825,-67.90417 170.19285,-67.90417 0.30173,0 0.76127,2.67379 1.02117,5.94177 l 0.47258,5.94177 -80.7565,31.59441 c -44.41607,17.37692 -83.61559,32.7158 -87.11003,34.08639 l -6.35355,2.49199 z" id="path3615" transform="scale(0.26458333)" />
  <path style="fill:#c8beb7;stroke-width:5.09515" d="m 433.79179,750.76424 c -116.3563,-4.23041 -225.97215,-8.1236 -243.59077,-8.65153 -17.61862,-0.52793 -32.46189,-1.351 -32.98503,-1.82906 -0.52314,-0.47805 -0.58161,-8.21938 -0.12992,-17.20295 l 0.82126,-16.33376 12.80998,0.005 c 7.04549,0.003 44.043,0.88093 82.21667,1.9511 38.17368,1.07018 94.33303,2.5707 124.79857,3.33449 30.46553,0.7638 61.0979,1.68103 68.07194,2.03828 6.97404,0.35726 15.90981,0.65624 19.85729,0.66441 l 7.17723,0.0148 -0.6451,6.71367 c -0.35481,3.69251 -0.13856,7.02672 0.48055,7.40935 0.61909,0.38263 30.11392,1.53172 65.54404,2.55354 70.63535,2.03715 113.67584,3.47695 114.03678,3.8148 0.55807,0.52236 -5.52364,23.53784 -6.1786,23.38217 -0.40038,-0.0952 -95.92858,-3.63427 -212.28489,-7.86469 z" id="path3654" transform="scale(0.26458333)" />
  <path style="fill:#c8beb7;stroke-width:5.09515" d="m 297.20559,708.01678 c -76.22359,-2.04143 -138.7829,-3.91308 -139.0207,-4.1592 -0.2378,-0.24613 -0.87538,-107.21034 -1.41684,-237.69825 -0.79376,-191.28783 -0.65644,-237.25074 0.70883,-237.25074 1.93204,0 263.43087,13.98833 375.71077,20.09786 41.08669,2.23567 74.87293,4.23469 75.0805,4.44227 0.77665,0.77663 37.80225,383.37987 37.44905,386.97877 -0.35992,3.66727 -2.35437,4.54422 -85.75622,37.70651 l -85.38775,33.95191 -19.38966,-0.17871 c -10.66432,-0.0982 -81.75441,-1.84896 -157.97798,-3.89042 z m 142.78977,-55.88829 c 38.06182,-7.78531 70.17701,-24.62233 97.30106,-51.01202 28.64992,-27.87423 45.93137,-59.92707 53.51263,-99.25273 3.13623,-16.26838 3.06917,-46.33113 -0.14143,-63.40034 -12.45597,-66.22212 -60.90121,-121.1346 -126.03483,-142.85992 -91.34936,-30.46958 -192.29127,9.01077 -234.84392,91.85203 -30.739,59.84252 -26.53729,129.05902 11.24609,185.26151 27.2876,40.59008 75.49883,71.44812 124.68489,79.80569 18.83233,3.19994 20.36857,3.30469 41.37706,2.82145 12.73613,-0.29297 23.98514,-1.3925 32.89845,-3.21567 z" id="path3730" transform="scale(0.26458333)" />
  <path style="fill:#c8beb7;stroke-width:5.09515" d="m 559.9251,729.97772 c -31.5667,-0.96025 -62.70065,-1.92509 -69.18657,-2.14408 l -11.79258,-0.39817 84.43635,-33.02346 c 46.43999,-18.16291 84.55639,-32.87846 84.70312,-32.70123 0.29697,0.35869 4.64056,64.36945 4.6184,68.06049 -0.0169,2.8277 -6.16006,2.84137 -92.77872,0.20645 z" id="path3769" transform="scale(0.26458333)" />
  <path style="fill:#ac9d93;stroke-width:5.09515" d="m 553.25138,754.68341 c -33.76902,-1.3326 -129.57027,-4.83742 -212.89167,-7.78848 -83.32139,-2.95107 -158.63041,-5.75484 -167.35339,-6.2306 l -15.85994,-0.86502 0.65449,-15.89169 c 0.35998,-8.74043 0.88997,-16.11763 1.17777,-16.39377 0.60142,-0.57707 58.62184,0.78401 195.14848,4.57789 52.71978,1.46501 100.8532,2.66366 106.96316,2.66366 h 11.10901 l -0.18365,6.96353 -0.18364,6.96354 6.67372,0.91727 c 3.67054,0.5045 40.9099,1.88549 82.75412,3.06887 41.84423,1.18338 79.28636,2.49189 83.20474,2.9078 8.03115,0.85245 7.76044,-0.31202 3.46007,14.88339 l -1.98314,7.00741 -15.64595,-0.18045 c -8.60528,-0.0992 -43.27516,-1.27076 -77.04418,-2.60335 z" id="path3845" transform="scale(0.26458333)" />
</svg>
