<?xml version="1.0" encoding="UTF-8" standalone="no"?>
<!-- Created with Inkscape (http://www.inkscape.org/) -->

<svg width="179.99278mm" height="174.58665mm" viewBox="0 0 179.99278 174.58665" version="1.1" id="svg5" xmlns="http://www.w3.org/2000/svg" xmlns:svg="http://www.w3.org/2000/svg" xmlns:rdf="http://www.w3.org/1999/02/22-rdf-syntax-ns#" xmlns:cc="http://creativecommons.org/ns#" xmlns:dc="http://purl.org/dc/elements/1.1/">
  <title id="title2147">led</title>
  <defs id="defs2" />
  <metadata id="metadata2145">
    <rdf:RDF>
      <cc:Work rdf:about="">
        <dc:title>led</dc:title>
      </cc:Work>
    </rdf:RDF>
  </metadata>
  <ellipse style="fill:#008000;fill-rule:evenodd;stroke-width:0.342638" id="path826" cx="89.132179" cy="79.797287" rx="68.629349" ry="60.530895" />
  <path style="fill:none;stroke:#000000;stroke-width:0.331449px;stroke-linecap:butt;stroke-linejoin:miter;stroke-opacity:1" d="m 177.62423,138.19419 v 0 L 163.76074,8.1642786 0.64013554,0.16725401 1.4998202,156.72792 115.24171,159.42731 v 0" id="path978" />
  <path style="fill:#502d16;stroke:#000000;stroke-width:0.342638px;stroke-linecap:butt;stroke-linejoin:miter;stroke-opacity:1" d="m 115.24171,159.42731 62.38252,-22.69086 v 0" id="path980" />
  <path style="fill:#917c6f;stroke:#000000;stroke-width:0.332037px;stroke-linecap:butt;stroke-linejoin:miter;stroke-opacity:1" d="M 0.64013554,0.16725401 0.17382892,0.81161348 0.95581029,165.21801 v 0 l -0.0218562,3.48147 v 0 0" id="path982" />
  <path style="fill:none;stroke:#000000;stroke-width:0.342638px;stroke-linecap:butt;stroke-linejoin:miter;stroke-opacity:1" d="m 115.24171,159.42731 -0.57606,4.90804 v 0" id="path984" />
  <path style="fill:none;stroke:#000000;stroke-width:0.342638px;stroke-linecap:butt;stroke-linejoin:miter;stroke-opacity:1" d="m 114.66565,164.33535 65.09659,1.67153 -2.41316,8.4114 -176.41512593,-5.7188 v 0" id="path986" />
  <path style="fill:none;stroke:#000000;stroke-width:0.342638px;stroke-linecap:butt;stroke-linejoin:miter;stroke-opacity:1" d="m 177.62423,136.73645 2.13801,29.27043 v 0" id="path988" />
  <path style="fill:#ac9d93;stroke:#000000;stroke-width:0.342638px;stroke-linecap:butt;stroke-linejoin:miter;stroke-opacity:1" d="m 114.66565,164.33535 63.02027,-22.56057 v 0" id="path990" />
  <path style="fill:none;stroke:#000000;stroke-width:0.342638px;stroke-linecap:butt;stroke-linejoin:miter;stroke-opacity:1" d="M 0.93395407,168.69948 1.4998189,156.5426 v 0" id="path992" />
  <path style="fill:#f9f9f9;stroke-width:0.163638" d="m 141.53126,173.03213 c -18.58759,-0.61283 -57.743462,-1.88897 -87.013032,-2.83588 -29.269572,-0.94691 -53.2402254,-1.73973 -53.2681157,-1.76184 -0.054505,-0.0432 0.4807203,-11.55644 0.5399962,-11.6159 0.06867,-0.0689 113.0663615,2.82023 113.1214315,2.8923 0.0171,0.0224 -0.0855,1.04522 -0.22805,2.27289 -0.1878,1.61703 -0.20756,2.2793 -0.0718,2.40333 0.21685,0.19802 -0.41121,0.17871 37.09472,1.13983 15.15233,0.38827 27.57924,0.73208 27.61537,0.76398 0.0604,0.0534 -1.65075,6.21563 -2.05081,7.38569 -0.16818,0.49184 -0.2033,0.50806 -1.05904,0.48927 -0.48678,-0.0111 -16.09311,-0.52084 -34.68071,-1.13367 z" id="path1471" />
  <path style="fill:#ac9d93;stroke-width:1.74579" d="m 115.38863,161.87745 c 0.1678,-1.01978 0.43898,-1.97728 0.60262,-2.12779 0.2791,-0.25671 60.55387,-22.25025 60.9783,-22.25025 0.1081,0 0.27275,0.87612 0.36587,1.94695 l 0.16932,1.94694 -28.9342,10.35259 c -15.9138,5.69392 -29.95858,10.72003 -31.2106,11.16913 l -2.27641,0.81656 z" id="path3615" />
  <path style="fill:#c8beb7;stroke-width:1.74579" d="M 100.74647,171.6037 C 59.057243,170.21752 19.783045,168.94183 13.47048,168.76884 7.1579153,168.59586 1.8397288,168.32616 1.6522933,168.16951 1.4648578,168.01287 1.4439086,165.47626 1.6057443,162.5326 l 0.2942488,-5.35211 4.5896802,0.002 c 2.5243244,9.8e-4 15.7801407,0.28866 29.4573617,0.63932 13.677226,0.35067 33.798526,0.84235 44.714006,1.09262 10.915477,0.25027 21.890729,0.55082 24.389459,0.66788 2.49872,0.11707 5.70031,0.21503 7.11465,0.21771 l 2.57153,0.005 -0.23113,2.19988 c -0.12713,1.20993 -0.0496,2.30245 0.17217,2.42783 0.22182,0.12538 10.7895,0.5019 23.48374,0.83672 25.3079,0.66752 40.72885,1.1393 40.85817,1.25 0.19995,0.17117 -1.97906,7.71268 -2.21373,7.66167 -0.14345,-0.0312 -34.37019,-1.19084 -76.05943,-2.57703 z" id="path3654" />
  <g id="g4720" transform="matrix(1.3541647,0,0,1.2384431,-54.676531,-74.400267)">
    <path style="fill:#c8beb7;stroke-width:5.09515" d="m 297.20559,708.01678 c -76.22359,-2.04143 -138.7829,-3.91308 -139.0207,-4.1592 -0.2378,-0.24613 -0.87538,-107.21034 -1.41684,-237.69825 -0.79376,-191.28783 -0.65644,-237.25074 0.70883,-237.25074 1.93204,0 263.43087,13.98833 375.71077,20.09786 41.08669,2.23567 74.87293,4.23469 75.0805,4.44227 0.77665,0.77663 37.80225,383.37987 37.44905,386.97877 -0.35992,3.66727 -2.35437,4.54422 -85.75622,37.70651 l -85.38775,33.95191 -19.38966,-0.17871 c -10.66432,-0.0982 -81.75441,-1.84896 -157.97798,-3.89042 z m 142.78977,-55.88829 c 38.06182,-7.78531 70.17701,-24.62233 97.30106,-51.01202 28.64992,-27.87423 45.93137,-59.92707 53.51263,-99.25273 3.13623,-16.26838 3.06917,-46.33113 -0.14143,-63.40034 -12.45597,-66.22212 -60.90121,-121.1346 -126.03483,-142.85992 -91.34936,-30.46958 -192.29127,9.01077 -234.84392,91.85203 -30.739,59.84252 -26.53729,129.05902 11.24609,185.26151 27.2876,40.59008 75.49883,71.44812 124.68489,79.80569 18.83233,3.19994 20.36857,3.30469 41.37706,2.82145 12.73613,-0.29297 23.98514,-1.3925 32.89845,-3.21567 z" id="path3730" transform="scale(0.26458333)" />
  </g>
  <path style="fill:#c8beb7;stroke-width:1.74579" d="m 145.9387,164.79255 c -11.31001,-0.31464 -22.46498,-0.63079 -24.78881,-0.70255 l -4.22516,-0.13047 30.25265,-10.82084 c 16.63896,-5.95147 30.29566,-10.77333 30.34823,-10.71526 0.1064,0.11753 1.66267,21.09203 1.65473,22.30148 -0.006,0.92655 -2.20709,0.93103 -33.24164,0.0676 z" id="path3769" />
  <path style="fill:#ac9d93;stroke-width:1.74579" d="m 143.54758,172.8879 c -12.09908,-0.43665 -46.423656,-1.58508 -76.276831,-2.55206 -29.853172,-0.96698 -56.835596,-1.8857 -59.9609477,-2.04159 l -5.6824485,-0.28344 0.2344968,-5.20725 c 0.128977,-2.86399 0.3188668,-5.28129 0.4219825,-5.37177 0.2154824,-0.18909 21.0035849,0.25689 69.9196339,1.50004 18.888939,0.48004 36.134634,0.87281 38.323764,0.87281 h 3.98024 l -0.0658,2.28175 -0.0658,2.28175 2.39112,0.30056 c 1.31512,0.16531 14.65759,0.61782 29.64993,1.00558 14.99234,0.38776 28.40746,0.81652 29.81137,0.95281 2.87748,0.27932 2.78049,-0.10224 1.23971,4.87686 l -0.71054,2.29612 -5.60578,-0.0591 c -3.08318,-0.0325 -15.50503,-0.4164 -27.60411,-0.85305 z" id="path3845" />
</svg>
