<?xml version="1.0" encoding="UTF-8" standalone="no"?>
<!-- Created with Inkscape (http://www.inkscape.org/) -->

<svg width="211.66692mm" height="130.03973mm" viewBox="0 0 211.66692 130.03973" version="1.1" id="svg5" xmlns="http://www.w3.org/2000/svg" xmlns:svg="http://www.w3.org/2000/svg">
  <defs id="defs2" />
  <g id="layer1" transform="translate(2.5263576e-4,-54.670624)">
    <path id="path1253" style="fill:#d38d5f;stroke-width:1.11939" d="m -2.5248971e-4,54.710258 v 32.569238 a 26.458363,32.500047 0 0 1 1.67018428971,-0.0045 26.458363,32.500047 0 0 1 3.4323528,0.545263 26.458363,32.500047 0 0 1 3.3450193,1.091166 26.458363,32.500047 0 0 1 3.2008421,1.618018 26.458363,32.500047 0 0 1 3.000854,2.116946 26.458363,32.500047 0 0 1 2.75074,2.580325 26.458363,32.500047 0 0 1 2.452566,2.999272 26.458363,32.500047 0 0 1 2.113053,3.366794 26.458363,32.500047 0 0 1 1.737363,3.67658 26.458363,32.500047 0 0 1 1.331704,3.92412 26.458363,32.500047 0 0 1 0.903304,4.10376 26.458363,32.500047 0 0 1 0.459921,4.21359 L -2.5248971e-4,119.71035 26.397651,117.51216 a 26.458363,32.500047 0 0 1 0.05374,1.45743 26.458363,32.500047 0 0 1 5.2e-4,1.45804 26.458363,32.500047 0 0 1 -0.05323,1.45744 26.458363,32.500047 0 0 1 -0.105933,1.45234 26.458363,32.500047 0 0 1 -0.158648,1.44536 26.458363,32.500047 0 0 1 -0.211873,1.43521 26.458363,32.500047 0 0 1 -0.26355,1.42187 26.458363,32.500047 0 0 1 -0.315743,1.40601 26.458363,32.500047 0 0 1 -0.366388,1.3876 26.458363,32.500047 0 0 1 -0.41703,1.36538 26.458363,32.500047 0 0 1 -0.46612,1.34126 26.458363,32.500047 0 0 1 -0.514698,1.31398 26.458363,32.500047 0 0 1 -0.56224,1.28476 26.458363,32.500047 0 0 1 -0.608749,1.25239 26.458363,32.500047 0 0 1 -0.653708,1.21749 26.458363,32.500047 0 0 1 -0.697633,1.18002 26.458363,32.500047 0 0 1 -0.73949,1.14068 26.458363,32.500047 0 0 1 -0.781348,1.09878 26.458363,32.500047 0 0 1 -0.820106,1.05435 26.458363,32.500047 0 0 1 -0.857831,1.00865 26.458363,32.500047 0 0 1 -0.894003,0.95977 26.458363,32.500047 0 0 1 -0.927593,0.90961 26.458363,32.500047 0 0 1 -0.960665,0.85821 26.458363,32.500047 0 0 1 -0.990639,0.80362 26.458363,32.500047 0 0 1 -1.019062,0.74839 26.458363,32.500047 0 0 1 -1.045414,0.69189 26.458363,32.500047 0 0 1 -1.069187,0.6335 26.458363,32.500047 0 0 1 -1.0919244,0.57319 26.458363,32.500047 0 0 1 -1.1115614,0.51289 26.458363,32.500047 0 0 1 -1.1291313,0.45132 26.458363,32.500047 0 0 1 -1.1441175,0.38848 26.458363,32.500047 0 0 1 -1.1575536,0.32563 26.458363,32.500047 0 0 1 -1.1684056,0.26089 26.458363,32.500047 0 0 1 -1.1761568,0.19614 26.458363,32.500047 0 0 1 -1.1828751,0.1314 26.458363,32.500047 0 0 1 -1.78955693576,0.005 v 32.56923 H 211.66667 v -34.76801 a 26.458363,32.500047 0 0 1 -1.73168,0.005 26.458363,32.500047 0 0 1 -3.43236,-0.54527 26.458363,32.500047 0 0 1 -3.34502,-1.09116 26.458363,32.500047 0 0 1 -3.20032,-1.61802 26.458363,32.500047 0 0 1 -3.00086,-2.11759 26.458363,32.500047 0 0 1 -2.75073,-2.58032 26.458363,32.500047 0 0 1 -2.45257,-2.99926 26.458363,32.500047 0 0 1 -2.11305,-3.36681 26.458363,32.500047 0 0 1 -1.73736,-3.67657 26.458363,32.500047 0 0 1 -1.33171,-3.92413 26.458363,32.500047 0 0 1 -0.9033,-4.10376 26.458363,32.500047 0 0 1 -0.45941,-4.21358 26.458363,32.500047 0 0 1 -0.009,-4.25103 26.458363,32.500047 0 0 1 0.4439,-4.21612 26.458363,32.500047 0 0 1 0.88832,-4.10885 26.458363,32.500047 0 0 1 1.31724,-3.9311 26.458363,32.500047 0 0 1 1.7234,-3.686725 26.458363,32.500047 0 0 1 2.10066,-3.37823 26.458363,32.500047 0 0 1 2.44171,-3.013235 26.458363,32.500047 0 0 1 2.74092,-2.595561 26.458363,32.500047 0 0 1 2.99362,-2.133452 26.458363,32.500047 0 0 1 3.19412,-1.635793 26.458363,32.500047 0 0 1 3.34088,-1.109571 26.458363,32.500047 0 0 1 3.4303,-0.564941 26.458363,32.500047 0 0 1 1.85105,-0.005 V 54.710219 Z" />
    <rect style="fill:#008000;stroke-width:1.24063" id="rect1518" width="130" height="130" x="40.931301" y="54.670624" />
  </g>
</svg>
