<?xml version="1.0" standalone="no"?>
<!DOCTYPE svg PUBLIC "-//W3C//DTD SVG 1.1//EN" "http://www.w3.org/Graphics/SVG/1.1/DTD/svg11.dtd">
<svg width="5270.00000000001mm" height="37020.0mm"
 viewBox="0 0 5270.00000000001 37020.0"
 xmlns="http://www.w3.org/2000/svg" version="1.1"
 xmlns:xlink="http://www.w3.org/1999/xlink">
<desc>Output from Flights of Ideas SVG Sketchup Plugin</desc>

  <g id="face0" fill="none" stroke="rgb(0,0,255)" stroke-width="0.1" stroke-miterlimit="4" stroke-dasharray="none" stroke-linejoin="round" stroke-linecap="round">
    <line x1="5260.0" y1="37010.0" x2="5260.00000000001" y2="10.0"/>
    <line x1="5260.00000000001" y1="10.0" x2="10.0000000000036" y2="10.0"/>
    <line x1="10.0000000000036" y1="10.0" x2="10.0" y2="37010.0"/>
    <line x1="10.0" y1="37010.0" x2="5260.0" y2="37010.0"/>
    <line x1="2135.00000000001" y1="23590.0" x2="2385.0" y2="23156.9872981078"/>
    <line x1="2385.0" y1="23156.9872981078" x2="2885.00000000001" y2="23156.9872981078"/>
    <line x1="2885.00000000001" y1="23156.9872981078" x2="3135.00000000001" y2="23590.0"/>
    <line x1="3135.00000000001" y1="23590.0" x2="2885.00000000001" y2="24023.0127018922"/>
    <line x1="2885.00000000001" y1="24023.0127018922" x2="2385.0" y2="24023.0127018922"/>
    <line x1="2385.0" y1="24023.0127018922" x2="2135.00000000001" y2="23590.0"/>
    <line x1="2885.00000000001" y1="25696.9872981078" x2="3135.00000000001" y2="26130.0"/>
    <line x1="3135.00000000001" y1="26130.0" x2="2885.00000000001" y2="26563.0127018922"/>
    <line x1="2885.00000000001" y1="26563.0127018922" x2="2385.0" y2="26563.0127018922"/>
    <line x1="2385.0" y1="26563.0127018922" x2="2135.00000000001" y2="26130.0"/>
    <line x1="2135.00000000001" y1="26130.0" x2="2385.0" y2="25696.9872981078"/>
    <line x1="2385.0" y1="25696.9872981078" x2="2885.00000000001" y2="25696.9872981078"/>
    <line x1="2885.00000000001" y1="20616.9872981078" x2="3135.00000000001" y2="21050.0"/>
    <line x1="3135.00000000001" y1="21050.0" x2="2885.00000000001" y2="21483.0127018922"/>
    <line x1="2885.00000000001" y1="21483.0127018922" x2="2385.00000000001" y2="21483.0127018922"/>
    <line x1="2385.00000000001" y1="21483.0127018922" x2="2135.0" y2="21050.0"/>
    <line x1="2135.0" y1="21050.0" x2="2385.00000000001" y2="20616.9872981078"/>
    <line x1="2385.00000000001" y1="20616.9872981078" x2="2885.00000000001" y2="20616.9872981078"/>
    <line x1="2385.0" y1="15536.9872981078" x2="2885.00000000001" y2="15536.9872981078"/>
    <line x1="2885.00000000001" y1="15536.9872981078" x2="3135.00000000001" y2="15970.0"/>
    <line x1="3135.00000000001" y1="15970.0" x2="2885.00000000001" y2="16403.0127018922"/>
    <line x1="2885.00000000001" y1="16403.0127018922" x2="2385.0" y2="16403.0127018922"/>
    <line x1="2385.0" y1="16403.0127018922" x2="2135.00000000001" y2="15970.0"/>
    <line x1="2135.00000000001" y1="15970.0" x2="2385.0" y2="15536.9872981078"/>
    <line x1="2885.0" y1="18076.9872981078" x2="3135.0" y2="18510.0"/>
    <line x1="3135.0" y1="18510.0" x2="2885.00000000001" y2="18943.0127018922"/>
    <line x1="2885.00000000001" y1="18943.0127018922" x2="2385.00000000001" y2="18943.0127018922"/>
    <line x1="2385.00000000001" y1="18943.0127018922" x2="2135.00000000001" y2="18510.0"/>
    <line x1="2135.00000000001" y1="18510.0" x2="2385.0" y2="18076.9872981078"/>
    <line x1="2385.0" y1="18076.9872981078" x2="2885.0" y2="18076.9872981078"/>
    <line x1="2135.00000000001" y1="13430.0" x2="2385.0" y2="12996.9872981078"/>
    <line x1="2385.0" y1="12996.9872981078" x2="2885.00000000001" y2="12996.9872981078"/>
    <line x1="2885.00000000001" y1="12996.9872981078" x2="3135.00000000001" y2="13430.0"/>
    <line x1="3135.00000000001" y1="13430.0" x2="2885.00000000001" y2="13863.0127018922"/>
    <line x1="2885.00000000001" y1="13863.0127018922" x2="2385.0" y2="13863.0127018922"/>
    <line x1="2385.0" y1="13863.0127018922" x2="2135.00000000001" y2="13430.0"/>
    <line x1="2135.0" y1="10890.0" x2="2385.0" y2="10456.9872981078"/>
    <line x1="2385.0" y1="10456.9872981078" x2="2885.0" y2="10456.9872981078"/>
    <line x1="2885.0" y1="10456.9872981078" x2="3135.0" y2="10890.0"/>
    <line x1="3135.0" y1="10890.0" x2="2885.00000000001" y2="11323.0127018922"/>
    <line x1="2885.00000000001" y1="11323.0127018922" x2="2385.00000000001" y2="11323.0127018922"/>
    <line x1="2385.00000000001" y1="11323.0127018922" x2="2135.0" y2="10890.0"/>
  </g>
</svg>
