solid MIACKeypad
facet normal -0.9961946980917455 -0.0871557427476576 0.0
  outer loop
    vertex -12.184465303671463 -9.03579428128195 3.0
    vertex -11.76070109843398 -11.439080514250016 0.0
    vertex -11.76070109843398 -11.439080514250016 3.0
  endloop
endfacet
facet normal -0.9659258262890685 -0.25881904510252013 0.0
  outer loop
    vertex -11.76070109843398 -11.439080514250016 0.0
    vertex -12.184465303671463 -9.03579428128195 3.0
    vertex -12.184465303671463 -9.03579428128195 0.0
  endloop
endfacet
facet normal -0.9961946980917455 0.08715574274765844 0.0
  outer loop
    vertex -12.184465303671463 -6.59543348434752 3.0
    vertex -12.184465303671463 -9.03579428128195 0.0
    vertex -12.184465303671463 -9.03579428128195 3.0
  endloop
endfacet
facet normal -0.9961946980917455 -0.0871557427476576 0.0
  outer loop
    vertex -12.184465303671463 -9.03579428128195 0.0
    vertex -12.184465303671463 -6.59543348434752 3.0
    vertex -12.184465303671463 -6.59543348434752 0.0
  endloop
endfacet
facet normal -0.9063077870366502 -0.42261826174069905 0.0
  outer loop
    vertex -10.926048548900123 -13.732269547184512 3.0
    vertex -9.705868150432915 -15.845683991729382 0.0
    vertex -9.705868150432915 -15.845683991729382 3.0
  endloop
endfacet
facet normal -0.8191520442889921 -0.5735764363510455 0.0
  outer loop
    vertex -9.705868150432915 -15.845683991729382 0.0
    vertex -10.926048548900123 -13.732269547184512 3.0
    vertex -10.926048548900123 -13.732269547184512 0.0
  endloop
endfacet
facet normal -0.8191520442889911 0.573576436351047 0.0
  outer loop
    vertex -9.705868150432899 0.21445622609991577 3.0
    vertex -10.926048548900122 -1.8989582184449367 0.0
    vertex -10.926048548900122 -1.8989582184449367 3.0
  endloop
endfacet
facet normal -0.9063077870366498 0.42261826174069966 0.0
  outer loop
    vertex -10.926048548900122 -1.8989582184449367 0.0
    vertex -9.705868150432899 0.21445622609991577 3.0
    vertex -9.705868150432899 0.21445622609991577 0.0
  endloop
endfacet
facet normal -0.9659258262890683 0.2588190451025206 0.0
  outer loop
    vertex -11.760701098433982 -4.192147251379436 3.0
    vertex -12.184465303671463 -6.59543348434752 0.0
    vertex -12.184465303671463 -6.59543348434752 3.0
  endloop
endfacet
facet normal -0.9961946980917455 0.08715574274765844 0.0
  outer loop
    vertex -12.184465303671463 -6.59543348434752 0.0
    vertex -11.760701098433982 -4.192147251379436 3.0
    vertex -11.760701098433982 -4.192147251379436 0.0
  endloop
endfacet
facet normal -0.9063077870366498 0.42261826174069966 0.0
  outer loop
    vertex -10.926048548900122 -1.8989582184449367 3.0
    vertex -11.760701098433982 -4.192147251379436 0.0
    vertex -11.760701098433982 -4.192147251379436 3.0
  endloop
endfacet
facet normal -0.9659258262890683 0.2588190451025206 0.0
  outer loop
    vertex -11.760701098433982 -4.192147251379436 0.0
    vertex -10.926048548900122 -1.8989582184449367 3.0
    vertex -10.926048548900122 -1.8989582184449367 0.0
  endloop
endfacet
facet normal -0.9659258262890685 -0.25881904510252013 0.0
  outer loop
    vertex -11.76070109843398 -11.439080514250016 3.0
    vertex -10.926048548900123 -13.732269547184512 0.0
    vertex -10.926048548900123 -13.732269547184512 3.0
  endloop
endfacet
facet normal -0.9063077870366502 -0.42261826174069905 0.0
  outer loop
    vertex -10.926048548900123 -13.732269547184512 0.0
    vertex -11.76070109843398 -11.439080514250016 3.0
    vertex -11.76070109843398 -11.439080514250016 0.0
  endloop
endfacet
facet normal -0.8191520442889921 -0.5735764363510455 0.0
  outer loop
    vertex -9.705868150432915 -15.845683991729382 3.0
    vertex -9.105098897894322 -16.561652906762397 0.0
    vertex -9.105098897894322 -16.561652906762397 3.0
  endloop
endfacet
facet normal -0.766044443118979 -0.6427876096865381 0.0
  outer loop
    vertex -9.105098897894322 -16.561652906762397 0.0
    vertex -9.705868150432915 -15.845683991729382 3.0
    vertex -9.705868150432915 -15.845683991729382 0.0
  endloop
endfacet
facet normal 0.6269719923438448 -0.7790417965785855 0.0
  outer loop
    vertex -4.44765916896262 -12.813350467927677 3.0
    vertex -9.105098897894322 -16.561652906762397 0.0
    vertex -4.44765916896262 -12.813350467927677 0.0
  endloop
endfacet
facet normal 0.6269719923438448 -0.7790417965785855 0.0
  outer loop
    vertex -9.105098897894322 -16.561652906762397 0.0
    vertex -4.44765916896262 -12.813350467927677 3.0
    vertex -9.105098897894322 -16.561652906762397 3.0
  endloop
endfacet
facet normal 0.8191520442889919 0.5735764363510459 0.0
  outer loop
    vertex -4.790955884698957 -12.40422537362311 0.0
    vertex -4.44765916896262 -12.813350467927677 3.0
    vertex -4.44765916896262 -12.813350467927677 0.0
  endloop
endfacet
facet normal 0.7660444431189785 0.642787609686539 0.0
  outer loop
    vertex -4.44765916896262 -12.813350467927677 3.0
    vertex -4.790955884698957 -12.40422537362311 0.0
    vertex -4.790955884698957 -12.40422537362311 3.0
  endloop
endfacet
facet normal 0.9659258262890685 0.2588190451025199 0.0
  outer loop
    vertex -5.9651461406995665 -9.886166243634893 0.0
    vertex -5.488201826680228 -11.196559976740328 3.0
    vertex -5.488201826680228 -11.196559976740328 0.0
  endloop
endfacet
facet normal 0.9063077870366503 0.4226182617406987 0.0
  outer loop
    vertex -5.488201826680228 -11.196559976740328 3.0
    vertex -5.9651461406995665 -9.886166243634893 0.0
    vertex -5.9651461406995665 -9.886166243634893 3.0
  endloop
endfacet
facet normal 0.9063077870366503 0.4226182617406987 0.0
  outer loop
    vertex -5.488201826680228 -11.196559976740328 0.0
    vertex -4.790955884698957 -12.40422537362311 3.0
    vertex -4.790955884698957 -12.40422537362311 0.0
  endloop
endfacet
facet normal 0.8191520442889919 0.5735764363510459 0.0
  outer loop
    vertex -4.790955884698957 -12.40422537362311 3.0
    vertex -5.488201826680228 -11.196559976740328 0.0
    vertex -5.488201826680228 -11.196559976740328 3.0
  endloop
endfacet
facet normal 0.7660444431189785 -0.6427876096865389 0.0
  outer loop
    vertex -4.447659168962616 -2.8178772977017887 0.0
    vertex -4.790955884698948 -3.227002392006362 3.0
    vertex -4.790955884698948 -3.227002392006362 0.0
  endloop
endfacet
facet normal 0.8191520442889919 -0.573576436351046 0.0
  outer loop
    vertex -4.790955884698948 -3.227002392006362 3.0
    vertex -4.447659168962616 -2.8178772977017887 0.0
    vertex -4.447659168962616 -2.8178772977017887 3.0
  endloop
endfacet
facet normal 0.9961946980917457 0.08715574274765767 0.0
  outer loop
    vertex -6.207297115120985 -8.512859824796001 0.0
    vertex -5.9651461406995665 -9.886166243634893 3.0
    vertex -5.9651461406995665 -9.886166243634893 0.0
  endloop
endfacet
facet normal 0.9659258262890685 0.2588190451025199 0.0
  outer loop
    vertex -5.9651461406995665 -9.886166243634893 3.0
    vertex -6.207297115120985 -8.512859824796001 0.0
    vertex -6.207297115120985 -8.512859824796001 3.0
  endloop
endfacet
facet normal 0.9961946980917454 -0.08715574274765837 0.0
  outer loop
    vertex -6.207297115120989 -7.1183679408334655 0.0
    vertex -6.207297115120985 -8.512859824796001 3.0
    vertex -6.207297115120985 -8.512859824796001 0.0
  endloop
endfacet
facet normal 0.9961946980917457 0.08715574274765767 0.0
  outer loop
    vertex -6.207297115120985 -8.512859824796001 3.0
    vertex -6.207297115120989 -7.1183679408334655 0.0
    vertex -6.207297115120989 -7.1183679408334655 3.0
  endloop
endfacet
facet normal 0.9063077870366497 -0.4226182617407 0.0
  outer loop
    vertex -5.488201826680223 -4.434667788889135 0.0
    vertex -5.965146140699562 -5.7450615219945655 3.0
    vertex -5.965146140699562 -5.7450615219945655 0.0
  endloop
endfacet
facet normal 0.9659258262890683 -0.258819045102521 0.0
  outer loop
    vertex -5.965146140699562 -5.7450615219945655 3.0
    vertex -5.488201826680223 -4.434667788889135 0.0
    vertex -5.488201826680223 -4.434667788889135 3.0
  endloop
endfacet
facet normal 0.9659258262890683 -0.258819045102521 0.0
  outer loop
    vertex -5.965146140699562 -5.7450615219945655 0.0
    vertex -6.207297115120989 -7.1183679408334655 3.0
    vertex -6.207297115120989 -7.1183679408334655 0.0
  endloop
endfacet
facet normal 0.9961946980917454 -0.08715574274765837 0.0
  outer loop
    vertex -6.207297115120989 -7.1183679408334655 3.0
    vertex -5.965146140699562 -5.7450615219945655 0.0
    vertex -5.965146140699562 -5.7450615219945655 3.0
  endloop
endfacet
facet normal 0.8191520442889919 -0.573576436351046 0.0
  outer loop
    vertex -4.790955884698948 -3.227002392006362 0.0
    vertex -5.488201826680223 -4.434667788889135 3.0
    vertex -5.488201826680223 -4.434667788889135 0.0
  endloop
endfacet
facet normal 0.9063077870366497 -0.4226182617407 0.0
  outer loop
    vertex -5.488201826680223 -4.434667788889135 3.0
    vertex -4.790955884698948 -3.227002392006362 0.0
    vertex -4.790955884698948 -3.227002392006362 3.0
  endloop
endfacet
facet normal -0.7660444431189771 0.6427876096865406 0.0
  outer loop
    vertex -9.105098897894319 0.9304251411329247 3.0
    vertex -9.705868150432899 0.21445622609991577 0.0
    vertex -9.705868150432899 0.21445622609991577 3.0
  endloop
endfacet
facet normal -0.8191520442889911 0.573576436351047 0.0
  outer loop
    vertex -9.705868150432899 0.21445622609991577 0.0
    vertex -9.105098897894319 0.9304251411329247 3.0
    vertex -9.105098897894319 0.9304251411329247 0.0
  endloop
endfacet
facet normal 0.626971992343845 0.7790417965785851 0.0
  outer loop
    vertex -9.105098897894319 0.9304251411329247 3.0
    vertex -4.447659168962616 -2.8178772977017887 0.0
    vertex -9.105098897894319 0.9304251411329247 0.0
  endloop
endfacet
facet normal 0.626971992343845 0.7790417965785851 0.0
  outer loop
    vertex -4.447659168962616 -2.8178772977017887 0.0
    vertex -9.105098897894319 0.9304251411329247 3.0
    vertex -4.447659168962616 -2.8178772977017887 3.0
  endloop
endfacet
facet normal 0.0 0.0 1.0
  outer loop
    vertex -11.76070109843398 -11.439080514250016 3.0
    vertex -12.184465303671463 -6.59543348434752 3.0
    vertex -12.184465303671463 -9.03579428128195 3.0
  endloop
endfacet
facet normal 0.0 0.0 1.0
  outer loop
    vertex -12.184465303671463 -6.59543348434752 3.0
    vertex -11.76070109843398 -11.439080514250016 3.0
    vertex -11.760701098433982 -4.192147251379436 3.0
  endloop
endfacet
facet normal 0.0 0.0 1.0
  outer loop
    vertex -11.760701098433982 -4.192147251379436 3.0
    vertex -11.76070109843398 -11.439080514250016 3.0
    vertex -10.926048548900122 -1.8989582184449367 3.0
  endloop
endfacet
facet normal 0.0 0.0 1.0
  outer loop
    vertex -10.926048548900122 -1.8989582184449367 3.0
    vertex -11.76070109843398 -11.439080514250016 3.0
    vertex -10.926048548900123 -13.732269547184512 3.0
  endloop
endfacet
facet normal 0.0 0.0 1.0
  outer loop
    vertex -10.926048548900122 -1.8989582184449367 3.0
    vertex -10.926048548900123 -13.732269547184512 3.0
    vertex -9.705868150432915 -15.845683991729382 3.0
  endloop
endfacet
facet normal 0.0 0.0 1.0
  outer loop
    vertex -10.926048548900122 -1.8989582184449367 3.0
    vertex -9.705868150432915 -15.845683991729382 3.0
    vertex -9.705868150432899 0.21445622609991577 3.0
  endloop
endfacet
facet normal 0.0 0.0 1.0
  outer loop
    vertex -9.705868150432899 0.21445622609991577 3.0
    vertex -9.705868150432915 -15.845683991729382 3.0
    vertex -9.105098897894322 -16.561652906762397 3.0
  endloop
endfacet
facet normal 0.0 0.0 1.0
  outer loop
    vertex -9.705868150432899 0.21445622609991577 3.0
    vertex -9.105098897894322 -16.561652906762397 3.0
    vertex -9.105098897894319 0.9304251411329247 3.0
  endloop
endfacet
facet normal 0.0 0.0 1.0
  outer loop
    vertex -9.105098897894319 0.9304251411329247 3.0
    vertex -9.105098897894322 -16.561652906762397 3.0
    vertex -5.9651461406995665 -9.886166243634893 3.0
  endloop
endfacet
facet normal 0.0 0.0 1.0
  outer loop
    vertex -5.9651461406995665 -9.886166243634893 3.0
    vertex -9.105098897894322 -16.561652906762397 3.0
    vertex -5.488201826680228 -11.196559976740328 3.0
  endloop
endfacet
facet normal 0.0 0.0 1.0
  outer loop
    vertex -5.488201826680228 -11.196559976740328 3.0
    vertex -9.105098897894322 -16.561652906762397 3.0
    vertex -4.790955884698957 -12.40422537362311 3.0
  endloop
endfacet
facet normal 0.0 0.0 1.0
  outer loop
    vertex -4.790955884698957 -12.40422537362311 3.0
    vertex -9.105098897894322 -16.561652906762397 3.0
    vertex -4.44765916896262 -12.813350467927677 3.0
  endloop
endfacet
facet normal 0.0 0.0 1.0
  outer loop
    vertex -9.105098897894319 0.9304251411329247 3.0
    vertex -5.9651461406995665 -9.886166243634893 3.0
    vertex -6.207297115120985 -8.512859824796001 3.0
  endloop
endfacet
facet normal 0.0 0.0 1.0
  outer loop
    vertex -9.105098897894319 0.9304251411329247 3.0
    vertex -6.207297115120985 -8.512859824796001 3.0
    vertex -6.207297115120989 -7.1183679408334655 3.0
  endloop
endfacet
facet normal 0.0 0.0 1.0
  outer loop
    vertex -9.105098897894319 0.9304251411329247 3.0
    vertex -4.790955884698948 -3.227002392006362 3.0
    vertex -4.447659168962616 -2.8178772977017887 3.0
  endloop
endfacet
facet normal 0.0 0.0 1.0
  outer loop
    vertex -4.790955884698948 -3.227002392006362 3.0
    vertex -9.105098897894319 0.9304251411329247 3.0
    vertex -5.488201826680223 -4.434667788889135 3.0
  endloop
endfacet
facet normal 0.0 0.0 1.0
  outer loop
    vertex -5.488201826680223 -4.434667788889135 3.0
    vertex -9.105098897894319 0.9304251411329247 3.0
    vertex -5.965146140699562 -5.7450615219945655 3.0
  endloop
endfacet
facet normal 0.0 0.0 1.0
  outer loop
    vertex -5.965146140699562 -5.7450615219945655 3.0
    vertex -9.105098897894319 0.9304251411329247 3.0
    vertex -6.207297115120989 -7.1183679408334655 3.0
  endloop
endfacet
facet normal 0.0 0.0 -1.0
  outer loop
    vertex -9.105098897894319 0.9304251411329247 0.0
    vertex -5.965146140699562 -5.7450615219945655 0.0
    vertex -6.207297115120989 -7.1183679408334655 0.0
  endloop
endfacet
facet normal 0.0 0.0 -1.0
  outer loop
    vertex -5.965146140699562 -5.7450615219945655 0.0
    vertex -9.105098897894319 0.9304251411329247 0.0
    vertex -5.488201826680223 -4.434667788889135 0.0
  endloop
endfacet
facet normal 0.0 0.0 -1.0
  outer loop
    vertex -5.488201826680223 -4.434667788889135 0.0
    vertex -9.105098897894319 0.9304251411329247 0.0
    vertex -4.790955884698948 -3.227002392006362 0.0
  endloop
endfacet
facet normal 0.0 0.0 -1.0
  outer loop
    vertex -4.790955884698948 -3.227002392006362 0.0
    vertex -9.105098897894319 0.9304251411329247 0.0
    vertex -4.447659168962616 -2.8178772977017887 0.0
  endloop
endfacet
facet normal 0.0 0.0 -1.0
  outer loop
    vertex -11.760701098433982 -4.192147251379436 0.0
    vertex -12.184465303671463 -9.03579428128195 0.0
    vertex -12.184465303671463 -6.59543348434752 0.0
  endloop
endfacet
facet normal 0.0 0.0 -1.0
  outer loop
    vertex -12.184465303671463 -9.03579428128195 0.0
    vertex -11.760701098433982 -4.192147251379436 0.0
    vertex -11.76070109843398 -11.439080514250016 0.0
  endloop
endfacet
facet normal 0.0 0.0 -1.0
  outer loop
    vertex -11.76070109843398 -11.439080514250016 0.0
    vertex -11.760701098433982 -4.192147251379436 0.0
    vertex -10.926048548900122 -1.8989582184449367 0.0
  endloop
endfacet
facet normal 0.0 0.0 -1.0
  outer loop
    vertex -11.76070109843398 -11.439080514250016 0.0
    vertex -10.926048548900122 -1.8989582184449367 0.0
    vertex -10.926048548900123 -13.732269547184512 0.0
  endloop
endfacet
facet normal 0.0 0.0 -1.0
  outer loop
    vertex -10.926048548900123 -13.732269547184512 0.0
    vertex -10.926048548900122 -1.8989582184449367 0.0
    vertex -9.705868150432915 -15.845683991729382 0.0
  endloop
endfacet
facet normal 0.0 0.0 -1.0
  outer loop
    vertex -9.705868150432915 -15.845683991729382 0.0
    vertex -10.926048548900122 -1.8989582184449367 0.0
    vertex -9.705868150432899 0.21445622609991577 0.0
  endloop
endfacet
facet normal 0.0 0.0 -1.0
  outer loop
    vertex -9.705868150432915 -15.845683991729382 0.0
    vertex -9.705868150432899 0.21445622609991577 0.0
    vertex -9.105098897894322 -16.561652906762397 0.0
  endloop
endfacet
facet normal 0.0 0.0 -1.0
  outer loop
    vertex -9.105098897894322 -16.561652906762397 0.0
    vertex -9.705868150432899 0.21445622609991577 0.0
    vertex -9.105098897894319 0.9304251411329247 0.0
  endloop
endfacet
facet normal 0.0 0.0 -1.0
  outer loop
    vertex -9.105098897894322 -16.561652906762397 0.0
    vertex -9.105098897894319 0.9304251411329247 0.0
    vertex -5.9651461406995665 -9.886166243634893 0.0
  endloop
endfacet
facet normal 0.0 0.0 -1.0
  outer loop
    vertex -9.105098897894322 -16.561652906762397 0.0
    vertex -5.9651461406995665 -9.886166243634893 0.0
    vertex -5.488201826680228 -11.196559976740328 0.0
  endloop
endfacet
facet normal 0.0 0.0 -1.0
  outer loop
    vertex -9.105098897894322 -16.561652906762397 0.0
    vertex -5.488201826680228 -11.196559976740328 0.0
    vertex -4.790955884698957 -12.40422537362311 0.0
  endloop
endfacet
facet normal 0.0 0.0 -1.0
  outer loop
    vertex -9.105098897894322 -16.561652906762397 0.0
    vertex -4.790955884698957 -12.40422537362311 0.0
    vertex -4.44765916896262 -12.813350467927677 0.0
  endloop
endfacet
facet normal 0.0 0.0 -1.0
  outer loop
    vertex -5.9651461406995665 -9.886166243634893 0.0
    vertex -9.105098897894319 0.9304251411329247 0.0
    vertex -6.207297115120985 -8.512859824796001 0.0
  endloop
endfacet
facet normal 0.0 0.0 -1.0
  outer loop
    vertex -6.207297115120985 -8.512859824796001 0.0
    vertex -9.105098897894319 0.9304251411329247 0.0
    vertex -6.207297115120989 -7.1183679408334655 0.0
  endloop
endfacet
endsolid MIACKeypad
